<svg width="381" height="74" viewBox="0 0 381 74" fill="none" xmlns="http://www.w3.org/2000/svg">
<path d="M8.818 14.96C9.38733 15.0813 9.84467 15.366 10.19 15.814C10.5353 16.2527 10.708 16.7567 10.708 17.326C10.708 18.1473 10.4187 18.8007 9.84 19.286C9.27067 19.762 8.47267 20 7.446 20H2.868V10.172H7.292C8.29067 10.172 9.07 10.4007 9.63 10.858C10.1993 11.3153 10.484 11.936 10.484 12.72C10.484 13.2987 10.33 13.7793 10.022 14.162C9.72333 14.5447 9.322 14.8107 8.818 14.96ZM5.262 14.148H6.83C7.222 14.148 7.52067 14.064 7.726 13.896C7.94067 13.7187 8.048 13.462 8.048 13.126C8.048 12.79 7.94067 12.5333 7.726 12.356C7.52067 12.1787 7.222 12.09 6.83 12.09H5.262V14.148ZM7.026 18.068C7.42733 18.068 7.73533 17.9793 7.95 17.802C8.174 17.6153 8.286 17.3493 8.286 17.004C8.286 16.6587 8.16933 16.388 7.936 16.192C7.712 15.996 7.39933 15.898 6.998 15.898H5.262V18.068H7.026ZM14.4905 9.64V20H12.0965V9.64H14.4905ZM19.7814 20.112C19.0161 20.112 18.3254 19.9487 17.7094 19.622C17.1028 19.2953 16.6221 18.8287 16.2674 18.222C15.9221 17.6153 15.7494 16.906 15.7494 16.094C15.7494 15.2913 15.9268 14.5867 16.2814 13.98C16.6361 13.364 17.1214 12.8927 17.7374 12.566C18.3534 12.2393 19.0441 12.076 19.8094 12.076C20.5748 12.076 21.2654 12.2393 21.8814 12.566C22.4974 12.8927 22.9828 13.364 23.3374 13.98C23.6921 14.5867 23.8694 15.2913 23.8694 16.094C23.8694 16.8967 23.6874 17.606 23.3234 18.222C22.9688 18.8287 22.4788 19.2953 21.8534 19.622C21.2374 19.9487 20.5468 20.112 19.7814 20.112ZM19.7814 18.04C20.2388 18.04 20.6261 17.872 20.9434 17.536C21.2701 17.2 21.4334 16.7193 21.4334 16.094C21.4334 15.4687 21.2748 14.988 20.9574 14.652C20.6494 14.316 20.2668 14.148 19.8094 14.148C19.3428 14.148 18.9554 14.316 18.6474 14.652C18.3394 14.9787 18.1854 15.4593 18.1854 16.094C18.1854 16.7193 18.3348 17.2 18.6334 17.536C18.9414 17.872 19.3241 18.04 19.7814 18.04ZM24.6635 16.094C24.6635 15.282 24.8268 14.5727 25.1535 13.966C25.4895 13.3593 25.9515 12.8927 26.5395 12.566C27.1368 12.2393 27.8182 12.076 28.5835 12.076C29.5635 12.076 30.3802 12.3327 31.0335 12.846C31.6962 13.3593 32.1302 14.0827 32.3355 15.016H29.7875C29.5728 14.4187 29.1575 14.12 28.5415 14.12C28.1028 14.12 27.7528 14.2927 27.4915 14.638C27.2302 14.974 27.0995 15.4593 27.0995 16.094C27.0995 16.7287 27.2302 17.2187 27.4915 17.564C27.7528 17.9 28.1028 18.068 28.5415 18.068C29.1575 18.068 29.5728 17.7693 29.7875 17.172H32.3355C32.1302 18.0867 31.6962 18.8053 31.0335 19.328C30.3708 19.8507 29.5542 20.112 28.5835 20.112C27.8182 20.112 27.1368 19.9487 26.5395 19.622C25.9515 19.2953 25.4895 18.8287 25.1535 18.222C24.8268 17.6153 24.6635 16.906 24.6635 16.094ZM38.39 20L36.01 16.724V20H33.616V9.64H36.01V15.366L38.376 12.188H41.33L38.082 16.108L41.358 20H38.39ZM41.7943 16.094C41.7943 15.282 41.9577 14.5727 42.2843 13.966C42.6203 13.3593 43.0823 12.8927 43.6703 12.566C44.2677 12.2393 44.949 12.076 45.7143 12.076C46.6943 12.076 47.511 12.3327 48.1643 12.846C48.827 13.3593 49.261 14.0827 49.4663 15.016H46.9183C46.7037 14.4187 46.2883 14.12 45.6723 14.12C45.2337 14.12 44.8837 14.2927 44.6223 14.638C44.361 14.974 44.2303 15.4593 44.2303 16.094C44.2303 16.7287 44.361 17.2187 44.6223 17.564C44.8837 17.9 45.2337 18.068 45.6723 18.068C46.2883 18.068 46.7037 17.7693 46.9183 17.172H49.4663C49.261 18.0867 48.827 18.8053 48.1643 19.328C47.5017 19.8507 46.685 20.112 45.7143 20.112C44.949 20.112 44.2677 19.9487 43.6703 19.622C43.0823 19.2953 42.6203 18.8287 42.2843 18.222C41.9577 17.6153 41.7943 16.906 41.7943 16.094ZM55.5489 12.104C56.4449 12.104 57.1636 12.4027 57.7049 13C58.2462 13.588 58.5169 14.4 58.5169 15.436V20H56.1369V15.758C56.1369 15.2353 56.0016 14.8293 55.7309 14.54C55.4602 14.2507 55.0962 14.106 54.6389 14.106C54.1816 14.106 53.8176 14.2507 53.5469 14.54C53.2762 14.8293 53.1409 15.2353 53.1409 15.758V20H50.7469V9.64H53.1409V13.238C53.3836 12.8927 53.7149 12.6173 54.1349 12.412C54.5549 12.2067 55.0262 12.104 55.5489 12.104ZM59.7045 16.08C59.7045 15.2773 59.8538 14.5727 60.1525 13.966C60.4605 13.3593 60.8758 12.8927 61.3985 12.566C61.9212 12.2393 62.5045 12.076 63.1485 12.076C63.6992 12.076 64.1798 12.188 64.5905 12.412C65.0105 12.636 65.3325 12.93 65.5565 13.294V12.188H67.9505V20H65.5565V18.894C65.3232 19.258 64.9965 19.552 64.5765 19.776C64.1658 20 63.6852 20.112 63.1345 20.112C62.4998 20.112 61.9212 19.9487 61.3985 19.622C60.8758 19.286 60.4605 18.8147 60.1525 18.208C59.8538 17.592 59.7045 16.8827 59.7045 16.08ZM65.5565 16.094C65.5565 15.4967 65.3885 15.0253 65.0525 14.68C64.7258 14.3347 64.3245 14.162 63.8485 14.162C63.3725 14.162 62.9665 14.3347 62.6305 14.68C62.3038 15.016 62.1405 15.4827 62.1405 16.08C62.1405 16.6773 62.3038 17.1533 62.6305 17.508C62.9665 17.8533 63.3725 18.026 63.8485 18.026C64.3245 18.026 64.7258 17.8533 65.0525 17.508C65.3885 17.1627 65.5565 16.6913 65.5565 16.094ZM70.8865 11.376C70.4665 11.376 70.1211 11.2547 69.8505 11.012C69.5891 10.76 69.4585 10.452 69.4585 10.088C69.4585 9.71467 69.5891 9.40667 69.8505 9.164C70.1211 8.912 70.4665 8.786 70.8865 8.786C71.2971 8.786 71.6331 8.912 71.8945 9.164C72.1651 9.40667 72.3005 9.71467 72.3005 10.088C72.3005 10.452 72.1651 10.76 71.8945 11.012C71.6331 11.2547 71.2971 11.376 70.8865 11.376ZM72.0765 12.188V20H69.6825V12.188H72.0765ZM78.5714 12.104C79.486 12.104 80.214 12.4027 80.7554 13C81.306 13.588 81.5814 14.4 81.5814 15.436V20H79.2014V15.758C79.2014 15.2353 79.066 14.8293 78.7954 14.54C78.5247 14.2507 78.1607 14.106 77.7034 14.106C77.246 14.106 76.882 14.2507 76.6114 14.54C76.3407 14.8293 76.2054 15.2353 76.2054 15.758V20H73.8114V12.188H76.2054V13.224C76.448 12.8787 76.7747 12.608 77.1854 12.412C77.596 12.2067 78.058 12.104 78.5714 12.104ZM95.0038 20H92.6098L88.6058 13.938V20H86.2118V10.172H88.6058L92.6098 16.262V10.172H95.0038V20ZM104.103 15.968C104.103 16.192 104.089 16.4253 104.061 16.668H98.6431C98.6804 17.1533 98.8344 17.5267 99.1051 17.788C99.3851 18.04 99.7258 18.166 100.127 18.166C100.724 18.166 101.14 17.914 101.373 17.41H103.921C103.79 17.9233 103.552 18.3853 103.207 18.796C102.871 19.2067 102.446 19.5287 101.933 19.762C101.42 19.9953 100.846 20.112 100.211 20.112C99.4458 20.112 98.7644 19.9487 98.1671 19.622C97.5698 19.2953 97.1031 18.8287 96.7671 18.222C96.4311 17.6153 96.2631 16.906 96.2631 16.094C96.2631 15.282 96.4264 14.5727 96.7531 13.966C97.0891 13.3593 97.5558 12.8927 98.1531 12.566C98.7504 12.2393 99.4364 12.076 100.211 12.076C100.967 12.076 101.639 12.2347 102.227 12.552C102.815 12.8693 103.272 13.322 103.599 13.91C103.935 14.498 104.103 15.184 104.103 15.968ZM101.653 15.338C101.653 14.9273 101.513 14.6007 101.233 14.358C100.953 14.1153 100.603 13.994 100.183 13.994C99.7818 13.994 99.4411 14.1107 99.1611 14.344C98.8904 14.5773 98.7224 14.9087 98.6571 15.338H101.653ZM109.72 17.97V20H108.502C107.634 20 106.957 19.79 106.472 19.37C105.987 18.9407 105.744 18.2453 105.744 17.284V14.176H104.792V12.188H105.744V10.284H108.138V12.188H109.706V14.176H108.138V17.312C108.138 17.5453 108.194 17.7133 108.306 17.816C108.418 17.9187 108.605 17.97 108.866 17.97H109.72ZM122.268 12.188L120.154 20H117.508L116.276 14.932L115.002 20H112.37L110.242 12.188H112.636L113.742 17.774L115.058 12.188H117.592L118.922 17.746L120.014 12.188H122.268ZM126.737 20.112C125.971 20.112 125.281 19.9487 124.665 19.622C124.058 19.2953 123.577 18.8287 123.223 18.222C122.877 17.6153 122.705 16.906 122.705 16.094C122.705 15.2913 122.882 14.5867 123.236 13.98C123.591 13.364 124.077 12.8927 124.693 12.566C125.309 12.2393 125.999 12.076 126.765 12.076C127.53 12.076 128.221 12.2393 128.837 12.566C129.453 12.8927 129.938 13.364 130.293 13.98C130.647 14.5867 130.825 15.2913 130.825 16.094C130.825 16.8967 130.643 17.606 130.279 18.222C129.924 18.8287 129.434 19.2953 128.809 19.622C128.193 19.9487 127.502 20.112 126.737 20.112ZM126.737 18.04C127.194 18.04 127.581 17.872 127.899 17.536C128.225 17.2 128.389 16.7193 128.389 16.094C128.389 15.4687 128.23 14.988 127.913 14.652C127.605 14.316 127.222 14.148 126.765 14.148C126.298 14.148 125.911 14.316 125.603 14.652C125.295 14.9787 125.141 15.4593 125.141 16.094C125.141 16.7193 125.29 17.2 125.589 17.536C125.897 17.872 126.279 18.04 126.737 18.04ZM134.489 13.49C134.769 13.0607 135.119 12.7247 135.539 12.482C135.959 12.23 136.425 12.104 136.939 12.104V14.638H136.281C135.683 14.638 135.235 14.7687 134.937 15.03C134.638 15.282 134.489 15.73 134.489 16.374V20H132.095V12.188H134.489V13.49ZM142.857 20L140.477 16.724V20H138.083V9.64H140.477V15.366L142.843 12.188H145.797L142.549 16.108L145.825 20H142.857Z" fill="white"/>
<path d="M59.584 53.48C60.8853 53.7573 61.9307 54.408 62.72 55.432C63.5093 56.4347 63.904 57.5867 63.904 58.888C63.904 60.7653 63.2427 62.2587 61.92 63.368C60.6187 64.456 58.7947 65 56.448 65H45.984V42.536H56.096C58.3787 42.536 60.16 43.0587 61.44 44.104C62.7413 45.1493 63.392 46.568 63.392 48.36C63.392 49.6827 63.04 50.7813 62.336 51.656C61.6533 52.5307 60.736 53.1387 59.584 53.48ZM51.456 51.624H55.04C55.936 51.624 56.6187 51.432 57.088 51.048C57.5787 50.6427 57.824 50.056 57.824 49.288C57.824 48.52 57.5787 47.9333 57.088 47.528C56.6187 47.1227 55.936 46.92 55.04 46.92H51.456V51.624ZM55.488 60.584C56.4053 60.584 57.1093 60.3813 57.6 59.976C58.112 59.5493 58.368 58.9413 58.368 58.152C58.368 57.3627 58.1013 56.744 57.568 56.296C57.056 55.848 56.3413 55.624 55.424 55.624H51.456V60.584H55.488ZM69.8298 45.288C68.8698 45.288 68.0804 45.0107 67.4618 44.456C66.8644 43.88 66.5658 43.176 66.5658 42.344C66.5658 41.4907 66.8644 40.7867 67.4618 40.232C68.0804 39.656 68.8698 39.368 69.8298 39.368C70.7684 39.368 71.5364 39.656 72.1338 40.232C72.7524 40.7867 73.0618 41.4907 73.0618 42.344C73.0618 43.176 72.7524 43.88 72.1338 44.456C71.5364 45.0107 70.7684 45.288 69.8298 45.288ZM72.5498 47.144V65H67.0778V47.144H72.5498ZM87.3953 46.952C89.4859 46.952 91.1499 47.6347 92.3873 49C93.6459 50.344 94.2753 52.2 94.2753 54.568V65H88.8353V55.304C88.8353 54.1093 88.5259 53.1813 87.9073 52.52C87.2886 51.8587 86.4566 51.528 85.4113 51.528C84.3659 51.528 83.5339 51.8587 82.9153 52.52C82.2966 53.1813 81.9873 54.1093 81.9873 55.304V65H76.5153V47.144H81.9873V49.512C82.5419 48.7227 83.2886 48.104 84.2273 47.656C85.1659 47.1867 86.2219 46.952 87.3953 46.952ZM96.9898 56.04C96.9898 54.2053 97.3311 52.5947 98.0138 51.208C98.7178 49.8213 99.6671 48.7547 100.862 48.008C102.056 47.2613 103.39 46.888 104.862 46.888C106.12 46.888 107.219 47.144 108.158 47.656C109.118 48.168 109.854 48.84 110.366 49.672V47.144H115.838V65H110.366V62.472C109.832 63.304 109.086 63.976 108.126 64.488C107.187 65 106.088 65.256 104.83 65.256C103.379 65.256 102.056 64.8827 100.862 64.136C99.6671 63.368 98.7178 62.2907 98.0138 60.904C97.3311 59.496 96.9898 57.8747 96.9898 56.04ZM110.366 56.072C110.366 54.7067 109.982 53.6293 109.214 52.84C108.467 52.0507 107.55 51.656 106.462 51.656C105.374 51.656 104.446 52.0507 103.678 52.84C102.931 53.608 102.558 54.6747 102.558 56.04C102.558 57.4053 102.931 58.4933 103.678 59.304C104.446 60.0933 105.374 60.488 106.462 60.488C107.55 60.488 108.467 60.0933 109.214 59.304C109.982 58.5147 110.366 57.4373 110.366 56.072ZM130.677 46.952C132.767 46.952 134.431 47.6347 135.669 49C136.927 50.344 137.557 52.2 137.557 54.568V65H132.117V55.304C132.117 54.1093 131.807 53.1813 131.189 52.52C130.57 51.8587 129.738 51.528 128.693 51.528C127.647 51.528 126.815 51.8587 126.197 52.52C125.578 53.1813 125.269 54.1093 125.269 55.304V65H119.797V47.144H125.269V49.512C125.823 48.7227 126.57 48.104 127.509 47.656C128.447 47.1867 129.503 46.952 130.677 46.952ZM140.271 56.072C140.271 54.216 140.644 52.5947 141.391 51.208C142.159 49.8213 143.215 48.7547 144.559 48.008C145.924 47.2613 147.482 46.888 149.231 46.888C151.471 46.888 153.338 47.4747 154.831 48.648C156.346 49.8213 157.338 51.4747 157.807 53.608H151.983C151.492 52.2427 150.543 51.56 149.135 51.56C148.132 51.56 147.332 51.9547 146.735 52.744C146.138 53.512 145.839 54.6213 145.839 56.072C145.839 57.5227 146.138 58.6427 146.735 59.432C147.332 60.2 148.132 60.584 149.135 60.584C150.543 60.584 151.492 59.9013 151.983 58.536H157.807C157.338 60.6267 156.346 62.2693 154.831 63.464C153.316 64.6587 151.45 65.256 149.231 65.256C147.482 65.256 145.924 64.8827 144.559 64.136C143.215 63.3893 142.159 62.3227 141.391 60.936C140.644 59.5493 140.271 57.928 140.271 56.072ZM177.566 55.784C177.566 56.296 177.534 56.8293 177.47 57.384H165.086C165.171 58.4933 165.523 59.3467 166.142 59.944C166.782 60.52 167.561 60.808 168.478 60.808C169.843 60.808 170.793 60.232 171.326 59.08H177.15C176.851 60.2533 176.307 61.3093 175.518 62.248C174.75 63.1867 173.779 63.9227 172.606 64.456C171.433 64.9893 170.121 65.256 168.67 65.256C166.921 65.256 165.363 64.8827 163.998 64.136C162.633 63.3893 161.566 62.3227 160.798 60.936C160.03 59.5493 159.646 57.928 159.646 56.072C159.646 54.216 160.019 52.5947 160.766 51.208C161.534 49.8213 162.601 48.7547 163.966 48.008C165.331 47.2613 166.899 46.888 168.67 46.888C170.398 46.888 171.934 47.2507 173.278 47.976C174.622 48.7013 175.667 49.736 176.414 51.08C177.182 52.424 177.566 53.992 177.566 55.784ZM171.966 54.344C171.966 53.4053 171.646 52.6587 171.006 52.104C170.366 51.5493 169.566 51.272 168.606 51.272C167.689 51.272 166.91 51.5387 166.27 52.072C165.651 52.6053 165.267 53.3627 165.118 54.344H171.966ZM195.362 65.224C193.719 65.224 192.247 64.9573 190.946 64.424C189.645 63.8907 188.599 63.1013 187.81 62.056C187.042 61.0107 186.637 59.752 186.594 58.28H192.418C192.503 59.112 192.791 59.752 193.282 60.2C193.773 60.6267 194.413 60.84 195.202 60.84C196.013 60.84 196.653 60.6587 197.122 60.296C197.591 59.912 197.826 59.3893 197.826 58.728C197.826 58.1733 197.634 57.7147 197.25 57.352C196.887 56.9893 196.429 56.6907 195.874 56.456C195.341 56.2213 194.573 55.9547 193.57 55.656C192.119 55.208 190.935 54.76 190.018 54.312C189.101 53.864 188.311 53.2027 187.65 52.328C186.989 51.4533 186.658 50.312 186.658 48.904C186.658 46.8133 187.415 45.1813 188.93 44.008C190.445 42.8133 192.418 42.216 194.85 42.216C197.325 42.216 199.319 42.8133 200.834 44.008C202.349 45.1813 203.159 46.824 203.266 48.936H197.346C197.303 48.2107 197.037 47.6453 196.546 47.24C196.055 46.8133 195.426 46.6 194.658 46.6C193.997 46.6 193.463 46.7813 193.058 47.144C192.653 47.4853 192.45 47.9867 192.45 48.648C192.45 49.3733 192.791 49.9387 193.474 50.344C194.157 50.7493 195.223 51.1867 196.674 51.656C198.125 52.1467 199.298 52.616 200.194 53.064C201.111 53.512 201.901 54.1627 202.562 55.016C203.223 55.8693 203.554 56.968 203.554 58.312C203.554 59.592 203.223 60.7547 202.562 61.8C201.922 62.8453 200.983 63.6773 199.746 64.296C198.509 64.9147 197.047 65.224 195.362 65.224ZM229.706 46.952C231.924 46.952 233.684 47.624 234.986 48.968C236.308 50.312 236.97 52.1787 236.97 54.568V65H231.53V55.304C231.53 54.152 231.22 53.2667 230.602 52.648C230.004 52.008 229.172 51.688 228.106 51.688C227.039 51.688 226.196 52.008 225.578 52.648C224.98 53.2667 224.682 54.152 224.682 55.304V65H219.242V55.304C219.242 54.152 218.932 53.2667 218.314 52.648C217.716 52.008 216.884 51.688 215.818 51.688C214.751 51.688 213.908 52.008 213.29 52.648C212.692 53.2667 212.394 54.152 212.394 55.304V65H206.922V47.144H212.394V49.384C212.948 48.6373 213.674 48.0507 214.57 47.624C215.466 47.176 216.479 46.952 217.61 46.952C218.954 46.952 220.148 47.24 221.194 47.816C222.26 48.392 223.092 49.2133 223.69 50.28C224.308 49.2987 225.151 48.4987 226.218 47.88C227.284 47.2613 228.447 46.952 229.706 46.952ZM239.709 56.04C239.709 54.2053 240.05 52.5947 240.733 51.208C241.437 49.8213 242.386 48.7547 243.581 48.008C244.775 47.2613 246.109 46.888 247.581 46.888C248.839 46.888 249.938 47.144 250.877 47.656C251.837 48.168 252.573 48.84 253.085 49.672V47.144H258.557V65H253.085V62.472C252.551 63.304 251.805 63.976 250.845 64.488C249.906 65 248.807 65.256 247.549 65.256C246.098 65.256 244.775 64.8827 243.581 64.136C242.386 63.368 241.437 62.2907 240.733 60.904C240.05 59.496 239.709 57.8747 239.709 56.04ZM253.085 56.072C253.085 54.7067 252.701 53.6293 251.933 52.84C251.186 52.0507 250.269 51.656 249.181 51.656C248.093 51.656 247.165 52.0507 246.397 52.84C245.65 53.608 245.277 54.6747 245.277 56.04C245.277 57.4053 245.65 58.4933 246.397 59.304C247.165 60.0933 248.093 60.488 249.181 60.488C250.269 60.488 251.186 60.0933 251.933 59.304C252.701 58.5147 253.085 57.4373 253.085 56.072ZM267.987 50.12C268.627 49.1387 269.427 48.3707 270.387 47.816C271.347 47.24 272.414 46.952 273.587 46.952V52.744H272.083C270.718 52.744 269.694 53.0427 269.011 53.64C268.329 54.216 267.987 55.24 267.987 56.712V65H262.515V47.144H267.987V50.12ZM286.155 60.36V65H283.371C281.387 65 279.84 64.52 278.731 63.56C277.621 62.5787 277.067 60.9893 277.067 58.792V51.688H274.891V47.144H277.067V42.792H282.539V47.144H286.123V51.688H282.539V58.856C282.539 59.3893 282.667 59.7733 282.923 60.008C283.179 60.2427 283.605 60.36 284.203 60.36H286.155ZM288.115 56.072C288.115 54.216 288.488 52.5947 289.235 51.208C290.003 49.8213 291.059 48.7547 292.403 48.008C293.768 47.2613 295.325 46.888 297.075 46.888C299.315 46.888 301.181 47.4747 302.675 48.648C304.189 49.8213 305.181 51.4747 305.651 53.608H299.827C299.336 52.2427 298.387 51.56 296.979 51.56C295.976 51.56 295.176 51.9547 294.579 52.744C293.981 53.512 293.683 54.6213 293.683 56.072C293.683 57.5227 293.981 58.6427 294.579 59.432C295.176 60.2 295.976 60.584 296.979 60.584C298.387 60.584 299.336 59.9013 299.827 58.536H305.651C305.181 60.6267 304.189 62.2693 302.675 63.464C301.16 64.6587 299.293 65.256 297.075 65.256C295.325 65.256 293.768 64.8827 292.403 64.136C291.059 63.3893 290.003 62.3227 289.235 60.936C288.488 59.5493 288.115 57.928 288.115 56.072ZM319.554 46.952C321.602 46.952 323.244 47.6347 324.482 49C325.719 50.344 326.338 52.2 326.338 54.568V65H320.898V55.304C320.898 54.1093 320.588 53.1813 319.97 52.52C319.351 51.8587 318.519 51.528 317.474 51.528C316.428 51.528 315.596 51.8587 314.978 52.52C314.359 53.1813 314.05 54.1093 314.05 55.304V65H308.578V41.32H314.05V49.544C314.604 48.7547 315.362 48.1253 316.322 47.656C317.282 47.1867 318.359 46.952 319.554 46.952ZM329.052 56.04C329.052 54.2053 329.394 52.5947 330.076 51.208C330.78 49.8213 331.73 48.7547 332.924 48.008C334.119 47.2613 335.452 46.888 336.924 46.888C338.183 46.888 339.282 47.144 340.22 47.656C341.18 48.168 341.916 48.84 342.428 49.672V47.144H347.9V65H342.428V62.472C341.895 63.304 341.148 63.976 340.188 64.488C339.25 65 338.151 65.256 336.892 65.256C335.442 65.256 334.119 64.8827 332.924 64.136C331.73 63.368 330.78 62.2907 330.076 60.904C329.394 59.496 329.052 57.8747 329.052 56.04ZM342.428 56.072C342.428 54.7067 342.044 53.6293 341.276 52.84C340.53 52.0507 339.612 51.656 338.524 51.656C337.436 51.656 336.508 52.0507 335.74 52.84C334.994 53.608 334.62 54.6747 334.62 56.04C334.62 57.4053 334.994 58.4933 335.74 59.304C336.508 60.0933 337.436 60.488 338.524 60.488C339.612 60.488 340.53 60.0933 341.276 59.304C342.044 58.5147 342.428 57.4373 342.428 56.072ZM354.611 45.288C353.651 45.288 352.862 45.0107 352.243 44.456C351.646 43.88 351.347 43.176 351.347 42.344C351.347 41.4907 351.646 40.7867 352.243 40.232C352.862 39.656 353.651 39.368 354.611 39.368C355.55 39.368 356.318 39.656 356.915 40.232C357.534 40.7867 357.843 41.4907 357.843 42.344C357.843 43.176 357.534 43.88 356.915 44.456C356.318 45.0107 355.55 45.288 354.611 45.288ZM357.331 47.144V65H351.859V47.144H357.331ZM372.177 46.952C374.267 46.952 375.931 47.6347 377.169 49C378.427 50.344 379.057 52.2 379.057 54.568V65H373.617V55.304C373.617 54.1093 373.307 53.1813 372.689 52.52C372.07 51.8587 371.238 51.528 370.193 51.528C369.147 51.528 368.315 51.8587 367.697 52.52C367.078 53.1813 366.769 54.1093 366.769 55.304V65H361.297V47.144H366.769V49.512C367.323 48.7227 368.07 48.104 369.009 47.656C369.947 47.1867 371.003 46.952 372.177 46.952Z" fill="#F3BA2F"/>
<path d="M12.2329 50.8083L20.0009 43.0406L27.7731 50.8124L32.2931 46.2925L20.0009 34L7.71289 46.2883L12.2329 50.8083Z" fill="#F3BA2F"/>
<path d="M9.04042 53.9994L4.52051 49.4795L0.000376002 53.9996L4.52029 58.5195L9.04042 53.9994Z" fill="#F3BA2F"/>
<path d="M12.2327 57.1918L20.0007 64.9595L27.7726 57.188L32.2951 61.7054L32.2929 61.708L20.0007 74.0001L7.71237 61.7121L7.70605 61.7058L12.2327 57.1918Z" fill="#F3BA2F"/>
<path d="M35.4808 58.5216L40.001 54.0015L35.4811 49.4816L30.9609 54.0017L35.4808 58.5216Z" fill="#F3BA2F"/>
<path d="M24.5847 53.9975H24.5866L20 49.4109L16.6104 52.8005H16.6101L16.2209 53.19L15.4175 53.9934L15.4111 53.9997L15.4175 54.0064L20 58.5889L24.5866 54.0023L24.5888 53.9997L24.5847 53.9975Z" fill="#F3BA2F"/>
</svg>
