<svg width="338" height="100" viewBox="0 0 338 100" fill="none" xmlns="http://www.w3.org/2000/svg">
<path d="M325.5 100H13C6 100 0.5 94.5 0.5 87.5V12.5C0.5 5.5 6 0 13 0H325.5C332.5 0 338 5.5 338 12.5V87.5C338 94.5 332.5 100 325.5 100Z" fill="black"/>
<path d="M325.5 2C331.25 2 336 6.75 336 12.5V87.5C336 93.25 331.25 98 325.5 98H13C7.25 98 2.5 93.25 2.5 87.5V12.5C2.5 6.75 7.25 2 13 2H325.5ZM325.5 0H13C6 0 0.5 5.75 0.5 12.5V87.5C0.5 94.5 6 100 13 100H325.5C332.5 100 338 94.5 338 87.5V12.5C338 5.75 332.5 0 325.5 0Z" fill="#A6A6A6"/>
<path d="M119.001 25.5001C119.001 27.5001 118.501 29.2501 117.251 30.5001C115.751 32.0001 114.001 32.7501 111.751 32.7501C109.501 32.7501 107.751 32.0001 106.251 30.5001C104.751 29.0001 104.001 27.2501 104.001 25.0001C104.001 22.7501 104.751 21.0001 106.251 19.5001C107.751 18.0001 109.501 17.2501 111.751 17.2501C112.751 17.2501 113.751 17.5001 114.751 18.0001C115.751 18.5001 116.501 19.0001 117.001 19.7501L115.751 21.0001C114.751 19.7501 113.501 19.2501 111.751 19.2501C110.251 19.2501 108.751 19.7501 107.751 21.0001C106.501 22.0001 106.001 23.5001 106.001 25.2501C106.001 27.0001 106.501 28.5001 107.751 29.5001C109.001 30.5001 110.251 31.2501 111.751 31.2501C113.501 31.2501 114.751 30.7501 116.001 29.5001C116.751 28.7501 117.251 27.7501 117.251 26.5001H111.751V24.5001H119.001V25.5001ZM130.501 19.2501H123.751V24.0001H130.001V25.7501H123.751V30.5001H130.501V32.5001H121.751V17.5001H130.501V19.2501ZM138.751 32.5001H136.751V19.2501H132.501V17.5001H143.001V19.2501H138.751V32.5001ZM150.251 32.5001V17.5001H152.251V32.5001H150.251ZM160.751 32.5001H158.751V19.2501H154.501V17.5001H164.751V19.2501H160.501V32.5001H160.751ZM184.501 30.5001C183.001 32.0001 181.251 32.7501 179.001 32.7501C176.751 32.7501 175.001 32.0001 173.501 30.5001C172.001 29.0001 171.251 27.2501 171.251 25.0001C171.251 22.7501 172.001 21.0001 173.501 19.5001C175.001 18.0001 176.751 17.2501 179.001 17.2501C181.251 17.2501 183.001 18.0001 184.501 19.5001C186.001 21.0001 186.751 22.7501 186.751 25.0001C186.751 27.2501 186.001 29.0001 184.501 30.5001ZM175.001 29.2501C176.001 30.2501 177.501 31.0001 179.001 31.0001C180.501 31.0001 182.001 30.5001 183.001 29.2501C184.001 28.2501 184.751 26.7501 184.751 25.0001C184.751 23.2501 184.251 21.7501 183.001 20.7501C182.001 19.7501 180.501 19.0001 179.001 19.0001C177.501 19.0001 176.001 19.5001 175.001 20.7501C174.001 21.7501 173.251 23.2501 173.251 25.0001C173.251 26.7501 173.751 28.2501 175.001 29.2501ZM189.501 32.5001V17.5001H191.751L199.001 29.2501V17.5001H201.001V32.5001H199.001L191.251 20.2501V32.5001H189.501Z" fill="white" stroke="white" stroke-width="0.2" stroke-miterlimit="10"/>
<path d="M170.749 54.5C164.749 54.5 159.999 59 159.999 65.25C159.999 71.25 164.749 76 170.749 76C176.749 76 181.499 71.5 181.499 65.25C181.499 58.75 176.749 54.5 170.749 54.5ZM170.749 71.5C167.499 71.5 164.749 68.75 164.749 65C164.749 61.25 167.499 58.5 170.749 58.5C173.999 58.5 176.749 61 176.749 65C176.749 68.75 173.999 71.5 170.749 71.5ZM147.499 54.5C141.499 54.5 136.749 59 136.749 65.25C136.749 71.25 141.499 76 147.499 76C153.499 76 158.249 71.5 158.249 65.25C158.249 58.75 153.499 54.5 147.499 54.5ZM147.499 71.5C144.249 71.5 141.499 68.75 141.499 65C141.499 61.25 144.249 58.5 147.499 58.5C150.749 58.5 153.499 61 153.499 65C153.499 68.75 150.749 71.5 147.499 71.5ZM119.749 57.75V62.25H130.499C130.249 64.75 129.249 66.75 127.999 68C126.499 69.5 123.999 71.25 119.749 71.25C112.999 71.25 107.999 66 107.999 59.25C107.999 52.5 113.249 47.25 119.749 47.25C123.249 47.25 125.999 48.75 127.999 50.5L131.249 47.25C128.499 44.75 124.999 42.75 119.999 42.75C110.999 42.75 103.249 50.25 103.249 59.25C103.249 68.25 110.999 75.75 119.999 75.75C124.999 75.75 128.499 74.25 131.499 71C134.499 68 135.499 63.75 135.499 60.5C135.499 59.5 135.499 58.5 135.249 57.75H119.749ZM233.249 61.25C232.249 58.75 229.749 54.5 224.249 54.5C218.749 54.5 214.249 58.75 214.249 65.25C214.249 71.25 218.749 76 224.749 76C229.499 76 232.499 73 233.499 71.25L229.999 68.75C228.749 70.5 227.249 71.75 224.749 71.75C222.249 71.75 220.749 70.75 219.499 68.5L233.749 62.5L233.249 61.25ZM218.749 64.75C218.749 60.75 221.999 58.5 224.249 58.5C225.999 58.5 227.749 59.5 228.249 60.75L218.749 64.75ZM206.999 75H211.749V43.75H206.999V75ZM199.499 56.75C198.249 55.5 196.249 54.25 193.749 54.25C188.499 54.25 183.499 59 183.499 65C183.499 71 188.249 75.5 193.749 75.5C196.249 75.5 198.249 74.25 199.249 73H199.499V74.5C199.499 78.5 197.249 80.75 193.749 80.75C190.999 80.75 188.999 78.75 188.499 77L184.499 78.75C185.749 81.5 188.749 85 193.999 85C199.499 85 203.999 81.75 203.999 74V55H199.499V56.75ZM193.999 71.5C190.749 71.5 187.999 68.75 187.999 65C187.999 61.25 190.749 58.5 193.999 58.5C197.249 58.5 199.749 61.25 199.749 65C199.749 68.75 197.249 71.5 193.999 71.5ZM254.999 43.75H243.749V75H248.499V63.25H254.999C260.249 63.25 265.249 59.5 265.249 53.5C265.249 47.5 260.249 43.75 254.999 43.75ZM255.249 58.75H248.499V48H255.249C258.749 48 260.749 51 260.749 53.25C260.499 56 258.499 58.75 255.249 58.75ZM283.999 54.25C280.499 54.25 276.999 55.75 275.749 59L279.999 60.75C280.999 59 282.499 58.5 284.249 58.5C286.749 58.5 288.999 60 289.249 62.5V62.75C288.499 62.25 286.499 61.5 284.499 61.5C279.999 61.5 275.499 64 275.499 68.5C275.499 72.75 279.249 75.5 283.249 75.5C286.499 75.5 287.999 74 289.249 72.5H289.499V75H293.999V63C293.499 57.5 289.249 54.25 283.999 54.25ZM283.499 71.5C281.999 71.5 279.749 70.75 279.749 68.75C279.749 66.25 282.499 65.5 284.749 65.5C286.749 65.5 287.749 66 288.999 66.5C288.499 69.5 285.999 71.5 283.499 71.5ZM309.749 55L304.499 68.5H304.249L298.749 55H293.749L301.999 74L297.249 84.5H301.999L314.749 55H309.749ZM267.749 75H272.499V43.75H267.749V75Z" fill="white"/>
<path d="M26.5 18.75C25.75 19.5 25.5 20.75 25.5 22.25V77.5C25.5 79 26 80.25 26.75 81L27 81.25L58 50.25V49.75L26.5 18.75Z" fill="url(#paint0_linear_140_2471)"/>
<path d="M68.001 60.7501L57.751 50.5001V49.7501L68.001 39.5001L68.251 39.7501L80.501 46.7501C84.001 48.7501 84.001 52.0001 80.501 54.0001L68.001 60.7501Z" fill="url(#paint1_linear_140_2471)"/>
<path d="M68.251 60.5001L57.751 50.0001L26.501 81.2501C27.751 82.5001 29.501 82.5001 31.751 81.5001L68.251 60.5001Z" fill="url(#paint2_linear_140_2471)"/>
<path d="M68.251 39.5002L31.751 18.7502C29.501 17.5002 27.751 17.7502 26.501 19.0002L57.751 50.0002L68.251 39.5002Z" fill="url(#paint3_linear_140_2471)"/>
<path opacity="0.2" d="M68.001 60.2501L31.751 80.7501C29.751 82.0001 28.001 81.7501 26.751 80.7501L26.501 81.0001L26.751 81.2501C28.001 82.2501 29.751 82.5001 31.751 81.2501L68.001 60.2501Z" fill="black"/>
<path opacity="0.12" d="M26.5 80.7501C25.75 80.0001 25.5 78.7501 25.5 77.2501V77.5001C25.5 79.0001 26 80.2501 26.75 81.0001V80.7501H26.5ZM80.5 53.2501L68 60.2501L68.25 60.5001L80.5 53.5001C82.25 52.5001 83 51.2501 83 50.0001C83 51.2501 82 52.2501 80.5 53.2501Z" fill="black"/>
<path opacity="0.25" d="M31.75 19.0001L80.5 46.7501C82 47.7501 83 48.7501 83 50.0001C83 48.7501 82.25 47.5001 80.5 46.5001L31.75 18.7501C28.25 16.7501 25.5 18.2501 25.5 22.2501V22.5001C25.5 18.7501 28.25 17.0001 31.75 19.0001Z" fill="white"/>
<defs>
<linearGradient id="paint0_linear_140_2471" x1="55" y1="21.775" x2="13.0425" y2="63.73" gradientUnits="userSpaceOnUse">
<stop stop-color="#00A0FF"/>
<stop offset="0.007" stop-color="#00A1FF"/>
<stop offset="0.26" stop-color="#00BEFF"/>
<stop offset="0.512" stop-color="#00D2FF"/>
<stop offset="0.76" stop-color="#00DFFF"/>
<stop offset="1" stop-color="#00E3FF"/>
</linearGradient>
<linearGradient id="paint1_linear_140_2471" x1="85.086" y1="50.0026" x2="24.5935" y2="50.0026" gradientUnits="userSpaceOnUse">
<stop stop-color="#FFE000"/>
<stop offset="0.409" stop-color="#FFBD00"/>
<stop offset="0.775" stop-color="#FFA500"/>
<stop offset="1" stop-color="#FF9C00"/>
</linearGradient>
<linearGradient id="paint2_linear_140_2471" x1="62.5685" y1="55.7401" x2="5.67348" y2="112.635" gradientUnits="userSpaceOnUse">
<stop stop-color="#FF3A44"/>
<stop offset="1" stop-color="#C31162"/>
</linearGradient>
<linearGradient id="paint3_linear_140_2471" x1="18.7435" y1="0.440158" x2="44.151" y2="25.8477" gradientUnits="userSpaceOnUse">
<stop stop-color="#32A071"/>
<stop offset="0.069" stop-color="#2DA771"/>
<stop offset="0.476" stop-color="#15CF74"/>
<stop offset="0.801" stop-color="#06E775"/>
<stop offset="1" stop-color="#00F076"/>
</linearGradient>
</defs>
</svg>
