<svg width="24" height="24" viewBox="0 0 24 24" fill="none" xmlns="http://www.w3.org/2000/svg">
<path d="M7.99883 2.40039C4.91163 2.40039 2.40039 4.91395 2.40039 8.00195V16.002C2.40039 19.0892 4.91395 21.6004 8.00195 21.6004H16.002C19.0892 21.6004 21.6004 19.0868 21.6004 15.9988V7.99883C21.6004 4.91163 19.0868 2.40039 15.9988 2.40039H7.99883ZM17.6004 5.60039C18.042 5.60039 18.4004 5.95879 18.4004 6.40039C18.4004 6.84199 18.042 7.20039 17.6004 7.20039C17.1588 7.20039 16.8004 6.84199 16.8004 6.40039C16.8004 5.95879 17.1588 5.60039 17.6004 5.60039ZM12.0004 7.20039C14.6476 7.20039 16.8004 9.35319 16.8004 12.0004C16.8004 14.6476 14.6476 16.8004 12.0004 16.8004C9.35319 16.8004 7.20039 14.6476 7.20039 12.0004C7.20039 9.35319 9.35319 7.20039 12.0004 7.20039ZM12.0004 8.80039C11.1517 8.80039 10.3378 9.13753 9.73765 9.73765C9.13753 10.3378 8.80039 11.1517 8.80039 12.0004C8.80039 12.8491 9.13753 13.663 9.73765 14.2631C10.3378 14.8632 11.1517 15.2004 12.0004 15.2004C12.8491 15.2004 13.663 14.8632 14.2631 14.2631C14.8632 13.663 15.2004 12.8491 15.2004 12.0004C15.2004 11.1517 14.8632 10.3378 14.2631 9.73765C13.663 9.13753 12.8491 8.80039 12.0004 8.80039Z" fill="white"/>
</svg>
