<svg width="441" height="100" viewBox="0 0 441 100" fill="none" xmlns="http://www.w3.org/2000/svg">
<path fill-rule="evenodd" clip-rule="evenodd" d="M68.3827 77.9549C59.8795 77.2691 53.0495 72.3866 47.9202 65.8035C45.7532 63.0057 43.888 59.961 42.3793 56.7517C41.3919 54.6945 40.4867 52.5001 39.9107 50.3057L39.7461 49.7297L39.9107 49.1537C40.5141 46.9593 41.4193 44.7649 42.3793 42.7077C43.888 39.5258 45.7532 36.4537 47.9202 33.6558C53.0495 27.0727 59.8795 22.1902 68.3827 21.5045C68.3827 12.0412 76.0631 4.3609 85.5263 4.3609H354.502C363.966 4.3609 371.646 12.0412 371.646 21.5045C380.149 22.1902 386.979 27.0727 392.109 33.6558C394.275 36.4537 396.141 39.4984 397.649 42.7077C398.637 44.7649 399.542 46.9593 400.118 49.1537L400.283 49.7297L400.118 50.3057C399.515 52.5001 398.609 54.6945 397.649 56.7517C396.141 59.9336 394.275 63.0057 392.109 65.8035C386.979 72.3866 380.149 77.2691 371.646 77.9549C371.646 87.4181 363.966 95.0985 354.502 95.0985H85.4989C76.0356 95.0985 68.3553 87.4181 68.3553 77.9549H68.3827Z" fill="url(#paint0_linear_140_182)"/>
<g filter="url(#filter0_d_140_182)">
<path d="M130.529 37.644V55.32C130.529 57.24 130.037 58.56 129.053 59.28C128.069 60 126.233 60.36 123.545 60.36H120.917L120.521 55.032H122.321C122.585 55.032 122.753 54.984 122.825 54.888C122.921 54.792 122.969 54.636 122.969 54.42V37.644H130.529ZM132.839 48.696C132.839 44.688 133.631 41.784 135.215 39.984C136.823 38.184 139.451 37.284 143.099 37.284C146.771 37.284 149.387 38.172 150.947 39.948C152.531 41.724 153.323 44.616 153.323 48.624C153.323 52.608 152.507 55.56 150.875 57.48C149.267 59.4 146.651 60.36 143.027 60.36C139.427 60.36 136.823 59.412 135.215 57.516C133.631 55.62 132.839 52.68 132.839 48.696ZM145.115 44.412C144.803 43.788 144.131 43.476 143.099 43.476C142.067 43.476 141.407 43.776 141.119 44.376C140.831 44.976 140.687 46.26 140.687 48.228V49.812C140.687 51.828 140.843 53.136 141.155 53.736C141.467 54.336 142.151 54.636 143.207 54.636C144.263 54.636 144.923 54.348 145.187 53.772C145.451 53.196 145.583 51.912 145.583 49.92V48.264C145.583 46.296 145.427 45.012 145.115 44.412ZM163.309 60H155.713V37.644H163.309V60ZM185.367 60H178.023L173.487 51.18H173.235V60H166.395V37.644H173.991L178.239 46.752H178.455V37.644H185.367V60ZM204.226 53.016H202.678V60H195.118V37.644H203.83C206.782 37.644 208.93 38.244 210.274 39.444C211.618 40.644 212.29 42.624 212.29 45.384C212.29 48.144 211.642 50.112 210.346 51.288C209.05 52.44 207.01 53.016 204.226 53.016ZM204.586 47.796C204.802 47.412 204.91 46.764 204.91 45.852C204.91 44.94 204.79 44.292 204.55 43.908C204.334 43.524 203.914 43.332 203.29 43.332H202.534V48.372H203.47C204.022 48.372 204.394 48.18 204.586 47.796ZM231.708 44.844C231.708 46.284 231.468 47.436 230.988 48.3C230.532 49.14 229.812 49.884 228.828 50.532L232.176 60H224.22L221.988 52.296H221.412V60H214.032V37.644H223.572C226.356 37.644 228.408 38.232 229.728 39.408C231.048 40.56 231.708 42.372 231.708 44.844ZM222.168 47.904C222.72 47.904 223.104 47.748 223.32 47.436C223.56 47.1 223.68 46.524 223.68 45.708C223.68 44.892 223.56 44.328 223.32 44.016C223.08 43.704 222.708 43.548 222.204 43.548H221.268V47.904H222.168ZM248.573 60H234.317V37.644H249.077L248.573 43.584H242.021V46.284H247.745V51.468H242.021V54.528H249.077L248.573 60ZM249.831 44.808C249.831 42.432 250.551 40.584 251.991 39.264C253.431 37.944 255.423 37.284 257.967 37.284C260.535 37.284 263.175 37.524 265.887 38.004L265.059 44.34C262.059 43.74 260.091 43.44 259.155 43.44C258.219 43.44 257.751 43.728 257.751 44.304C257.751 44.52 257.823 44.676 257.967 44.772C258.111 44.844 258.219 44.904 258.291 44.952C258.363 45 258.495 45.06 258.687 45.132C258.903 45.204 259.071 45.276 259.191 45.348C259.335 45.396 259.767 45.576 260.487 45.888C261.231 46.176 261.783 46.416 262.143 46.608C262.527 46.776 263.043 47.064 263.691 47.472C265.563 48.696 266.499 50.496 266.499 52.872C266.499 55.248 265.791 57.096 264.375 58.416C262.959 59.712 260.919 60.36 258.255 60.36C255.615 60.36 253.023 60.036 250.479 59.388L250.983 53.304C254.199 54.12 256.371 54.528 257.499 54.528C258.243 54.528 258.615 54.264 258.615 53.736C258.615 53.496 258.519 53.304 258.327 53.16C258.159 53.016 257.895 52.86 257.535 52.692C257.199 52.524 256.695 52.308 256.023 52.044C255.351 51.756 254.787 51.516 254.331 51.324C253.875 51.108 253.335 50.784 252.711 50.352C250.791 49.032 249.831 47.184 249.831 44.808ZM287.141 60H279.581L278.861 56.544H274.865L274.109 60H266.873L271.517 37.644H282.497L287.141 60ZM278.321 51.9L276.953 44.412H276.809L275.405 51.9H278.321ZM302.026 60H288.598V37.644H296.302V54.204H302.53L302.026 60ZM317.725 60H303.469V37.644H318.229L317.725 43.584H311.173V46.284H316.897V51.468H311.173V54.528H318.229L317.725 60Z" fill="white"/>
</g>
<path style="mix-blend-mode:screen" fill-rule="evenodd" clip-rule="evenodd" d="M40 49.7297H400.564L400.399 49.1537C399.796 46.9593 398.891 44.7649 397.931 42.7077C396.422 39.5258 394.557 36.4537 392.39 33.6558C387.261 27.0727 380.431 22.1902 371.927 21.5045C371.927 12.0412 364.247 4.3609 354.784 4.3609H85.7802C76.317 4.3609 68.6367 12.0412 68.6367 21.5045C60.1334 22.1902 53.3034 27.0727 48.1741 33.6558C46.0071 36.4537 44.1419 39.4984 42.6333 42.7077C41.6458 44.7649 40.7406 46.9593 40.1646 49.1537L40 49.7297Z" fill="url(#paint1_linear_140_182)"/>
<path fill-rule="evenodd" clip-rule="evenodd" d="M29.6517 33.5173C30.2112 33.0595 30.8724 32.7544 31.6353 32.5509C31.8387 32.5001 32.093 32.3983 32.3473 32.3475C32.5508 31.9915 32.7542 31.5846 32.9576 31.2285C35.7041 26.3968 38.9592 21.7176 42.7229 17.547C42.7229 17.1909 42.7229 16.8349 42.7229 16.4789C42.6212 13.885 42.8246 9.96869 43.9944 7.62909C41.96 8.64631 38.8575 8.34114 36.2636 9.81611C33.4154 11.4437 28.1767 16.072 27.3121 19.2254C26.1931 23.3451 29.194 27.9226 29.8043 29.9062C29.906 30.2622 29.906 32.6527 29.6517 33.5173Z" fill="url(#paint2_linear_140_182)"/>
<path style="mix-blend-mode:screen" fill-rule="evenodd" clip-rule="evenodd" d="M29.6552 15.4106C29.7569 17.2416 30.469 19.4287 32.0965 21.4631C31.4353 19.8356 30.9776 17.9537 31.9439 16.2244C32.0965 18.208 33.1137 19.6321 34.5378 21.514C34.5378 23.2432 34.6396 24.6165 34.1818 26.2949C31.0285 23.5992 28.9432 22.1243 27.8242 18.0046C28.282 17.1908 28.8923 16.3261 29.6552 15.4106Z" fill="url(#paint3_linear_140_182)"/>
<path style="mix-blend-mode:multiply" opacity="0.5" fill-rule="evenodd" clip-rule="evenodd" d="M34.4332 26.0916C34.7892 23.9046 34.535 21.6158 34.7893 19.3779C35.4505 13.2746 40.5874 9.81607 43.9951 7.57819C42.8253 9.91779 42.6218 13.8341 42.7236 16.428C42.7236 16.784 42.7236 17.14 42.7236 17.4961C38.9598 21.6667 35.7048 26.3967 32.9583 31.1777C32.7548 31.5337 32.5514 31.9406 32.348 32.2966C32.0937 32.3474 31.8902 32.4492 31.6359 32.5C30.9239 32.7543 30.2118 33.0595 29.6523 33.4664C31.9919 31.2285 33.8737 29.3467 34.4332 26.0407V26.0916Z" fill="url(#paint4_linear_140_182)"/>
<path fill-rule="evenodd" clip-rule="evenodd" d="M29.7562 26.5492C31.1295 27.8716 32.9605 28.3294 34.6897 28.2785C34.0794 29.2448 33.52 30.2112 32.9096 31.2284C32.7062 31.5844 32.5027 31.9913 32.2993 32.3474C32.045 32.3982 31.8415 32.4999 31.5872 32.5508C30.8752 32.8051 30.1631 33.1103 29.6036 33.5172C29.8579 32.6525 29.8579 30.2621 29.7562 29.906C29.2476 28.2276 27.0606 24.6674 27.0098 21.158C27.2641 23.1924 27.8744 24.82 29.7054 26.5492H29.7562Z" fill="#5795CC"/>
<path style="mix-blend-mode:screen" fill-rule="evenodd" clip-rule="evenodd" d="M42.7238 14.7496C42.5713 13.3763 42.4696 11.5962 41.8084 10.4773C40.7403 8.748 37.8412 9.56176 36.4171 10.223C34.7895 10.935 33.3654 12.0031 31.9922 13.0712C33.518 11.6471 35.1456 10.4773 36.3154 9.76521C38.9602 8.29024 42.0118 8.5954 44.0462 7.57819C43.0798 9.46004 42.7747 12.3591 42.7747 14.7496H42.7238Z" fill="url(#paint5_linear_140_182)"/>
<path fill-rule="evenodd" clip-rule="evenodd" d="M43.9959 7.57819C38.4521 10.9859 35.2987 14.4444 34.434 19.3271C33.1625 16.3263 33.01 14.9022 34.078 11.5453L33.5186 12.766C32.6031 15.309 33.2134 17.3944 34.1289 19.734C34.2306 19.9883 34.2306 20.3951 34.1798 21.2089C34.0781 23.3959 34.0781 24.82 34.0272 25.8881C31.0773 23.8028 29.4497 22.2261 27.9238 18.7676C28.9919 22.1244 30.823 24.0063 33.4677 25.9898C33.8238 26.2441 34.0272 26.7019 33.9255 27.1088C33.9255 27.1596 33.9255 27.2614 33.9255 27.3122C33.6203 28.9906 32.654 30.4656 29.6532 33.5681C32.0436 31.7371 33.5186 30.0587 34.2306 28.5329C34.3832 28.2277 34.6375 28.0243 34.9427 27.9734C35.0444 27.8208 35.1461 27.6682 35.197 27.5665C34.9935 27.5665 34.79 27.6174 34.5866 27.6174C34.8918 26.4476 34.8409 25.1761 34.7901 23.6502C38.2995 22.633 40.0796 20.5986 41.6054 17.2926C42.0632 16.2246 42.2157 15.7668 42.47 14.6479C42.1649 15.6142 41.9106 16.3263 41.4528 17.2418C39.927 20.3443 38.1978 22.3278 34.7901 23.2942C34.7901 21.921 34.79 20.3443 35.1461 18.4116C36.2141 13.0712 40.5882 10.1212 44.0467 7.67991L43.9959 7.57819Z" fill="url(#paint6_linear_140_182)"/>
<path fill-rule="evenodd" clip-rule="evenodd" d="M20.3454 50.6065C18.0058 49.2841 15.8187 47.2497 14.6489 44.7575C12.3602 39.9257 11.1395 35.6025 11.2412 31.3302C12.2076 32.6526 13.2248 33.6698 14.7506 34.7379C13.4791 33.3138 12.1059 31.0759 11.3938 29.3975C11.3938 29.2449 11.3939 29.1432 11.4447 28.9906C12.2585 23.3451 16.2765 14.4444 16.8868 10.1212C19.6333 13.5289 23.397 16.6314 26.8556 19.9374C27.3642 20.446 27.8728 20.9546 28.4322 21.4632C28.2288 22.277 27.9745 23.1925 27.8219 23.9045C27.6185 24.7183 28.2288 24.6674 28.7374 24.2606C29.1951 23.9045 29.5512 23.3959 29.8055 22.8873C31.4839 24.6674 33.1115 26.5493 34.4847 28.5329C33.9252 29.3975 33.4166 30.313 32.908 31.1776C29.6529 36.8232 26.7538 43.13 24.9737 49.4367L24.872 49.7419L24.9737 50.047C25.1771 50.7082 25.3297 51.3186 25.5331 51.9798C23.6004 51.7254 21.7186 51.3186 20.2945 50.5557L20.3454 50.6065Z" fill="url(#paint7_linear_140_182)"/>
<path style="mix-blend-mode:multiply" opacity="0.5" fill-rule="evenodd" clip-rule="evenodd" d="M24.3125 39.5188C19.8876 29.7535 18.6669 20.5477 16.8868 10.1212C16.2765 14.4444 12.2585 23.3451 11.4447 28.9906C11.4447 29.1432 11.4447 29.2449 11.3938 29.3975C12.1567 31.0759 13.4791 33.3138 14.7506 34.7379C13.2248 33.6698 12.2076 32.6526 11.2412 31.3302C11.1395 35.6025 12.3602 39.9257 14.6489 44.7575C15.8187 47.2497 18.0058 49.2841 20.3454 50.6065C21.7695 51.4203 23.6513 51.7763 25.584 52.0306C25.3806 51.3694 25.1772 50.7082 25.0246 50.0979L24.9228 49.7927L25.0246 49.4876C25.5332 47.7583 26.0926 46.029 26.7538 44.2997C25.8892 42.8248 25.1263 41.299 24.3125 39.5697V39.5188Z" fill="url(#paint8_linear_140_182)"/>
<path style="mix-blend-mode:screen" fill-rule="evenodd" clip-rule="evenodd" d="M14.9542 19.4288C16.0222 16.9366 17.3446 14.7496 18.667 14.6479C20.498 14.5461 23.8039 17.2418 26.1435 19.2762C22.8376 16.1737 19.4299 13.2746 16.836 10.1212C16.2257 14.4444 12.2076 23.3451 11.3938 28.9906C11.3938 29.1432 11.3939 29.2449 11.343 29.3975C11.4447 29.6518 11.5973 29.957 11.7499 30.2113C12.3094 26.4984 13.4791 22.8873 14.9033 19.4288H14.9542ZM11.2413 31.3302C11.2413 32.3983 11.2413 33.4155 11.3938 34.4836C11.3938 33.5681 11.4956 32.6526 11.5464 31.7371C11.4447 31.5845 11.343 31.432 11.1904 31.2794L11.2413 31.3302Z" fill="url(#paint9_linear_140_182)"/>
<path style="mix-blend-mode:screen" fill-rule="evenodd" clip-rule="evenodd" d="M21.8723 33.4155C25.1274 29.3974 27.0601 25.9898 28.0773 21.0563C27.6704 20.6494 27.3144 20.2933 26.9075 19.9373C26.2463 19.2761 25.5343 18.6658 24.8731 18.0046C25.4326 23.0398 22.6352 28.9906 21.1094 30.7707C21.3637 31.6353 21.618 32.5 21.9232 33.3646L21.8723 33.4155Z" fill="url(#paint10_linear_140_182)"/>
<path style="mix-blend-mode:screen" fill-rule="evenodd" clip-rule="evenodd" d="M31.4341 24.6165C29.1962 28.8888 25.2291 32.8051 22.3809 34.8395C23.3472 37.3317 24.4662 39.773 25.7377 42.1635C26.8566 41.4514 27.823 40.485 28.7385 39.3661C30.01 36.5179 31.4341 33.7714 32.9599 31.1775L33.0617 30.9741C33.4177 29.8551 33.7737 28.787 33.9771 27.7698C33.1634 26.7017 32.2987 25.6337 31.4341 24.6165Z" fill="url(#paint11_linear_140_182)"/>
<path style="mix-blend-mode:multiply" fill-rule="evenodd" clip-rule="evenodd" d="M26.1418 45.8766C21.1575 47.0972 15.0541 44.5033 11.6973 36.1622C12.2059 38.9087 13.2231 41.706 14.6472 44.7068C15.817 47.199 18.0041 49.2334 20.3437 50.5558C21.7678 51.3696 23.6496 51.7256 25.5823 51.9799C25.3789 51.3187 25.1755 50.6575 25.0229 50.0472L24.9211 49.742L25.0229 49.4369C25.328 48.2671 25.7349 47.0972 26.1418 45.8766ZM34.5338 28.533C33.5166 27.0581 32.3468 25.634 31.1262 24.2607C32.3977 26.3969 33.2114 27.9227 33.72 29.8554C33.9743 29.3977 34.2287 28.9908 34.5338 28.533Z" fill="url(#paint12_linear_140_182)"/>
<path fill-rule="evenodd" clip-rule="evenodd" d="M16.8875 10.0703C18.1081 17.0891 19.278 23.5484 21.3124 30.0077C23.5503 26.0915 24.6184 23.9044 24.9235 19.0726C25.2795 23.8536 23.7029 26.8035 21.6176 30.9232C22.7874 34.4835 24.1606 38.0437 25.9916 41.7057C27.0597 41.1463 28.0769 40.0782 29.0432 38.7558C28.6363 39.6205 28.2803 40.4342 27.9243 41.2989C27.4157 41.8075 26.9071 42.2144 26.3985 42.5195C26.602 42.8755 26.8053 43.2316 26.9579 43.5876C26.8053 43.9436 26.7037 44.2488 26.5511 44.6048C26.1442 43.9436 25.7882 43.2824 25.4322 42.6212C24.7201 41.3497 24.1097 40.1291 23.5503 38.9084C23.3977 38.5524 23.0417 38.2981 22.6348 38.1964C18.4133 37.3826 14.4462 35.399 12.0049 32.2456C15.1583 35.0938 18.6168 36.8231 22.8891 37.4334C21.6176 34.3818 20.6512 31.381 19.8883 28.2785C19.7357 27.719 19.4814 27.2612 19.0745 26.8544C17.0401 24.9216 15.6669 23.4467 14.5479 20.751C16.3789 23.3958 17.1418 24.3622 19.4814 26.3966C18.3625 21.2088 17.7013 15.8176 16.8875 10.0194V10.0703ZM33.0613 30.9741C33.3665 30.1603 33.6208 29.3974 33.7733 28.7362C33.7733 29.1431 33.6716 29.6008 33.5699 30.0586C33.4173 30.3638 33.2139 30.6181 33.0613 30.9232V30.9741ZM26.0425 46.1306C21.9227 46.3341 17.7522 45.4695 14.5479 43.1299C17.9556 45.0117 21.9227 45.8763 26.2459 45.5712C26.195 45.7746 26.0933 45.9781 26.0425 46.1815V46.1306Z" fill="url(#paint13_linear_140_182)"/>
<path fill-rule="evenodd" clip-rule="evenodd" d="M35.8072 72.9345C32.8064 73.138 27.3134 76.2405 24.5161 76.2405C17.2938 76.2913 11.0888 71.6121 6.61301 66.2717C8.34228 67.0347 10.1224 66.9329 11.9534 66.6278C9.66468 66.2209 6.05361 64.6951 4.22262 62.8641C1.57786 58.2357 -0.0497027 52.0816 0.00115823 47.1989C0.0520191 43.2318 0.611427 39.2646 0.255401 35.6535C1.93381 38.3491 3.66311 39.9767 6.00271 41.1465C7.37595 42.5197 8.03714 43.5878 9.2578 45.4697C9.41038 44.1473 9.25784 43.3335 9.05439 42.418C11.5974 43.2317 14.6999 43.9438 18.8197 45.0119C21.1593 45.6222 23.5498 46.08 25.8385 46.792C25.5333 47.7075 25.279 48.623 25.0247 49.4877L24.923 49.7928L25.0247 50.098C26.8557 56.7099 30.0091 63.3727 33.4676 69.2726C34.1797 70.4932 34.9426 71.7647 35.7564 72.9854L35.8072 72.9345Z" fill="url(#paint14_linear_140_182)"/>
<path style="mix-blend-mode:multiply" opacity="0.5" fill-rule="evenodd" clip-rule="evenodd" d="M6.61195 66.3227C11.0877 71.6631 17.2928 76.3423 24.515 76.2914C27.2615 76.2914 32.8053 73.1889 35.8061 72.9855C35.4501 72.4768 35.145 71.9682 34.7889 71.4088C28.9908 65.9667 20.1919 65.5089 11.9015 57.422C5.64564 51.3187 1.42419 43.2318 0.305249 35.7044C0.661276 39.3155 0.10179 43.3336 0.0509292 47.2499C6.83181e-05 52.1325 1.67849 58.2867 4.27239 62.915C6.05252 64.746 9.71453 66.2718 12.0033 66.6787C10.1723 66.9839 8.39213 67.0856 6.66286 66.3227H6.61195Z" fill="url(#paint15_linear_140_182)"/>
<path style="mix-blend-mode:multiply" opacity="0.5" fill-rule="evenodd" clip-rule="evenodd" d="M28.4849 68.8148C22.7885 73.3414 13.9896 71.8156 8.80176 68.7131C13.0232 72.9854 18.4144 76.2914 24.5178 76.2914C27.2642 76.2914 32.8081 73.1889 35.8089 72.9854C34.9951 71.7647 34.2322 70.5441 33.5202 69.2726C32.8081 68.1028 32.1469 66.8821 31.4858 65.6106C30.7228 66.7295 29.7564 67.7976 28.4849 68.8148ZM25.891 46.7412C25.2298 46.5378 24.5686 46.3852 23.9074 46.1817C24.5686 46.436 25.1789 46.792 25.7893 47.1481C25.7893 46.9955 25.891 46.8938 25.9419 46.7412H25.891Z" fill="url(#paint16_linear_140_182)"/>
<path style="mix-blend-mode:screen" fill-rule="evenodd" clip-rule="evenodd" d="M23.2935 53.7088C22.7849 51.1658 20.8013 47.4021 18.2074 44.8082C17.4953 44.6047 16.7833 44.4522 16.1221 44.2996C17.9022 46.2323 18.8177 48.165 19.7332 50.8607C21.4624 55.7433 20.6487 58.5915 19.9875 63.6267C20.9538 64.1354 21.9202 64.5931 22.8357 65.0508C23.8529 60.9311 24.0055 57.1165 23.3443 53.7597L23.2935 53.7088Z" fill="url(#paint17_linear_140_182)"/>
<path style="mix-blend-mode:screen" fill-rule="evenodd" clip-rule="evenodd" d="M6.05143 56.1504C4.32216 53.6582 2.08427 49.8437 1.27049 46.8937C0.914468 45.5205 0.354986 42.1636 1.57565 40.9938C1.98253 40.6378 2.54199 40.4852 3.3049 40.6887C5.3902 41.2482 7.42466 43.3843 8.89963 44.8084C7.93327 43.2826 7.27209 42.3162 6.05143 41.0956C3.76269 39.9258 1.98253 38.3491 0.304125 35.6026C0.660151 39.2137 0.100666 43.2317 0.0498047 47.148C0.0498047 47.2497 0.0498047 47.3515 0.0498047 47.4532C1.01616 50.9626 2.84719 52.7427 6.05143 55.9978V56.1504Z" fill="url(#paint18_linear_140_182)"/>
<path style="mix-blend-mode:screen" fill-rule="evenodd" clip-rule="evenodd" d="M24.0606 65.5596C25.2304 66.0174 26.4002 66.526 27.5191 67.0346C27.7734 65.9156 28.4855 62.4571 28.4855 59.558C27.7734 57.9305 27.1122 56.3029 26.5019 54.6754C26.5019 54.6754 26.4511 54.6245 26.4002 54.5737C25.6373 53.5565 25.2812 52.4375 24.3658 51.4712C25.6881 56.1504 25.383 60.2192 24.0098 65.5596H24.0606Z" fill="url(#paint19_linear_140_182)"/>
<path fill-rule="evenodd" clip-rule="evenodd" d="M0.307617 35.7043C1.52828 42.6214 4.98682 49.8437 11.0393 56.0487C11.9039 50.7083 10.022 46.0291 6.86864 41.9602C10.4798 46.1817 12.6159 51.0135 11.6496 56.659C13.2771 58.2866 15.0573 59.8633 17.0917 61.2874C17.9564 61.9486 18.9227 62.5081 19.8382 63.0675C21.008 54.7772 19.9399 50.1997 16.5831 44.605C19.1261 47.6058 20.4485 51.0135 21.0589 54.1669C21.4658 56.303 20.7028 59.7107 20.4994 63.4236C22.839 64.6951 25.4837 65.814 28.3319 66.9838C28.4845 67.0347 28.688 67.1364 28.8406 67.1872C29.1966 65.3563 29.5018 63.627 29.7052 61.9995C29.8069 62.2538 29.9595 62.508 30.0612 62.7623C29.8578 64.339 29.6034 65.9666 29.5017 67.4924C31.4853 68.4588 33.3672 69.832 34.6896 71.0527C34.8421 71.307 34.9948 71.5613 35.1982 71.8664C33.7741 70.6458 32.5026 69.832 31.1293 69.1199C27.569 69.7811 24.9243 71.5104 21.9743 72.019C18.5667 72.5785 14.9556 72.019 10.8867 69.7303C19.4822 73.138 22.5847 70.951 30.4681 68.8148C29.7052 68.4079 28.8915 68.0519 27.976 67.645C26.6536 67.0347 25.2803 66.4752 23.9579 65.9157C21.9235 65.0511 21.6183 65.102 20.652 65.102C17.4477 65.102 14.5487 65.102 11.9039 64.4916C10.1746 64.1356 6.56346 61.8469 3.35922 59.4055C9.71684 63.5761 13.1754 64.4916 20.5502 64.3899C19.2278 63.7796 17.9054 63.0675 16.6339 62.2029C8.90307 57.0151 1.22309 45.4697 0.35845 35.6535L0.307617 35.7043ZM25.6363 47.5041C25.6363 47.5041 25.5346 47.4023 25.4837 47.3515L25.6363 47.5041Z" fill="url(#paint20_linear_140_182)"/>
<path fill-rule="evenodd" clip-rule="evenodd" d="M34.9434 71.6628C33.7227 72.1205 32.4512 72.6292 31.1288 73.2395C26.3988 75.4265 19.1257 81.1738 13.6836 79.1902C17.3964 82.2927 18.3627 84.9884 21.4144 87.4297C22.7876 88.4978 24.5678 89.7184 26.5514 90.8374C28.0772 91.702 29.6539 92.0072 31.434 91.7529C32.146 91.6511 32.8581 91.4985 33.7227 91.2951C33.3667 91.5494 32.2478 92.0071 31.9426 92.2106C31.7392 92.3123 31.6884 92.6684 31.4849 92.8209C31.3323 92.9227 31.1289 93.0244 30.9254 93.0753C35.096 94.9571 39.5209 96.2286 42.8777 95.6183C46.8957 94.8554 49.7439 93.0244 52.0327 90.3796C51.8801 90.2779 51.7275 90.1762 51.5749 90.0744C44.9122 85.1918 39.4191 78.6307 34.9942 71.6628H34.9434Z" fill="url(#paint21_linear_140_182)"/>
<path style="mix-blend-mode:screen" fill-rule="evenodd" clip-rule="evenodd" d="M20.3972 86.5144C23.042 86.9213 25.3815 86.8704 29.0435 86.5144C25.0255 86.0567 21.4144 85.192 18.1593 84.0222C16.9895 82.5472 15.7689 80.9197 13.6836 79.1904C21.5162 82.5981 29.0435 84.7343 37.4865 85.9041C32.9598 89.5661 30.4676 90.3798 25.229 90.0238C24.4152 89.5152 23.7031 89.0574 22.9911 88.5488C23.754 88.498 24.4661 88.2945 25.1781 88.0911C23.8049 87.9894 22.8385 87.8368 21.6687 87.5825C21.567 87.5316 21.5161 87.4299 21.4144 87.379C21.0584 87.0739 20.7024 86.8196 20.3972 86.5144Z" fill="url(#paint22_linear_140_182)"/>
<path style="mix-blend-mode:screen" opacity="0.85" fill-rule="evenodd" clip-rule="evenodd" d="M39.47 85.9547C31.7392 85.9547 16.837 80.7669 13.6836 79.1902C19.1257 81.1738 26.3988 75.3757 31.1288 73.2395C32.4512 72.6292 33.7228 72.1205 34.9434 71.6628C38.0459 76.5454 41.657 81.2755 45.8785 85.2935C43.7423 85.7004 41.6062 85.9547 39.47 85.9547Z" fill="url(#paint23_linear_140_182)"/>
<path style="mix-blend-mode:multiply" fill-rule="evenodd" clip-rule="evenodd" d="M35.1466 71.968C34.6888 71.968 34.2311 71.968 33.8242 72.0697C34.1802 71.9171 34.5871 71.7645 34.9432 71.6628L35.1466 71.968ZM51.9816 90.3796C49.642 92.9735 46.7938 94.8554 42.8266 95.6183C40.6396 96.0252 37.8931 95.6183 35.0957 94.7028C37.9948 95.008 40.1819 94.9062 43.0809 93.8381C46.0309 92.7192 48.2179 90.7356 49.3368 88.3452C50.0489 88.9555 50.8118 89.515 51.5747 90.0744C51.7273 90.1762 51.8798 90.2779 52.0324 90.3796H51.9816Z" fill="url(#paint24_linear_140_182)"/>
<path fill-rule="evenodd" clip-rule="evenodd" d="M13.6847 79.1904C17.957 81.8351 30.4179 85.4971 36.6738 86.26C32.5032 89.4134 31.4351 89.8203 25.8913 90.1255C30.9265 90.4815 33.0118 89.6677 36.6229 87.1755C38.3013 86.0057 37.335 86.4126 39.4203 86.4126C41.3022 86.4126 43.4383 86.1583 45.5236 85.7514C41.7599 90.5832 38.3522 92.3633 32.9609 93.584C38.1996 93.0754 41.709 90.5323 45.4218 86.9212C45.8796 86.4634 46.1339 86.1074 46.4391 85.8531C46.1339 85.548 45.8288 85.2428 45.5236 84.9885C45.015 85.0394 44.7098 84.9885 44.2521 84.429C41.6582 81.0213 38.8099 78.8343 34.5885 77.5628C39.4202 79.3938 41.3021 81.3774 43.896 85.2428C40.9461 85.6497 37.8944 85.4971 34.9445 85.1411C31.2317 81.3265 28.9429 78.58 23.3482 77.868C29.1972 79.5464 30.1636 80.8688 34.0291 84.9885C26.6034 83.9204 18.8725 81.2248 13.6338 79.1904H13.6847ZM48.1684 87.4298C46.3882 89.3625 43.896 91.7021 41.3021 93.0754C44.3029 91.6513 46.4899 89.922 48.5752 87.7859C48.4226 87.6841 48.321 87.5316 48.1684 87.4298Z" fill="url(#paint25_linear_140_182)"/>
<path fill-rule="evenodd" clip-rule="evenodd" d="M410.347 33.5173C409.787 33.0596 409.126 32.7544 408.363 32.551C408.16 32.5001 407.905 32.3984 407.651 32.3475C407.448 31.9915 407.244 31.5846 407.041 31.2286C404.294 26.3968 401.039 21.7176 397.275 17.547C397.275 17.191 397.275 16.8349 397.275 16.4789C397.377 13.885 397.174 9.96872 396.004 7.62912C398.038 8.64634 401.141 8.34117 403.735 9.81614C406.583 11.4437 411.822 16.072 412.686 19.2254C413.805 23.3451 410.804 27.9226 410.194 29.9062C410.092 30.2622 410.092 32.6527 410.347 33.5173Z" fill="url(#paint26_linear_140_182)"/>
<path style="mix-blend-mode:screen" fill-rule="evenodd" clip-rule="evenodd" d="M410.398 15.4107C410.297 17.2417 409.584 19.4287 407.957 21.4631C408.618 19.8356 409.076 17.9537 408.109 16.2244C407.957 18.208 406.94 19.6321 405.515 21.514C405.515 23.2433 405.414 24.6165 405.872 26.2949C409.025 23.5993 411.11 22.1243 412.229 18.0046C411.771 17.1908 411.161 16.3262 410.398 15.4107Z" fill="url(#paint27_linear_140_182)"/>
<path style="mix-blend-mode:multiply" opacity="0.5" fill-rule="evenodd" clip-rule="evenodd" d="M405.566 26.0916C405.21 23.9046 405.464 21.6158 405.21 19.378C404.549 13.2747 399.412 9.8161 396.004 7.57822C397.174 9.91782 397.377 13.8341 397.275 16.428C397.275 16.784 397.275 17.1401 397.275 17.4961C401.039 21.6667 404.294 26.3968 407.041 31.1777C407.244 31.5337 407.448 31.9406 407.651 32.2966C407.905 32.3475 408.109 32.4492 408.363 32.5001C409.075 32.7544 409.787 33.0595 410.347 33.4664C408.007 31.2285 406.125 29.3467 405.566 26.0407V26.0916Z" fill="url(#paint28_linear_140_182)"/>
<path fill-rule="evenodd" clip-rule="evenodd" d="M410.246 26.5493C408.873 27.8716 407.042 28.3294 405.312 28.2785C405.923 29.2449 406.482 30.2112 407.093 31.2284C407.296 31.5845 407.5 31.9914 407.703 32.3474C407.957 32.3983 408.161 32.5 408.415 32.5508C409.127 32.8051 409.839 33.1103 410.399 33.5172C410.144 32.6526 410.144 30.2621 410.246 29.9061C410.755 28.2277 412.942 24.6674 412.992 21.158C412.738 23.1924 412.128 24.82 410.297 26.5493H410.246Z" fill="#5795CC"/>
<path style="mix-blend-mode:screen" fill-rule="evenodd" clip-rule="evenodd" d="M397.326 14.7496C397.479 13.3764 397.581 11.5962 398.242 10.4773C399.31 8.74804 402.209 9.56179 403.633 10.223C405.261 10.935 406.685 12.0031 408.058 13.0712C406.532 11.6471 404.905 10.4773 403.735 9.76524C401.09 8.29027 398.038 8.59543 396.004 7.57822C396.97 9.46007 397.275 12.3592 397.275 14.7496H397.326Z" fill="url(#paint29_linear_140_182)"/>
<path fill-rule="evenodd" clip-rule="evenodd" d="M396.005 7.57822C401.549 10.9859 404.702 14.4444 405.567 19.3271C406.838 16.3263 406.991 14.9022 405.923 11.5454L406.482 12.766C407.398 15.3091 406.787 17.3944 405.872 19.734C405.77 19.9883 405.77 20.3952 405.821 21.2089C405.923 23.396 405.923 24.8201 405.974 25.8882C408.924 23.8029 410.551 22.2262 412.077 18.7676C411.009 22.1244 409.178 24.0063 406.533 25.9899C406.177 26.2442 405.974 26.7019 406.075 27.1088C406.075 27.1597 406.075 27.2614 406.075 27.3123C406.381 28.9907 407.347 30.4656 410.348 33.5681C407.957 31.7371 406.482 30.0587 405.77 28.5329C405.618 28.2278 405.363 28.0243 405.058 27.9734C404.956 27.8209 404.855 27.6683 404.804 27.5666C405.007 27.5666 405.211 27.6174 405.414 27.6174C405.109 26.4476 405.16 25.1761 405.211 23.6503C401.701 22.6331 399.921 20.5986 398.395 17.2927C397.938 16.2246 397.785 15.7668 397.531 14.6479C397.836 15.6143 398.09 16.3263 398.548 17.2418C400.125 20.3443 401.803 22.3279 405.211 23.2942C405.211 21.921 405.211 20.3443 404.855 18.4116C403.787 13.0712 399.413 10.1213 395.954 7.67994L396.005 7.57822Z" fill="url(#paint30_linear_140_182)"/>
<path fill-rule="evenodd" clip-rule="evenodd" d="M419.655 50.6065C421.995 49.2842 424.182 47.2498 425.352 44.7576C427.64 39.9258 428.861 35.6026 428.759 31.3303C427.793 32.6527 426.776 33.6699 425.25 34.738C426.521 33.3139 427.894 31.076 428.607 29.3976C428.607 29.245 428.607 29.1433 428.556 28.9907C427.742 23.3451 423.724 14.4445 423.114 10.1213C420.367 13.529 416.603 16.6315 413.145 19.9374C412.636 20.446 412.128 20.9547 411.568 21.4633C411.772 22.277 412.026 23.1925 412.179 23.9046C412.382 24.7184 411.772 24.6675 411.263 24.2606C410.805 23.9046 410.449 23.396 410.195 22.8874C408.516 24.6675 406.889 26.5494 405.516 28.5329C406.075 29.3976 406.584 30.3131 407.092 31.1777C410.348 36.8233 413.297 43.13 415.027 49.4368L415.128 49.7419L415.027 50.0471C414.823 50.7083 414.671 51.3186 414.467 51.9798C416.4 51.7255 418.282 51.3186 419.706 50.5557L419.655 50.6065Z" fill="url(#paint31_linear_140_182)"/>
<path style="mix-blend-mode:multiply" opacity="0.5" fill-rule="evenodd" clip-rule="evenodd" d="M415.685 39.5189C420.11 29.7536 421.331 20.5478 423.111 10.1213C423.721 14.4445 427.74 23.3451 428.553 28.9907C428.553 29.1433 428.553 29.245 428.604 29.3976C427.841 31.076 426.519 33.3139 425.247 34.738C426.773 33.6699 427.79 32.6527 428.757 31.3303C428.858 35.6026 427.638 39.9258 425.349 44.7576C424.179 47.2498 421.992 49.2842 419.653 50.6065C418.229 51.4203 416.347 51.7764 414.414 52.0307C414.617 51.3695 414.821 50.7083 414.973 50.0979L415.075 49.7928L414.973 49.4876C414.465 47.7584 413.905 46.0291 413.244 44.2998C414.109 42.8248 414.872 41.299 415.685 39.5697V39.5189Z" fill="url(#paint32_linear_140_182)"/>
<path style="mix-blend-mode:screen" fill-rule="evenodd" clip-rule="evenodd" d="M425.045 19.4288C423.977 16.9366 422.654 14.7496 421.332 14.6479C419.501 14.5462 416.195 17.2418 413.855 19.2763C417.161 16.1737 420.569 13.2747 423.163 10.1213C423.773 14.4445 427.791 23.3451 428.605 28.9907C428.605 29.1433 428.605 29.245 428.656 29.3976C428.554 29.6519 428.402 29.957 428.249 30.2113C427.69 26.4985 426.52 22.8874 425.096 19.4288H425.045ZM428.758 31.3303C428.758 32.3984 428.758 33.4156 428.605 34.4837C428.605 33.5682 428.503 32.6527 428.453 31.7372C428.554 31.5846 428.656 31.432 428.809 31.2794L428.758 31.3303Z" fill="url(#paint33_linear_140_182)"/>
<path style="mix-blend-mode:screen" fill-rule="evenodd" clip-rule="evenodd" d="M418.128 33.4155C414.873 29.3975 412.94 25.9898 411.923 21.0563C412.33 20.6494 412.686 20.2934 413.093 19.9373C413.754 19.2761 414.466 18.6658 415.127 18.0046C414.568 23.0399 417.365 28.9906 418.891 30.7707C418.636 31.6354 418.382 32.5 418.077 33.3646L418.128 33.4155Z" fill="url(#paint34_linear_140_182)"/>
<path style="mix-blend-mode:screen" fill-rule="evenodd" clip-rule="evenodd" d="M408.566 24.6165C410.803 28.8888 414.771 32.8051 417.619 34.8395C416.652 37.3317 415.533 39.773 414.262 42.1635C413.143 41.4514 412.177 40.4851 411.261 39.3661C409.99 36.5179 408.566 33.7715 407.04 31.1775L406.938 30.9741C406.582 29.8552 406.226 28.7871 406.022 27.7699C406.836 26.7018 407.701 25.6337 408.566 24.6165Z" fill="url(#paint35_linear_140_182)"/>
<path style="mix-blend-mode:multiply" fill-rule="evenodd" clip-rule="evenodd" d="M413.858 45.8766C418.842 47.0973 424.945 44.5034 428.302 36.1622C427.794 38.9087 426.777 41.706 425.352 44.7068C424.183 47.199 421.996 49.2335 419.656 50.5558C418.232 51.3696 416.35 51.7256 414.417 51.9799C414.621 51.3187 414.824 50.6575 414.977 50.0472L415.078 49.742L414.977 49.4369C414.672 48.2671 414.265 47.0973 413.858 45.8766ZM405.466 28.5331C406.483 27.0581 407.653 25.634 408.873 24.2607C407.602 26.3969 406.788 27.9227 406.28 29.8554C406.025 29.3977 405.771 28.9908 405.466 28.5331Z" fill="url(#paint36_linear_140_182)"/>
<path fill-rule="evenodd" clip-rule="evenodd" d="M423.111 10.0703C421.891 17.0891 420.721 23.5484 418.687 30.0078C416.449 26.0915 415.38 23.9045 415.075 19.0727C414.719 23.8536 416.296 26.8035 418.381 30.9233C417.212 34.4835 415.838 38.0438 414.007 41.7058C412.939 41.1463 411.922 40.0782 410.956 38.7559C411.362 39.6205 411.719 40.4343 412.075 41.2989C412.583 41.8075 413.092 42.2144 413.6 42.5196C413.397 42.8756 413.193 43.2316 412.99 43.5876C413.143 43.9436 413.244 44.2488 413.397 44.6048C413.804 43.9436 414.16 43.2824 414.516 42.6213C415.228 41.3497 415.838 40.1291 416.398 38.9084C416.55 38.5524 416.906 38.2981 417.313 38.1964C421.535 37.3826 425.502 35.399 427.943 32.2456C424.79 35.0939 421.331 36.8231 417.059 37.4335C418.331 34.3818 419.297 31.381 420.06 28.2785C420.212 27.719 420.467 27.2613 420.874 26.8544C422.908 24.9217 424.281 23.4467 425.4 20.7511C423.569 23.3958 422.806 24.3622 420.467 26.3966C421.586 21.2088 422.247 15.8176 423.061 10.0194L423.111 10.0703ZM406.938 30.9741C406.633 30.1603 406.378 29.3974 406.226 28.7363C406.226 29.1431 406.327 29.6009 406.429 30.0586C406.582 30.3638 406.785 30.6181 406.938 30.9233V30.9741ZM413.956 46.1307C418.076 46.3341 422.247 45.4695 425.451 43.1299C422.043 45.0117 418.076 45.8764 413.753 45.5712C413.804 45.7746 413.906 45.9781 413.956 46.1815V46.1307Z" fill="url(#paint37_linear_140_182)"/>
<path fill-rule="evenodd" clip-rule="evenodd" d="M404.194 72.9345C407.195 73.138 412.688 76.2405 415.485 76.2405C422.708 76.2914 428.913 71.6122 433.388 66.2718C431.659 67.0347 429.879 66.933 428.048 66.6278C430.337 66.2209 433.948 64.6951 435.779 62.8641C438.424 58.2358 440.051 52.0816 440 47.1989C439.95 43.2318 439.39 39.2647 439.746 35.6535C438.068 38.3492 436.338 39.9767 433.999 41.1465C432.626 42.5197 431.964 43.5878 430.744 45.4697C430.591 44.1473 430.744 43.3335 430.947 42.418C428.404 43.2318 425.302 43.9438 421.182 45.0119C418.842 45.6223 416.452 46.08 414.163 46.792C414.468 47.7075 414.723 48.6231 414.977 49.4877L415.078 49.7929L414.977 50.098C413.146 56.7099 409.992 63.3727 406.534 69.2726C405.822 70.4933 405.059 71.7648 404.245 72.9854L404.194 72.9345Z" fill="url(#paint38_linear_140_182)"/>
<path style="mix-blend-mode:multiply" opacity="0.5" fill-rule="evenodd" clip-rule="evenodd" d="M433.388 66.3227C428.913 71.6631 422.708 76.3423 415.485 76.2915C412.739 76.2915 407.195 73.1889 404.194 72.9855C404.55 72.4769 404.855 71.9683 405.211 71.4088C411.01 65.9667 419.809 65.5089 428.099 57.4221C434.355 51.3188 438.576 43.2319 439.695 35.7044C439.339 39.3156 439.899 43.3336 439.95 47.2499C440 52.1325 438.322 58.2867 435.728 62.915C433.948 64.746 430.286 66.2719 427.997 66.6787C429.828 66.9839 431.608 67.0856 433.338 66.3227H433.388Z" fill="url(#paint39_linear_140_182)"/>
<path style="mix-blend-mode:multiply" opacity="0.5" fill-rule="evenodd" clip-rule="evenodd" d="M411.518 68.8148C417.215 73.3415 426.014 71.8157 431.201 68.7131C426.98 72.9855 421.589 76.2914 415.485 76.2914C412.739 76.2914 407.195 73.1889 404.194 72.9854C405.008 71.7648 405.771 70.5441 406.483 69.2726C407.195 68.1028 407.856 66.8821 408.518 65.6106C409.28 66.7296 410.247 67.7976 411.518 68.8148ZM414.112 46.7412C414.773 46.5378 415.435 46.3852 416.096 46.1818C415.435 46.4361 414.824 46.7921 414.214 47.1481C414.214 46.9955 414.112 46.8938 414.061 46.7412H414.112Z" fill="url(#paint40_linear_140_182)"/>
<path style="mix-blend-mode:screen" fill-rule="evenodd" clip-rule="evenodd" d="M416.704 53.7089C417.213 51.1658 419.197 47.4021 421.79 44.8082C422.503 44.6048 423.215 44.4522 423.876 44.2996C422.096 46.2323 421.18 48.1651 420.265 50.8607C418.535 55.7433 419.349 58.5915 420.01 63.6268C419.044 64.1354 418.078 64.5931 417.162 65.0509C416.145 60.9311 415.992 57.1166 416.653 53.7598L416.704 53.7089Z" fill="url(#paint41_linear_140_182)"/>
<path style="mix-blend-mode:screen" fill-rule="evenodd" clip-rule="evenodd" d="M433.949 56.1504C435.678 53.6582 437.916 49.8437 438.73 46.8937C439.086 45.5205 439.645 42.1636 438.424 40.9938C438.018 40.6378 437.509 40.4852 436.695 40.6887C434.61 41.2482 432.576 43.3843 431.101 44.8084C432.067 43.2826 432.728 42.3162 433.949 41.0956C436.238 39.9258 438.018 38.3491 439.696 35.6026C439.34 39.2137 439.899 43.2317 439.95 47.148C439.95 47.2497 439.95 47.3515 439.95 47.4532C438.984 50.9626 437.153 52.7427 433.949 55.9978V56.1504Z" fill="url(#paint42_linear_140_182)"/>
<path style="mix-blend-mode:screen" fill-rule="evenodd" clip-rule="evenodd" d="M415.94 65.5596C414.771 66.0174 413.601 66.526 412.482 67.0346C412.228 65.9157 411.516 62.4571 411.516 59.5581C412.228 57.9305 412.889 56.303 413.499 54.6754C413.499 54.6754 413.55 54.6246 413.601 54.5737C414.364 53.5565 414.72 52.4375 415.635 51.4712C414.313 56.1504 414.618 60.2192 415.991 65.5596H415.94Z" fill="url(#paint43_linear_140_182)"/>
<path fill-rule="evenodd" clip-rule="evenodd" d="M439.691 35.7044C438.471 42.6214 435.012 49.8437 428.96 56.0487C428.095 50.7083 429.977 46.0291 433.13 41.9603C429.519 46.1817 427.383 51.0135 428.349 56.6591C426.722 58.2866 424.942 59.8633 422.907 61.2874C422.043 61.9486 421.076 62.5081 420.161 63.0676C418.991 54.7772 420.059 50.1997 423.416 44.605C420.873 47.6058 419.55 51.0135 418.94 54.1669C418.533 56.3031 419.296 59.7107 419.499 63.4236C417.16 64.6951 414.515 65.814 411.667 66.9838C411.514 67.0347 411.311 67.1364 411.158 67.1873C410.802 65.3563 410.497 63.627 410.294 61.9995C410.192 62.2538 410.04 62.5081 409.938 62.7624C410.141 64.3391 410.395 65.9666 410.497 67.4924C408.514 68.4588 406.632 69.8321 405.309 71.0527C405.157 71.307 405.004 71.5613 404.801 71.8665C406.225 70.6458 407.496 69.832 408.87 69.12C412.43 69.7812 415.075 71.5104 418.025 72.019C421.432 72.5785 425.043 72.0191 429.112 69.7303C420.517 73.138 417.414 70.951 409.531 68.8148C410.294 68.4079 411.108 68.0519 412.023 67.645C413.345 67.0347 414.719 66.4752 416.041 65.9158C418.075 65.0511 418.381 65.102 419.347 65.102C422.551 65.102 425.45 65.102 428.095 64.4917C429.824 64.1356 433.436 61.8469 436.64 59.4056C430.282 63.5762 426.824 64.4916 419.449 64.3899C420.771 63.7796 422.093 63.0676 423.365 62.2029C431.096 57.0151 438.776 45.4697 439.641 35.6535L439.691 35.7044ZM414.363 47.5041C414.363 47.5041 414.464 47.4024 414.515 47.3515L414.363 47.5041Z" fill="url(#paint44_linear_140_182)"/>
<path fill-rule="evenodd" clip-rule="evenodd" d="M405.057 71.6628C406.278 72.1206 407.549 72.6292 408.872 73.2396C413.602 75.4266 420.875 81.1738 426.317 79.1903C422.604 82.2928 421.638 84.9884 418.586 87.4298C417.213 88.4978 415.433 89.7185 413.449 90.8374C411.923 91.7021 410.347 92.0072 408.566 91.7529C407.854 91.6512 407.142 91.4986 406.278 91.2952C406.634 91.5495 407.753 92.0072 408.058 92.2106C408.312 92.3124 408.312 92.6684 408.516 92.821C408.668 92.9227 408.872 93.0245 409.075 93.0753C404.904 94.9572 400.479 96.2287 397.123 95.6184C393.105 94.8554 390.257 93.0244 387.968 90.3797C388.12 90.2779 388.273 90.1762 388.426 90.0745C395.088 85.1919 400.581 78.6308 405.006 71.6628H405.057Z" fill="url(#paint45_linear_140_182)"/>
<path style="mix-blend-mode:screen" fill-rule="evenodd" clip-rule="evenodd" d="M419.605 86.5144C416.96 86.9213 414.621 86.8704 410.959 86.5144C414.977 86.0567 418.588 85.192 421.843 84.0222C423.013 82.5472 424.233 80.9197 426.319 79.1904C418.486 82.5981 410.959 84.7343 402.516 85.9041C407.042 89.5661 409.534 90.3798 414.773 90.0238C415.587 89.5152 416.299 89.0574 417.011 88.5488C416.248 88.498 415.536 88.2945 414.824 88.0911C416.197 87.9894 417.164 87.8368 418.333 87.5825C418.435 87.5316 418.486 87.4299 418.588 87.379C418.944 87.0739 419.3 86.8196 419.605 86.5144Z" fill="url(#paint46_linear_140_182)"/>
<path style="mix-blend-mode:screen" opacity="0.85" fill-rule="evenodd" clip-rule="evenodd" d="M400.58 85.9548C408.311 85.9548 423.213 80.767 426.367 79.1903C420.925 81.1738 413.652 75.3757 408.922 73.2396C407.599 72.6292 406.328 72.1206 405.107 71.6628C402.004 76.5455 398.393 81.2756 394.172 85.2936C396.308 85.7005 398.444 85.9548 400.58 85.9548Z" fill="url(#paint47_linear_140_182)"/>
<path style="mix-blend-mode:multiply" fill-rule="evenodd" clip-rule="evenodd" d="M404.854 71.968C405.311 71.968 405.769 71.968 406.176 72.0697C405.82 71.9172 405.413 71.7646 405.057 71.6628L404.854 71.968ZM388.019 90.3797C390.307 92.9736 393.206 94.8554 397.174 95.6184C399.361 96.0252 402.107 95.6184 404.904 94.7029C402.005 95.008 399.818 94.9063 396.919 93.8382C393.969 92.7193 391.782 90.7357 390.663 88.3452C389.951 88.9556 389.188 89.515 388.426 90.0745C388.273 90.1762 388.12 90.2779 387.968 90.3797H388.019Z" fill="url(#paint48_linear_140_182)"/>
<path fill-rule="evenodd" clip-rule="evenodd" d="M426.315 79.1904C422.043 81.8352 409.582 85.4972 403.326 86.2601C407.497 89.4135 408.565 89.8203 414.109 90.1255C409.073 90.4815 406.988 89.6678 403.377 87.1756C401.699 86.0058 402.665 86.4127 400.58 86.4127C398.698 86.4127 396.613 86.1584 394.476 85.7515C398.24 90.5833 401.648 92.3634 407.039 93.5841C401.8 93.0754 398.291 90.5324 394.578 86.9213C394.12 86.4635 393.866 86.1075 393.561 85.8532C393.866 85.548 394.171 85.2429 394.476 84.9886C394.985 85.0394 395.29 84.9885 395.748 84.4291C398.342 81.0214 401.19 78.8344 405.412 77.5629C400.58 79.3939 398.698 81.3774 396.104 85.2429C399.054 85.6498 402.106 85.4972 405.055 85.1411C408.768 81.3266 411.057 78.5801 416.652 77.868C410.803 79.5464 409.837 80.8688 405.971 84.9886C413.397 83.9205 421.128 81.2248 426.366 79.1904H426.315ZM391.832 87.4299C393.612 89.3626 396.104 91.7022 398.698 93.0755C395.697 91.6514 393.51 89.9221 391.425 87.7859C391.577 87.6842 391.679 87.5316 391.832 87.4299Z" fill="url(#paint49_linear_140_182)"/>
<path fill-rule="evenodd" clip-rule="evenodd" d="M365.183 99.4839H74.8686C48.8278 99.4839 29.755 72.4259 23.4482 49.742C29.755 27.1089 48.8278 0 74.8686 0H365.183C391.223 0 410.296 27.058 416.603 49.742C410.296 72.375 391.223 99.4839 365.183 99.4839ZM371.489 75.7827C379.373 75.1216 385.68 70.5441 390.41 64.4916C392.495 61.8469 394.275 58.8969 395.699 55.8453C396.615 53.9634 397.479 51.8272 398.039 49.742C397.479 47.7075 396.615 45.5714 395.699 43.6387C394.275 40.587 392.495 37.6371 390.41 34.9923C385.68 28.889 379.373 24.3115 371.489 23.7012L369.455 23.5486V21.5142C369.455 13.2747 362.792 6.56106 354.502 6.56106H85.4985C77.2591 6.56106 70.5454 13.2238 70.5454 21.5142V23.5486L68.511 23.7012C60.6276 24.3624 54.3208 28.9398 49.5907 34.9923C47.5054 37.6371 45.7253 40.587 44.3012 43.6387C43.3857 45.5205 42.5211 47.6567 41.9616 49.742C42.5211 51.7764 43.3857 53.9126 44.3012 55.8453C45.7253 58.8969 47.5054 61.8469 49.5907 64.4916C54.3208 70.5949 60.6276 75.1724 68.511 75.7827L70.5454 75.9353V77.9698C70.5454 86.2092 77.2082 92.9228 85.4985 92.9228H354.502C362.741 92.9228 369.455 86.2601 369.455 77.9698V75.9353L371.489 75.7827Z" fill="url(#paint50_linear_140_182)"/>
<path fill-rule="evenodd" clip-rule="evenodd" d="M28.0257 49.742C34.129 29.2959 51.4726 4.37404 74.8686 4.37404H365.183C388.629 4.37404 405.973 29.2959 412.026 49.742H416.603C410.296 27.1089 391.223 0 365.183 0H74.8686C48.8278 0 29.755 27.058 23.4482 49.742H28.0257Z" fill="url(#paint51_linear_140_182)"/>
<path fill-rule="evenodd" clip-rule="evenodd" d="M28.0257 49.7421C34.129 70.1882 51.4726 95.11 74.8686 95.11H365.183C388.629 95.11 405.973 70.1882 412.026 49.7421H416.603C410.296 72.3752 391.223 99.4841 365.183 99.4841H74.8686C48.8278 99.4841 29.755 72.4261 23.4482 49.7421H28.0257Z" fill="url(#paint52_linear_140_182)"/>
<path fill-rule="evenodd" clip-rule="evenodd" d="M39.7215 49.7419C41.349 43.0282 50.3006 22.989 68.3562 21.5141C68.3562 12.054 76.0361 4.37396 85.4963 4.37396H74.8664C51.4195 4.37396 34.0759 29.2958 28.0234 49.7419H39.7215Z" fill="url(#paint53_linear_140_182)"/>
<path fill-rule="evenodd" clip-rule="evenodd" d="M39.7215 49.7421C41.349 56.4558 50.3006 76.495 68.3562 77.9699C68.3562 87.4301 76.0361 95.11 85.4963 95.11H74.8664C51.4195 95.11 34.0759 70.1882 28.0234 49.7421H39.7215Z" fill="url(#paint54_linear_140_182)"/>
<path fill-rule="evenodd" clip-rule="evenodd" d="M29.0916 49.7419C35.144 29.2958 52.5384 4.37396 75.9344 4.37396H74.8664C51.4195 4.37396 34.0759 29.2958 28.0234 49.7419H29.0916Z" fill="url(#paint55_linear_140_182)"/>
<path fill-rule="evenodd" clip-rule="evenodd" d="M29.0916 49.7421C35.144 70.1882 52.5384 95.11 75.9344 95.11H74.8664C51.4195 95.11 34.0759 70.1882 28.0234 49.7421H29.0916Z" fill="url(#paint56_linear_140_182)"/>
<path fill-rule="evenodd" clip-rule="evenodd" d="M400.276 49.7419C398.648 43.0282 389.697 22.989 371.641 21.5141C371.641 12.054 363.961 4.37396 354.501 4.37396H365.131C388.578 4.37396 405.921 29.2958 411.974 49.7419H400.276Z" fill="url(#paint57_linear_140_182)"/>
<path fill-rule="evenodd" clip-rule="evenodd" d="M400.276 49.7421C398.648 56.4558 389.697 76.495 371.641 77.9699C371.641 87.4301 363.961 95.11 354.501 95.11H365.131C388.578 95.11 405.921 70.1882 411.974 49.7421H400.276Z" fill="url(#paint58_linear_140_182)"/>
<path fill-rule="evenodd" clip-rule="evenodd" d="M410.955 49.7419C404.852 29.2958 387.508 4.37396 364.112 4.37396H365.18C388.627 4.37396 405.971 29.2958 412.023 49.7419H410.955Z" fill="url(#paint59_linear_140_182)"/>
<path fill-rule="evenodd" clip-rule="evenodd" d="M410.955 49.7421C404.852 70.1882 387.508 95.11 364.112 95.11H365.18C388.627 95.11 405.971 70.1882 412.023 49.7421H410.955Z" fill="url(#paint60_linear_140_182)"/>
<path fill-rule="evenodd" clip-rule="evenodd" d="M371.644 77.9697C389.699 76.4947 398.651 56.4555 400.278 49.7419C398.651 43.0282 389.699 22.989 371.644 21.5141C371.644 12.054 363.964 4.37396 354.504 4.37396H85.5004C76.0403 4.37396 68.3603 12.054 68.3603 21.5141C50.3047 22.989 41.3531 43.0282 39.7256 49.7419C41.3531 56.4555 50.3047 76.4947 68.3603 77.9697C68.3603 87.4298 76.0403 95.1098 85.5004 95.1098H354.504C363.964 95.1098 371.644 87.4298 371.644 77.9697ZM398.041 49.7419C397.481 47.7074 396.616 45.5713 395.701 43.6386C394.277 40.5869 392.497 37.637 390.412 34.9922C385.681 28.8889 379.375 24.3114 371.491 23.7011L369.457 23.5485V21.5141C369.457 13.2746 362.794 6.56098 354.504 6.56098H85.5004C77.2609 6.56098 70.5473 13.2238 70.5473 21.5141V23.5485L68.5129 23.7011C60.6294 24.3623 54.3227 28.9398 49.5926 34.9922C47.5073 37.637 45.7271 40.5869 44.303 43.6386C43.3875 45.5204 42.5229 47.6566 41.9635 49.7419C42.5229 51.7763 43.3875 53.9125 44.303 55.8452C45.7271 58.8969 47.5073 61.8468 49.5926 64.4915C54.3227 70.5949 60.6294 75.1723 68.5129 75.7827L70.5473 75.9352V77.9697C70.5473 86.2092 77.2101 92.9228 85.5004 92.9228H354.504C362.743 92.9228 369.457 86.26 369.457 77.9697V75.9352L371.491 75.7827C379.375 75.1215 385.681 70.544 390.412 64.4915C392.497 61.8468 394.277 58.8969 395.701 55.8452C396.616 53.9634 397.481 51.8272 398.041 49.7419Z" fill="#94D2FD"/>
<path fill-rule="evenodd" clip-rule="evenodd" d="M42.0123 49.7419C42.5718 47.7074 43.4364 45.5713 44.3519 43.6386C45.776 40.5869 47.5561 37.637 49.6414 34.9922C54.3715 28.8889 60.6783 24.3114 68.5617 23.7011L70.5961 23.5485L68.4091 21.5141C50.3535 22.989 41.402 43.0282 39.7744 49.7419H42.0631H42.0123Z" fill="url(#paint61_linear_140_182)"/>
<path fill-rule="evenodd" clip-rule="evenodd" d="M44.3539 55.8455C43.4384 53.9636 42.5738 51.8274 42.0143 49.7421H39.7256C41.3531 56.4558 50.3047 76.495 68.3603 77.9699L70.5473 75.9355L68.5129 75.7829C60.6294 75.1217 54.3227 70.5442 49.5926 64.4918C47.5073 61.847 45.7271 58.8971 44.303 55.8455H44.3539Z" fill="url(#paint62_linear_140_182)"/>
<path fill-rule="evenodd" clip-rule="evenodd" d="M398.041 49.7419C397.482 47.7074 396.617 45.5713 395.701 43.6386C394.277 40.5869 392.497 37.637 390.412 34.9922C385.682 28.8889 379.375 24.3114 371.492 23.7011L369.457 23.5485L371.644 21.5141C389.7 22.989 398.651 43.0282 400.279 49.7419H397.99H398.041Z" fill="url(#paint63_linear_140_182)"/>
<path fill-rule="evenodd" clip-rule="evenodd" d="M395.7 55.8455C396.616 53.9636 397.48 51.8274 398.04 49.7421H400.329C398.701 56.4558 389.749 76.495 371.694 77.9699L369.507 75.9355L371.541 75.7829C379.425 75.1217 385.731 70.5442 390.462 64.4918C392.547 61.847 394.327 58.8971 395.751 55.8455H395.7Z" fill="url(#paint64_linear_140_182)"/>
<path fill-rule="evenodd" clip-rule="evenodd" d="M70.5464 21.565C70.5464 13.3255 77.2091 6.61189 85.4995 6.61189H354.503C362.742 6.61189 369.456 13.2747 369.456 21.565V23.5994L371.643 21.565C371.643 12.1049 363.963 4.42487 354.503 4.42487H85.4995C76.0393 4.42487 68.3594 12.1049 68.3594 21.565L70.5464 23.5994V21.565Z" fill="url(#paint65_linear_140_182)"/>
<path fill-rule="evenodd" clip-rule="evenodd" d="M85.4995 92.9228C77.26 92.9228 70.5464 86.2601 70.5464 77.9697V75.9353L68.3594 77.9697C68.3594 87.4299 76.0393 95.1098 85.4995 95.1098H354.503C363.963 95.1098 371.643 87.4299 371.643 77.9697L369.456 75.9353V77.9697C369.456 86.2092 362.793 92.9228 354.503 92.9228H85.4995Z" fill="url(#paint66_linear_140_182)"/>
<path style="mix-blend-mode:screen" fill-rule="evenodd" clip-rule="evenodd" d="M220.023 2.84821C271.596 2.84821 318.49 3.45853 353.33 4.37403H86.7168C121.557 3.40767 168.45 2.84821 220.023 2.84821Z" fill="url(#paint67_linear_140_182)"/>
<path fill-rule="evenodd" clip-rule="evenodd" d="M220.027 93.6348C266.157 93.6348 308.118 94.1434 339.295 95.008H100.758C131.936 94.1434 173.896 93.6348 220.027 93.6348Z" fill="#BBF1FF"/>
<path opacity="0.35" fill-rule="evenodd" clip-rule="evenodd" d="M65.9685 19.3779C57.7799 20.5986 53.2533 22.9382 48.6758 28.4312C51.1171 21.5141 56.6101 17.903 63.2729 16.8857C64.5444 12.3591 67.0366 9.91779 71.4106 8.49368C68.3081 11.1893 66.884 13.6306 65.9176 19.3779H65.9685Z" fill="#6380CC"/>
<path opacity="0.35" fill-rule="evenodd" clip-rule="evenodd" d="M374.031 19.3779C382.22 20.5986 386.746 22.9382 391.273 28.4312C388.832 21.5141 383.339 17.903 376.676 16.8857C375.404 12.3591 372.912 9.91779 368.538 8.49368C371.641 11.1893 373.065 13.6306 374.031 19.3779Z" fill="#6380CC"/>
<path opacity="0.75" fill-rule="evenodd" clip-rule="evenodd" d="M65.9685 80.1566C57.7799 78.936 53.2533 76.5964 48.6758 71.1034C51.1171 78.0205 56.6101 81.6316 63.2729 82.6488C64.5444 87.1754 67.0366 89.6168 71.4106 91.0409C68.3081 88.3452 66.884 85.9039 65.9176 80.1566H65.9685Z" fill="#466092"/>
<path opacity="0.75" fill-rule="evenodd" clip-rule="evenodd" d="M374.031 80.1566C382.22 78.936 386.746 76.5964 391.273 71.1034C388.832 78.0205 383.339 81.6316 376.676 82.6488C375.404 87.1754 372.912 89.6168 368.538 91.0409C371.641 88.3452 373.065 85.9039 374.031 80.1566Z" fill="#466092"/>
<defs>
<filter id="filter0_d_140_182" x="116.521" y="37.284" width="205.709" height="31.076" filterUnits="userSpaceOnUse" color-interpolation-filters="sRGB">
<feFlood flood-opacity="0" result="BackgroundImageFix"/>
<feColorMatrix in="SourceAlpha" type="matrix" values="0 0 0 0 0 0 0 0 0 0 0 0 0 0 0 0 0 0 127 0" result="hardAlpha"/>
<feOffset dy="4"/>
<feGaussianBlur stdDeviation="2"/>
<feComposite in2="hardAlpha" operator="out"/>
<feColorMatrix type="matrix" values="0 0 0 0 0 0 0 0 0 0 0 0 0 0 0 0 0 0 0.25 0"/>
<feBlend mode="normal" in2="BackgroundImageFix" result="effect1_dropShadow_140_182"/>
<feBlend mode="normal" in="SourceGraphic" in2="effect1_dropShadow_140_182" result="shape"/>
</filter>
<linearGradient id="paint0_linear_140_182" x1="220.014" y1="95.071" x2="220.014" y2="4.38833" gradientUnits="userSpaceOnUse">
<stop stop-color="#E1831C"/>
<stop offset="0.2" stop-color="#E77D21"/>
<stop offset="1" stop-color="#F9FF55"/>
</linearGradient>
<linearGradient id="paint1_linear_140_182" x1="220.296" y1="49.7297" x2="220.296" y2="4.38833" gradientUnits="userSpaceOnUse">
<stop stop-color="#FBED44" stop-opacity="0"/>
<stop offset="1" stop-color="#F9FD5E"/>
</linearGradient>
<linearGradient id="paint2_linear_140_182" x1="27.0578" y1="20.5478" x2="43.9944" y2="20.5478" gradientUnits="userSpaceOnUse">
<stop offset="0.06" stop-color="#6078AE"/>
<stop offset="0.41" stop-color="#90A8D5"/>
<stop offset="0.52" stop-color="#A0BDE7"/>
<stop offset="0.64" stop-color="#AED1F8"/>
<stop offset="0.72" stop-color="#B4D9FF"/>
<stop offset="1" stop-color="#BBEDFF"/>
</linearGradient>
<linearGradient id="paint3_linear_140_182" x1="27.8242" y1="20.8019" x2="34.487" y2="20.8019" gradientUnits="userSpaceOnUse">
<stop stop-color="#3E4E82"/>
<stop offset="1" stop-color="#98C0D3"/>
</linearGradient>
<linearGradient id="paint4_linear_140_182" x1="29.6523" y1="20.5477" x2="43.9951" y2="20.5477" gradientUnits="userSpaceOnUse">
<stop stop-color="#516BA1"/>
<stop offset="1" stop-color="#BBF1FF"/>
</linearGradient>
<linearGradient id="paint5_linear_140_182" x1="31.8905" y1="11.1893" x2="43.9953" y2="11.1893" gradientUnits="userSpaceOnUse">
<stop stop-color="#3E4E82"/>
<stop offset="1" stop-color="#98C0D3"/>
</linearGradient>
<linearGradient id="paint6_linear_140_182" x1="29.9074" y1="28.8889" x2="40.0287" y2="6.10323" gradientUnits="userSpaceOnUse">
<stop stop-color="#53688B"/>
<stop offset="1" stop-color="#BBDDFF"/>
</linearGradient>
<linearGradient id="paint7_linear_140_182" x1="22.8884" y1="52.0306" x2="22.8884" y2="10.0704" gradientUnits="userSpaceOnUse">
<stop offset="0.06" stop-color="#6078AE"/>
<stop offset="0.41" stop-color="#90A8D5"/>
<stop offset="0.52" stop-color="#A0BDE7"/>
<stop offset="0.64" stop-color="#AED1F8"/>
<stop offset="0.72" stop-color="#B4D9FF"/>
<stop offset="1" stop-color="#BBEDFF"/>
</linearGradient>
<linearGradient id="paint8_linear_140_182" x1="11.2412" y1="31.0759" x2="26.7538" y2="31.0759" gradientUnits="userSpaceOnUse">
<stop stop-color="#BBF1FF"/>
<stop offset="1" stop-color="#516BA1"/>
</linearGradient>
<linearGradient id="paint9_linear_140_182" x1="18.7178" y1="34.4836" x2="18.7178" y2="10.0704" gradientUnits="userSpaceOnUse">
<stop stop-color="#3E4E82"/>
<stop offset="1" stop-color="#98C0D3"/>
</linearGradient>
<linearGradient id="paint10_linear_140_182" x1="21.0585" y1="25.6846" x2="28.0773" y2="25.6846" gradientUnits="userSpaceOnUse">
<stop stop-color="#3E4E82"/>
<stop offset="1" stop-color="#98C0D3"/>
</linearGradient>
<linearGradient id="paint11_linear_140_182" x1="22.3809" y1="33.4154" x2="34.028" y2="33.4154" gradientUnits="userSpaceOnUse">
<stop stop-color="#3E4E82"/>
<stop offset="1" stop-color="#98C0D3"/>
</linearGradient>
<linearGradient id="paint12_linear_140_182" x1="23.0901" y1="52.0308" x2="23.0901" y2="24.3116" gradientUnits="userSpaceOnUse">
<stop stop-color="#516BA1"/>
<stop offset="1" stop-color="#BBF1FF"/>
</linearGradient>
<linearGradient id="paint13_linear_140_182" x1="26.5511" y1="43.9436" x2="16.7349" y2="11.1384" gradientUnits="userSpaceOnUse">
<stop stop-color="#53688B"/>
<stop offset="1" stop-color="#BBDDFF"/>
</linearGradient>
<linearGradient id="paint14_linear_140_182" x1="0.0520191" y1="55.9979" x2="35.8072" y2="55.9979" gradientUnits="userSpaceOnUse">
<stop stop-color="#BBEDFF"/>
<stop offset="0.28" stop-color="#B4D9FF"/>
<stop offset="0.36" stop-color="#AED1F8"/>
<stop offset="0.48" stop-color="#A0BDE7"/>
<stop offset="0.59" stop-color="#90A8D5"/>
<stop offset="0.94" stop-color="#6078AE"/>
</linearGradient>
<linearGradient id="paint15_linear_140_182" x1="0.0509292" y1="55.9979" x2="35.8061" y2="55.9979" gradientUnits="userSpaceOnUse">
<stop stop-color="#BBF1FF"/>
<stop offset="1" stop-color="#516BA1"/>
</linearGradient>
<linearGradient id="paint16_linear_140_182" x1="8.80176" y1="61.2366" x2="35.8089" y2="61.2366" gradientUnits="userSpaceOnUse">
<stop stop-color="#BBF1FF"/>
<stop offset="1" stop-color="#516BA1"/>
</linearGradient>
<linearGradient id="paint17_linear_140_182" x1="19.9366" y1="65" x2="19.9366" y2="44.2996" gradientUnits="userSpaceOnUse">
<stop stop-color="#3E4E82"/>
<stop offset="1" stop-color="#98C0D3"/>
</linearGradient>
<linearGradient id="paint18_linear_140_182" x1="4.47472" y1="56.1504" x2="4.47472" y2="35.7043" gradientUnits="userSpaceOnUse">
<stop stop-color="#3E4E82"/>
<stop offset="1" stop-color="#98C0D3"/>
</linearGradient>
<linearGradient id="paint19_linear_140_182" x1="26.2985" y1="67.0346" x2="26.2985" y2="51.522" gradientUnits="userSpaceOnUse">
<stop stop-color="#3E4E82"/>
<stop offset="1" stop-color="#98C0D3"/>
</linearGradient>
<linearGradient id="paint20_linear_140_182" x1="-1.67596" y1="38.2983" x2="33.1637" y2="73.9009" gradientUnits="userSpaceOnUse">
<stop stop-color="#BBDDFF"/>
<stop offset="1" stop-color="#53688B"/>
</linearGradient>
<linearGradient id="paint21_linear_140_182" x1="13.6836" y1="83.7168" x2="51.9818" y2="83.7168" gradientUnits="userSpaceOnUse">
<stop stop-color="#90A8D5"/>
<stop offset="0.94" stop-color="#576A95"/>
</linearGradient>
<linearGradient id="paint22_linear_140_182" x1="13.6836" y1="84.6325" x2="37.4865" y2="84.6325" gradientUnits="userSpaceOnUse">
<stop stop-color="#98C0D3"/>
<stop offset="1" stop-color="#3E4E82"/>
</linearGradient>
<linearGradient id="paint23_linear_140_182" x1="13.6836" y1="78.7833" x2="45.8785" y2="78.7833" gradientUnits="userSpaceOnUse">
<stop stop-color="#BBE8FF"/>
<stop offset="0.09" stop-color="#ADD6F1"/>
<stop offset="0.4" stop-color="#7D9CC1"/>
<stop offset="0.67" stop-color="#5B719F"/>
<stop offset="0.88" stop-color="#455789"/>
<stop offset="1" stop-color="#3E4E82"/>
</linearGradient>
<linearGradient id="paint24_linear_140_182" x1="33.8242" y1="83.7168" x2="51.9816" y2="83.7168" gradientUnits="userSpaceOnUse">
<stop stop-color="#BBF1FF"/>
<stop offset="1" stop-color="#516BA1"/>
</linearGradient>
<linearGradient id="paint25_linear_140_182" x1="13.6846" y1="85.548" x2="48.5752" y2="85.548" gradientUnits="userSpaceOnUse">
<stop stop-color="#BBDDFF"/>
<stop offset="1" stop-color="#53688B"/>
</linearGradient>
<linearGradient id="paint26_linear_140_182" x1="412.941" y1="-290.823" x2="396.004" y2="-290.823" gradientUnits="userSpaceOnUse">
<stop offset="0.06" stop-color="#6078AE"/>
<stop offset="0.41" stop-color="#90A8D5"/>
<stop offset="0.52" stop-color="#A0BDE7"/>
<stop offset="0.64" stop-color="#AED1F8"/>
<stop offset="0.72" stop-color="#B4D9FF"/>
<stop offset="1" stop-color="#BBEDFF"/>
</linearGradient>
<linearGradient id="paint27_linear_140_182" x1="412.229" y1="-290.823" x2="405.515" y2="-290.823" gradientUnits="userSpaceOnUse">
<stop stop-color="#3E4E82"/>
<stop offset="1" stop-color="#98C0D3"/>
</linearGradient>
<linearGradient id="paint28_linear_140_182" x1="410.347" y1="-290.823" x2="396.004" y2="-290.823" gradientUnits="userSpaceOnUse">
<stop stop-color="#516BA1"/>
<stop offset="1" stop-color="#BBF1FF"/>
</linearGradient>
<linearGradient id="paint29_linear_140_182" x1="408.109" y1="11.1893" x2="396.004" y2="11.1893" gradientUnits="userSpaceOnUse">
<stop stop-color="#3E4E82"/>
<stop offset="1" stop-color="#98C0D3"/>
</linearGradient>
<linearGradient id="paint30_linear_140_182" x1="410.093" y1="28.8889" x2="399.972" y2="6.10329" gradientUnits="userSpaceOnUse">
<stop stop-color="#53688B"/>
<stop offset="1" stop-color="#BBDDFF"/>
</linearGradient>
<linearGradient id="paint31_linear_140_182" x1="417.112" y1="52.0307" x2="417.112" y2="10.0704" gradientUnits="userSpaceOnUse">
<stop offset="0.06" stop-color="#6078AE"/>
<stop offset="0.41" stop-color="#90A8D5"/>
<stop offset="0.52" stop-color="#A0BDE7"/>
<stop offset="0.64" stop-color="#AED1F8"/>
<stop offset="0.72" stop-color="#B4D9FF"/>
<stop offset="1" stop-color="#BBEDFF"/>
</linearGradient>
<linearGradient id="paint32_linear_140_182" x1="428.757" y1="-290.823" x2="413.244" y2="-290.823" gradientUnits="userSpaceOnUse">
<stop stop-color="#BBF1FF"/>
<stop offset="1" stop-color="#516BA1"/>
</linearGradient>
<linearGradient id="paint33_linear_140_182" x1="421.281" y1="34.4837" x2="421.281" y2="10.0704" gradientUnits="userSpaceOnUse">
<stop stop-color="#3E4E82"/>
<stop offset="1" stop-color="#98C0D3"/>
</linearGradient>
<linearGradient id="paint34_linear_140_182" x1="418.942" y1="25.6846" x2="411.974" y2="25.6846" gradientUnits="userSpaceOnUse">
<stop stop-color="#3E4E82"/>
<stop offset="1" stop-color="#98C0D3"/>
</linearGradient>
<linearGradient id="paint35_linear_140_182" x1="417.619" y1="33.4154" x2="406.022" y2="33.4154" gradientUnits="userSpaceOnUse">
<stop stop-color="#3E4E82"/>
<stop offset="1" stop-color="#98C0D3"/>
</linearGradient>
<linearGradient id="paint36_linear_140_182" x1="416.909" y1="52.0308" x2="416.909" y2="24.3116" gradientUnits="userSpaceOnUse">
<stop stop-color="#516BA1"/>
<stop offset="1" stop-color="#BBF1FF"/>
</linearGradient>
<linearGradient id="paint37_linear_140_182" x1="413.448" y1="43.9437" x2="423.264" y2="11.1384" gradientUnits="userSpaceOnUse">
<stop stop-color="#53688B"/>
<stop offset="1" stop-color="#BBDDFF"/>
</linearGradient>
<linearGradient id="paint38_linear_140_182" x1="440" y1="-290.822" x2="404.194" y2="-290.822" gradientUnits="userSpaceOnUse">
<stop stop-color="#BBEDFF"/>
<stop offset="0.28" stop-color="#B4D9FF"/>
<stop offset="0.36" stop-color="#AED1F8"/>
<stop offset="0.48" stop-color="#A0BDE7"/>
<stop offset="0.59" stop-color="#90A8D5"/>
<stop offset="0.94" stop-color="#6078AE"/>
</linearGradient>
<linearGradient id="paint39_linear_140_182" x1="440" y1="55.9979" x2="404.194" y2="55.9979" gradientUnits="userSpaceOnUse">
<stop stop-color="#BBF1FF"/>
<stop offset="1" stop-color="#516BA1"/>
</linearGradient>
<linearGradient id="paint40_linear_140_182" x1="431.201" y1="61.2366" x2="404.194" y2="61.2366" gradientUnits="userSpaceOnUse">
<stop stop-color="#BBF1FF"/>
<stop offset="1" stop-color="#516BA1"/>
</linearGradient>
<linearGradient id="paint41_linear_140_182" x1="420.112" y1="65" x2="420.112" y2="44.2996" gradientUnits="userSpaceOnUse">
<stop stop-color="#3E4E82"/>
<stop offset="1" stop-color="#98C0D3"/>
</linearGradient>
<linearGradient id="paint42_linear_140_182" x1="435.525" y1="56.1504" x2="435.525" y2="35.7043" gradientUnits="userSpaceOnUse">
<stop stop-color="#3E4E82"/>
<stop offset="1" stop-color="#98C0D3"/>
</linearGradient>
<linearGradient id="paint43_linear_140_182" x1="413.754" y1="67.0346" x2="413.754" y2="51.4712" gradientUnits="userSpaceOnUse">
<stop stop-color="#3E4E82"/>
<stop offset="1" stop-color="#98C0D3"/>
</linearGradient>
<linearGradient id="paint44_linear_140_182" x1="441.675" y1="38.2983" x2="406.835" y2="73.9008" gradientUnits="userSpaceOnUse">
<stop stop-color="#BBDDFF"/>
<stop offset="1" stop-color="#53688B"/>
</linearGradient>
<linearGradient id="paint45_linear_140_182" x1="426.317" y1="-290.823" x2="388.019" y2="-290.823" gradientUnits="userSpaceOnUse">
<stop stop-color="#90A8D5"/>
<stop offset="0.94" stop-color="#576A95"/>
</linearGradient>
<linearGradient id="paint46_linear_140_182" x1="426.319" y1="-290.822" x2="402.516" y2="-290.822" gradientUnits="userSpaceOnUse">
<stop stop-color="#98C0D3"/>
<stop offset="1" stop-color="#3E4E82"/>
</linearGradient>
<linearGradient id="paint47_linear_140_182" x1="426.316" y1="-290.823" x2="394.121" y2="-290.823" gradientUnits="userSpaceOnUse">
<stop stop-color="#BBE8FF"/>
<stop offset="0.09" stop-color="#ADD6F1"/>
<stop offset="0.4" stop-color="#7D9CC1"/>
<stop offset="0.67" stop-color="#5B719F"/>
<stop offset="0.88" stop-color="#455789"/>
<stop offset="1" stop-color="#3E4E82"/>
</linearGradient>
<linearGradient id="paint48_linear_140_182" x1="406.176" y1="83.7169" x2="388.019" y2="83.7169" gradientUnits="userSpaceOnUse">
<stop stop-color="#BBF1FF"/>
<stop offset="1" stop-color="#516BA1"/>
</linearGradient>
<linearGradient id="paint49_linear_140_182" x1="426.315" y1="85.548" x2="391.425" y2="85.548" gradientUnits="userSpaceOnUse">
<stop stop-color="#BBDDFF"/>
<stop offset="1" stop-color="#53688B"/>
</linearGradient>
<linearGradient id="paint50_linear_140_182" x1="220.026" y1="99.4839" x2="220.026" y2="0.0508627" gradientUnits="userSpaceOnUse">
<stop stop-color="#3E5582"/>
<stop offset="1" stop-color="#8EA1CD"/>
</linearGradient>
<linearGradient id="paint51_linear_140_182" x1="220.026" y1="49.742" x2="220.026" y2="0.0508604" gradientUnits="userSpaceOnUse">
<stop stop-color="#A9C9F3"/>
<stop offset="1" stop-color="#BBEFFF"/>
</linearGradient>
<linearGradient id="paint52_linear_140_182" x1="220.026" y1="99.4841" x2="220.026" y2="49.7421" gradientUnits="userSpaceOnUse">
<stop stop-color="#435C83"/>
<stop offset="1" stop-color="#92B4FA"/>
</linearGradient>
<linearGradient id="paint53_linear_140_182" x1="56.7599" y1="49.7419" x2="56.7599" y2="4.42482" gradientUnits="userSpaceOnUse">
<stop stop-color="#91A8CD"/>
<stop offset="1" stop-color="#BBE6FF"/>
</linearGradient>
<linearGradient id="paint54_linear_140_182" x1="28.0234" y1="72.4261" x2="85.4963" y2="72.4261" gradientUnits="userSpaceOnUse">
<stop stop-color="#92B4FA"/>
<stop offset="1" stop-color="#435C83"/>
</linearGradient>
<linearGradient id="paint55_linear_140_182" x1="51.9789" y1="49.7419" x2="51.9789" y2="4.42482" gradientUnits="userSpaceOnUse">
<stop stop-color="#92B4FA"/>
<stop offset="1" stop-color="#435C83"/>
</linearGradient>
<linearGradient id="paint56_linear_140_182" x1="51.9789" y1="95.11" x2="51.9789" y2="49.7421" gradientUnits="userSpaceOnUse">
<stop stop-color="#AFC9F8"/>
<stop offset="1" stop-color="#BBECFF"/>
</linearGradient>
<linearGradient id="paint57_linear_140_182" x1="383.237" y1="49.7419" x2="383.237" y2="4.42482" gradientUnits="userSpaceOnUse">
<stop stop-color="#91A8CD"/>
<stop offset="1" stop-color="#BBE6FF"/>
</linearGradient>
<linearGradient id="paint58_linear_140_182" x1="383.237" y1="95.11" x2="383.237" y2="49.7421" gradientUnits="userSpaceOnUse">
<stop stop-color="#435C83"/>
<stop offset="1" stop-color="#92B4FA"/>
</linearGradient>
<linearGradient id="paint59_linear_140_182" x1="388.068" y1="49.7419" x2="388.068" y2="4.42482" gradientUnits="userSpaceOnUse">
<stop stop-color="#92B4FA"/>
<stop offset="1" stop-color="#435C83"/>
</linearGradient>
<linearGradient id="paint60_linear_140_182" x1="388.068" y1="95.11" x2="388.068" y2="49.7421" gradientUnits="userSpaceOnUse">
<stop stop-color="#AFC9F8"/>
<stop offset="1" stop-color="#BBECFF"/>
</linearGradient>
<linearGradient id="paint61_linear_140_182" x1="55.1344" y1="49.7419" x2="55.1344" y2="21.5649" gradientUnits="userSpaceOnUse">
<stop stop-color="#7687C1"/>
<stop offset="1" stop-color="#475C84"/>
</linearGradient>
<linearGradient id="paint62_linear_140_182" x1="55.1364" y1="77.9699" x2="55.1364" y2="49.7421" gradientUnits="userSpaceOnUse">
<stop stop-color="#BBE6FF"/>
<stop offset="1" stop-color="#91A8CD"/>
</linearGradient>
<linearGradient id="paint63_linear_140_182" x1="384.868" y1="-290.823" x2="384.868" y2="-290.823" gradientUnits="userSpaceOnUse">
<stop stop-color="#7687C1"/>
<stop offset="1" stop-color="#475C84"/>
</linearGradient>
<linearGradient id="paint64_linear_140_182" x1="384.867" y1="-290.823" x2="384.867" y2="-290.823" gradientUnits="userSpaceOnUse">
<stop stop-color="#BBE6FF"/>
<stop offset="1" stop-color="#91A8CD"/>
</linearGradient>
<linearGradient id="paint65_linear_140_182" x1="220.027" y1="23.5994" x2="220.027" y2="4.42487" gradientUnits="userSpaceOnUse">
<stop stop-color="#BBD2FF"/>
<stop offset="1" stop-color="#435C83"/>
</linearGradient>
<linearGradient id="paint66_linear_140_182" x1="220.027" y1="95.1098" x2="220.027" y2="75.9353" gradientUnits="userSpaceOnUse">
<stop stop-color="#BBECFF"/>
<stop offset="1" stop-color="#AFC9F8"/>
</linearGradient>
<linearGradient id="paint67_linear_140_182" x1="220.023" y1="4.42489" x2="220.023" y2="2.84821" gradientUnits="userSpaceOnUse">
<stop stop-color="#A9E4FF"/>
<stop offset="1" stop-color="#4A65A6"/>
</linearGradient>
</defs>
</svg>
