<svg width="24" height="24" viewBox="0 0 24 24" fill="none" xmlns="http://www.w3.org/2000/svg">
<g clip-path="url(#clip0_140_1115)">
<path d="M23.9511 2.52657C23.9319 2.438 23.8894 2.35614 23.8281 2.28933C23.7669 2.22253 23.689 2.17318 23.6024 2.14632C23.2873 2.08417 22.9612 2.10748 22.6581 2.21382C22.6581 2.21382 1.6304 9.77157 0.429648 10.6086C0.170148 10.7886 0.0838979 10.8928 0.0411479 11.0166C-0.166602 11.6121 0.479898 11.8746 0.479898 11.8746L5.8994 13.6408C5.99094 13.6567 6.08491 13.651 6.1739 13.6243C7.4069 12.8458 18.5781 5.79132 19.2239 5.55432C19.3251 5.52357 19.4001 5.55432 19.3836 5.62932C19.1196 6.53382 9.4724 15.1071 9.41915 15.1596C9.39326 15.1808 9.37292 15.208 9.35985 15.2388C9.34679 15.2697 9.3414 15.3032 9.34415 15.3366L8.84015 20.6248C8.84015 20.6248 8.62865 22.2748 10.2756 20.6248C11.4434 19.4556 12.5639 18.4881 13.1256 18.0178C14.9894 19.3041 16.9949 20.7268 17.8596 21.4678C18.0047 21.6088 18.1767 21.719 18.3654 21.7919C18.5541 21.8649 18.7555 21.899 18.9576 21.8923C19.7826 21.8608 20.0076 20.9586 20.0076 20.9586C20.0076 20.9586 23.8386 5.54232 23.9676 3.47607C23.9796 3.27357 23.9969 3.14382 23.9984 3.00507C24.0052 2.84415 23.9893 2.68306 23.9511 2.52657Z" fill="white"/>
</g>
<defs>
<clipPath id="clip0_140_1115">
<rect width="24" height="24" fill="white"/>
</clipPath>
</defs>
</svg>
