<svg width="24" height="24" viewBox="0 0 24 24" fill="none" xmlns="http://www.w3.org/2000/svg">
<g clip-path="url(#clip0_140_1120)">
<path d="M23.9998 4.575C23.0998 4.95 22.1998 5.25 21.1498 5.325C22.1998 4.725 22.9498 3.75 23.3248 2.625C22.3498 3.225 21.2998 3.6 20.1748 3.825C19.2748 2.85 17.9998 2.25 16.6498 2.25C13.9498 2.25 11.6998 4.425 11.6998 7.2C11.6998 7.575 11.7748 7.95 11.8498 8.325C7.7248 8.1 4.1248 6.15 1.6498 3.15C1.1998 3.9 0.974805 4.725 0.974805 5.625C0.974805 7.35 1.8748 8.85 3.1498 9.75C2.3248 9.75 1.5748 9.525 0.899805 9.15V9.225C0.899805 11.625 2.6248 13.575 4.8748 14.025C4.4248 14.1 4.0498 14.175 3.5998 14.175C3.2998 14.175 2.9998 14.175 2.6998 14.1C3.2998 16.05 5.1748 17.475 7.27481 17.55C5.6248 18.9 3.4498 19.65 1.1248 19.65C0.749805 19.65 0.299805 19.65 -0.0751953 19.575C2.1748 20.925 4.79981 21.75 7.57481 21.75C16.6498 21.75 21.5998 14.25 21.5998 7.725C21.5998 7.5 21.5998 7.275 21.5998 7.125C22.4998 6.375 23.3248 5.55 23.9998 4.575Z" fill="white"/>
</g>
<defs>
<clipPath id="clip0_140_1120">
<rect width="24" height="24" fill="white"/>
</clipPath>
</defs>
</svg>
