<svg width="14" height="14" viewBox="0 0 14 14" fill="none" xmlns="http://www.w3.org/2000/svg">
<path d="M6.75 0C3.02243 0 0 3.02243 0 6.75C0 10.4776 3.02243 13.5 6.75 13.5C10.4776 13.5 13.5 10.4776 13.5 6.75C13.5 3.02243 10.4776 0 6.75 0ZM9.40932 8.82472L8.9784 9.41233C8.96903 9.42513 8.95722 9.43594 8.94366 9.44416C8.93009 9.45238 8.91503 9.45783 8.89935 9.46021C8.88367 9.46259 8.86767 9.46185 8.85228 9.45803C8.83689 9.45421 8.8224 9.44738 8.80965 9.43795L6.31758 7.62087C6.30205 7.60972 6.28943 7.59501 6.28078 7.57796C6.27213 7.56092 6.2677 7.54205 6.26786 7.52294V3.375C6.26786 3.30871 6.3221 3.25446 6.38839 3.25446H7.11311C7.17941 3.25446 7.23365 3.30871 7.23365 3.375V7.10407L9.3822 8.65748C9.43644 8.69514 9.44849 8.77048 9.40932 8.82472Z" fill="white"/>
</svg>
