<svg width="91" height="67" viewBox="0 0 91 67" fill="none" xmlns="http://www.w3.org/2000/svg">
<g filter="url(#filter0_d_22_529)">
<path d="M73.2663 15.2353C77.5489 17.7239 77.6068 21.7171 73.3241 24.2057L53.2999 35.8961C49.0173 38.3268 42.0725 38.3268 37.7898 35.8961L17.6499 24.2057C13.3672 21.7171 13.3094 17.7239 17.592 15.2353L37.6162 3.60275C41.8989 1.11419 48.8437 1.11419 53.1263 3.60275L73.2663 15.2353Z" fill="#F5FBFF"/>
<path d="M73.324 24.7319L53.2998 36.4223C49.0171 38.853 42.0723 38.853 37.7897 36.4223L17.6497 24.7319C15.5084 23.4587 14.4088 21.8382 14.4088 20.2178V22.5327C14.4088 24.1532 15.5084 25.8315 17.6497 27.0468L37.7897 38.7373C42.0723 41.2258 49.0171 41.2258 53.2998 38.7373L73.324 27.0468C75.4653 25.8315 76.507 24.211 76.507 22.5906V20.2756C76.507 21.8961 75.4653 23.5166 73.324 24.7319Z" fill="#594FDB"/>
</g>
<defs>
<filter id="filter0_d_22_529" x="0.559503" y="0.396072" width="89.7971" height="66.5658" filterUnits="userSpaceOnUse" color-interpolation-filters="sRGB">
<feFlood flood-opacity="0" result="BackgroundImageFix"/>
<feColorMatrix in="SourceAlpha" type="matrix" values="0 0 0 0 0 0 0 0 0 0 0 0 0 0 0 0 0 0 127 0" result="hardAlpha"/>
<feOffset dy="12.5091"/>
<feGaussianBlur stdDeviation="6.92466"/>
<feComposite in2="hardAlpha" operator="out"/>
<feColorMatrix type="matrix" values="0 0 0 0 0.198677 0 0 0 0 0.108177 0 0 0 0 0.8375 0 0 0 0.25 0"/>
<feBlend mode="normal" in2="BackgroundImageFix" result="effect1_dropShadow_22_529"/>
<feBlend mode="normal" in="SourceGraphic" in2="effect1_dropShadow_22_529" result="shape"/>
</filter>
</defs>
</svg>
