<svg width="201" height="149" viewBox="0 0 201 149" fill="none" xmlns="http://www.w3.org/2000/svg">
<g filter="url(#filter0_d_16_2606)">
<path d="M162.745 33.2158C172.331 38.7862 172.461 47.7246 162.875 53.295L118.053 79.4626C108.467 84.9034 92.9217 84.9034 83.3356 79.4626L38.2547 53.295C28.6686 47.7246 28.539 38.7862 38.1252 33.2158L82.947 7.17775C92.5331 1.60742 108.078 1.60742 117.664 7.17775L162.745 33.2158Z" fill="#F5FBFF"/>
<path d="M162.874 54.473L118.053 80.6406C108.467 86.0814 92.9214 86.0814 83.3353 80.6406L38.2544 54.473C33.4613 51.623 31 47.9958 31 44.3687V49.5504C31 53.1776 33.4613 56.9343 38.2544 59.6547L83.3353 85.8223C92.9214 91.3927 108.467 91.3927 118.053 85.8223L162.874 59.6547C167.668 56.9343 169.999 53.3071 169.999 49.6799V44.4982C169.999 48.1254 167.668 51.7526 162.874 54.473Z" fill="#594FDB"/>
</g>
<defs>
<filter id="filter0_d_16_2606" x="0" y="0" width="201" height="149" filterUnits="userSpaceOnUse" color-interpolation-filters="sRGB">
<feFlood flood-opacity="0" result="BackgroundImageFix"/>
<feColorMatrix in="SourceAlpha" type="matrix" values="0 0 0 0 0 0 0 0 0 0 0 0 0 0 0 0 0 0 127 0" result="hardAlpha"/>
<feOffset dy="28"/>
<feGaussianBlur stdDeviation="15.5"/>
<feComposite in2="hardAlpha" operator="out"/>
<feColorMatrix type="matrix" values="0 0 0 0 0.198677 0 0 0 0 0.108177 0 0 0 0 0.8375 0 0 0 0.25 0"/>
<feBlend mode="normal" in2="BackgroundImageFix" result="effect1_dropShadow_16_2606"/>
<feBlend mode="normal" in="SourceGraphic" in2="effect1_dropShadow_16_2606" result="shape"/>
</filter>
</defs>
</svg>
