<svg width="60" height="61" viewBox="0 0 60 61" fill="none" xmlns="http://www.w3.org/2000/svg">
<path d="M41.56 35.3951L48.3525 42.1851L29.97 60.5676L11.59 42.1876L18.3825 35.3951L29.9725 47.0451L41.56 35.3951ZM53.1525 23.8051L60 30.5951L53.2125 37.3851L46.42 30.5951L53.1525 23.8051ZM29.9725 23.8051L36.7625 30.5351L29.97 37.3276L23.18 30.5951L29.97 23.8076L29.9725 23.8051ZM6.79 23.8051L13.525 30.5951L6.795 37.3251L0 30.5951L6.79 23.8051ZM29.975 0.620117L48.355 18.9451L41.5625 25.7326L29.9725 14.1426L18.385 25.7926L11.5925 19.0026L29.9725 0.622617L29.975 0.620117Z" fill="white"/>
</svg>
