<svg width="94" height="78" viewBox="0 0 94 78" fill="none" xmlns="http://www.w3.org/2000/svg">
<path d="M45.307 48.187C44.9318 48.9606 44.9616 49.8709 45.3844 50.6201L51.3925 60.9147C51.9009 61.7876 51.8512 62.8765 51.2663 63.7012C50.7043 64.5404 49.7096 64.9791 48.7109 64.8356L36.9043 63.2773C36.4924 63.2194 36.0735 63.2604 35.6774 63.3921L35.0704 63.6134C34.8713 63.7215 34.6897 63.8638 34.5391 64.0354L26.5112 72.851C26.1104 73.2761 25.5868 73.566 25.0106 73.677C23.5931 73.9095 22.2479 72.9686 21.9794 71.5567L19.9562 59.8097C19.7953 58.9574 19.2307 58.2369 18.4424 57.8772L7.49657 52.9856C6.58091 52.5758 5.98649 51.676 5.97149 50.6741C5.94834 49.6777 6.47844 48.7511 7.35047 48.2683L17.8942 42.5958C18.7091 42.1998 19.265 41.4136 19.3682 40.5132L20.6079 28.668C20.6427 28.4016 20.7177 28.1408 20.8354 27.9L20.9799 27.6697C21.0427 27.5148 21.1286 27.3744 21.2344 27.2471L21.4459 27.0685L21.7695 26.7729L22.7125 26.4292C23.5866 26.2096 24.5117 26.4433 25.1735 27.0547L33.7933 35.2555C34.4186 35.8573 35.3006 36.1119 36.1496 35.942L47.8706 33.4994C48.8604 33.2909 49.8834 33.6539 50.5213 34.4364C51.1421 35.2276 51.2482 36.3055 50.7942 37.2043L45.307 48.187Z" fill="url(#paint0_linear_22_348)"/>
<g opacity="0.5" filter="url(#filter0_f_22_348)">
<path d="M34.9834 42.2295C29.8571 42.2295 25.6967 46.3909 25.6967 51.5163C25.6967 56.6435 29.8571 60.803 34.9834 60.803C40.119 60.803 44.2702 56.6435 44.2702 51.5163C44.2702 46.3909 40.119 42.2295 34.9834 42.2295Z" fill="#FF3D22"/>
</g>
<g filter="url(#filter1_b_22_348)">
<path d="M72.6438 46.4566C71.698 47.0025 71.0807 47.9807 70.9912 49.0696L69.9714 64.1735C69.884 65.4534 69.0557 66.5628 67.853 67.0129C66.6643 67.4947 65.306 67.2471 64.3582 66.3845L53.0567 56.333C52.665 55.9785 52.1953 55.7231 51.6851 55.5793L50.8893 55.3794C50.6029 55.3511 50.3107 55.3713 50.03 55.4444L35.3084 58.9913C34.5841 59.1527 33.8271 59.0843 33.1423 58.7904C31.4865 58.0247 30.7427 56.077 31.4666 54.4013L37.7106 40.6102C38.1487 39.5995 38.0686 38.4398 37.4962 37.4999L29.4749 24.5574C28.8043 23.4741 28.8206 22.1046 29.5188 21.0406C30.2045 19.9766 31.4221 19.3803 32.6828 19.4942L47.8096 21.0442C48.9483 21.2086 50.093 20.7782 50.8431 19.9052L60.5873 8.33603C60.8138 8.08074 61.0784 7.86002 61.3738 7.69073L61.6898 7.55158C61.8662 7.43356 62.0565 7.34714 62.2585 7.28863L62.6081 7.2516L63.159 7.17148L64.3953 7.48213C65.4706 7.87411 66.2766 8.77908 66.5367 9.89342L69.7546 24.6572C69.9831 25.7355 70.7289 26.6316 71.7425 27.058L85.8052 32.8426C86.9943 33.3287 87.811 34.4393 87.9241 35.7165C88.0129 36.9908 87.3564 38.1995 86.2386 38.8209L72.6438 46.4566Z" fill="#FFAC95" fill-opacity="0.4"/>
<path d="M70.3413 64.1988L70.3413 64.1985L71.3608 49.1C71.3608 49.0991 71.3609 49.0983 71.361 49.0974C71.4412 48.1309 71.9891 47.2634 72.8273 46.7787C72.8279 46.7784 72.8285 46.778 72.8291 46.7777L86.4188 39.1449C86.4191 39.1447 86.4194 39.1446 86.4197 39.1444C87.6623 38.4531 88.3927 37.1085 88.2939 35.6908L88.294 35.6908L88.2934 35.6838C88.1682 34.269 87.2635 33.0385 85.946 32.4997C85.9459 32.4996 85.9457 32.4995 85.9455 32.4994L71.8863 26.7163C71.8858 26.7161 71.8854 26.7159 71.8849 26.7157C70.9832 26.3359 70.3203 25.5385 70.1173 24.5803L70.1168 24.5783L66.899 9.81446L66.899 9.81445L66.8978 9.80914C66.609 8.5722 65.7145 7.56838 64.5222 7.1338C64.5102 7.12942 64.498 7.12567 64.4856 7.12256L63.2493 6.8119C63.2024 6.8001 63.1535 6.79761 63.1056 6.80458L62.5619 6.88366L62.2194 6.91994C62.1978 6.92223 62.1763 6.92644 62.1554 6.93251C61.9295 6.99793 61.7137 7.09395 61.5119 7.22481L61.2244 7.35143C61.2125 7.35668 61.2008 7.36256 61.1895 7.36905C60.8565 7.55989 60.561 7.80704 60.31 8.08997L60.3099 8.08989L60.3037 8.09718L50.5619 19.6636C50.5615 19.664 50.5611 19.6645 50.5607 19.665C49.893 20.4411 48.8749 20.8234 47.8625 20.6773C47.8575 20.6765 47.8524 20.6759 47.8473 20.6754L32.7206 19.1253L32.7206 19.1253L32.7162 19.1249C31.3181 18.9986 29.9683 19.6597 29.208 20.8385C28.4312 22.0232 28.4137 23.5476 29.1597 24.7526L29.1598 24.7527L37.1796 37.6927C37.1798 37.6931 37.18 37.6935 37.1802 37.6938C37.6888 38.5298 37.7604 39.5609 37.3716 40.4601C37.3712 40.4609 37.3708 40.4618 37.3704 40.4627L31.1289 54.2484L31.1288 54.2484L31.1263 54.2543C30.3227 56.1145 31.1482 58.2767 32.9867 59.1269L32.9866 59.1271L32.9961 59.1311C33.753 59.4559 34.5894 59.5314 35.3891 59.3532L35.3891 59.3532L35.3953 59.3517L50.1169 55.8049L50.1169 55.8049L50.1235 55.8032C50.3512 55.7439 50.5902 55.7255 50.8266 55.7459L51.5895 55.9376C52.0446 56.0667 52.4614 56.2943 52.808 56.6079L52.8103 56.61L64.1087 66.6587C64.1092 66.6592 64.1097 66.6597 64.1102 66.6601C65.1613 67.6157 66.6674 67.8914 67.9877 67.3584C69.3237 66.8563 70.244 65.6225 70.3413 64.1988Z" stroke="url(#paint1_linear_22_348)" stroke-width="0.741514" stroke-linecap="round" stroke-linejoin="round"/>
</g>
<defs>
<filter id="filter0_f_22_348" x="10.8664" y="27.3992" width="48.2341" height="48.2343" filterUnits="userSpaceOnUse" color-interpolation-filters="sRGB">
<feFlood flood-opacity="0" result="BackgroundImageFix"/>
<feBlend mode="normal" in="SourceGraphic" in2="BackgroundImageFix" result="shape"/>
<feGaussianBlur stdDeviation="7.41514" result="effect1_foregroundBlur_22_348"/>
</filter>
<filter id="filter1_b_22_348" x="10.4455" y="-11.3662" width="96.0245" height="97.1601" filterUnits="userSpaceOnUse" color-interpolation-filters="sRGB">
<feFlood flood-opacity="0" result="BackgroundImageFix"/>
<feGaussianBlur in="BackgroundImage" stdDeviation="8.89817"/>
<feComposite in2="SourceAlpha" operator="in" result="effect1_backgroundBlur_22_348"/>
<feBlend mode="normal" in="SourceGraphic" in2="effect1_backgroundBlur_22_348" result="shape"/>
</filter>
<linearGradient id="paint0_linear_22_348" x1="9.0559" y1="44.581" x2="58.2509" y2="90.6739" gradientUnits="userSpaceOnUse">
<stop stop-color="#FFA78F"/>
<stop offset="1" stop-color="#F23E2C"/>
</linearGradient>
<linearGradient id="paint1_linear_22_348" x1="42.3357" y1="8.8501" x2="65.9811" y2="63.5362" gradientUnits="userSpaceOnUse">
<stop stop-color="white" stop-opacity="0.25"/>
<stop offset="1" stop-color="white" stop-opacity="0"/>
</linearGradient>
</defs>
</svg>
