<svg width="78" height="75" viewBox="0 0 78 75" fill="none" xmlns="http://www.w3.org/2000/svg">
<g filter="url(#filter0_b_22_329)">
<path d="M47.4263 12.5997C44.5271 12.57 41.6582 12.5107 38.7893 12.5107V11.9475C38.7591 7.50051 35.0446 3.85402 30.4846 3.82437H27.4949C26.5889 3.82437 25.8339 3.11286 25.8339 2.22347C25.8339 1.00797 24.8374 0 23.569 0C22.3308 0 21.3041 1.00797 21.3041 2.22347C21.3041 5.54386 24.0824 8.27131 27.4949 8.27131H30.4846C32.5381 8.27131 34.2595 9.93151 34.2595 11.9771V12.4811C30.1524 12.4811 26.1057 12.5404 22.1496 12.5997C11.6404 12.5997 4 20.0705 4 30.3874V43.6393C4 53.9562 11.6404 61.4271 22.1194 61.4271C26.3171 61.516 30.5752 61.5457 34.803 61.5457C39.0309 61.5457 43.2286 61.516 47.4263 61.4271C57.9053 61.4271 65.5457 53.9562 65.5457 43.6393V30.3874C65.5457 20.0705 57.9053 12.5997 47.4263 12.5997Z" fill="url(#paint0_linear_22_329)"/>
</g>
<g opacity="0.5" filter="url(#filter1_f_22_329)">
<path d="M44.4329 22.0933H24.6898C17.4952 22.0933 13.4188 25.0969 13.4188 30.3982V44.9319C13.4188 50.2332 17.4952 53.2369 24.6898 53.2369H44.4329C51.6276 53.2369 55.6851 50.2332 55.6851 44.9319V30.3982C55.6851 25.0969 51.6276 22.0933 44.4329 22.0933Z" fill="#E31352"/>
</g>
<g filter="url(#filter2_b_22_329)">
<mask id="path-3-outside-1_22_329" maskUnits="userSpaceOnUse" x="14.8643" y="24.2114" width="63" height="51" fill="black">
<rect fill="white" x="14.8643" y="24.2114" width="63" height="51"/>
<path fill-rule="evenodd" clip-rule="evenodd" d="M55.7229 25.2921C56.6769 25.3052 57.6332 25.3183 58.5929 25.3281C68.9036 25.3281 76.4213 32.6789 76.4213 42.83V55.8688C76.4213 66.0199 68.9036 73.3707 58.5929 73.3707C54.4627 73.4582 50.3324 73.4874 46.1725 73.4874C42.0125 73.4874 37.8229 73.4582 33.6926 73.3707C23.3819 73.3707 15.8643 66.0199 15.8643 55.8688V42.83C15.8643 32.6789 23.3819 25.3281 33.7223 25.3281C37.6149 25.2698 41.5965 25.2114 45.6376 25.2114C47.1233 25.2114 48.609 25.2114 50.0947 25.2406C51.9679 25.2406 53.841 25.2663 55.7229 25.2921ZM42.6666 51.5235H39.5466V54.6155C39.5466 55.8115 38.5363 56.8032 37.3181 56.8032C36.0701 56.8032 35.0895 55.8115 35.0895 54.6155V51.5235H31.9398C30.7216 51.5235 29.7113 50.5609 29.7113 49.3358C29.7113 48.1398 30.7216 47.148 31.9398 47.148H35.0895V44.0852C35.0895 42.8893 36.0701 41.8975 37.3181 41.8975C38.5363 41.8975 39.5466 42.8893 39.5466 44.0852V47.148H42.6666C43.8848 47.148 44.8951 48.1398 44.8951 49.3358C44.8951 50.5609 43.8848 51.5235 42.6666 51.5235ZM55.2955 46.5952H55.5926C56.8109 46.5952 57.8212 45.6326 57.8212 44.4075C57.8212 43.2115 56.8109 42.2198 55.5926 42.2198H55.2955C54.0475 42.2198 53.0669 43.2115 53.0669 44.4075C53.0669 45.6326 54.0475 46.5952 55.2955 46.5952ZM60.376 56.6284H60.6732C61.8914 56.6284 62.9017 55.6658 62.9017 54.4407C62.9017 53.2447 61.8914 52.253 60.6732 52.253H60.376C59.128 52.253 58.1475 53.2447 58.1475 54.4407C58.1475 55.6658 59.128 56.6284 60.376 56.6284Z"/>
</mask>
<path fill-rule="evenodd" clip-rule="evenodd" d="M55.7229 25.2921C56.6769 25.3052 57.6332 25.3183 58.5929 25.3281C68.9036 25.3281 76.4213 32.6789 76.4213 42.83V55.8688C76.4213 66.0199 68.9036 73.3707 58.5929 73.3707C54.4627 73.4582 50.3324 73.4874 46.1725 73.4874C42.0125 73.4874 37.8229 73.4582 33.6926 73.3707C23.3819 73.3707 15.8643 66.0199 15.8643 55.8688V42.83C15.8643 32.6789 23.3819 25.3281 33.7223 25.3281C37.6149 25.2698 41.5965 25.2114 45.6376 25.2114C47.1233 25.2114 48.609 25.2114 50.0947 25.2406C51.9679 25.2406 53.841 25.2663 55.7229 25.2921ZM42.6666 51.5235H39.5466V54.6155C39.5466 55.8115 38.5363 56.8032 37.3181 56.8032C36.0701 56.8032 35.0895 55.8115 35.0895 54.6155V51.5235H31.9398C30.7216 51.5235 29.7113 50.5609 29.7113 49.3358C29.7113 48.1398 30.7216 47.148 31.9398 47.148H35.0895V44.0852C35.0895 42.8893 36.0701 41.8975 37.3181 41.8975C38.5363 41.8975 39.5466 42.8893 39.5466 44.0852V47.148H42.6666C43.8848 47.148 44.8951 48.1398 44.8951 49.3358C44.8951 50.5609 43.8848 51.5235 42.6666 51.5235ZM55.2955 46.5952H55.5926C56.8109 46.5952 57.8212 45.6326 57.8212 44.4075C57.8212 43.2115 56.8109 42.2198 55.5926 42.2198H55.2955C54.0475 42.2198 53.0669 43.2115 53.0669 44.4075C53.0669 45.6326 54.0475 46.5952 55.2955 46.5952ZM60.376 56.6284H60.6732C61.8914 56.6284 62.9017 55.6658 62.9017 54.4407C62.9017 53.2447 61.8914 52.253 60.6732 52.253H60.376C59.128 52.253 58.1475 53.2447 58.1475 54.4407C58.1475 55.6658 59.128 56.6284 60.376 56.6284Z" fill="#FF749F" fill-opacity="0.35"/>
<path d="M58.5929 25.3281L58.5853 26.0696H58.5929V25.3281ZM55.7229 25.2921L55.7127 26.0335L55.7229 25.2921ZM58.5929 73.3707V72.6292C58.5877 72.6292 58.5824 72.6292 58.5772 72.6294L58.5929 73.3707ZM33.6926 73.3707L33.7083 72.6294C33.7031 72.6292 33.6979 72.6292 33.6926 72.6292V73.3707ZM33.7223 25.3281V26.0697L33.7334 26.0695L33.7223 25.3281ZM50.0947 25.2406L50.0802 25.982C50.085 25.9821 50.0899 25.9821 50.0947 25.9821V25.2406ZM39.5466 51.5235V50.782C39.1371 50.782 38.8051 51.114 38.8051 51.5235H39.5466ZM35.0895 51.5235H35.831C35.831 51.114 35.499 50.782 35.0895 50.782V51.5235ZM35.0895 47.148V47.8896C35.499 47.8896 35.831 47.5576 35.831 47.148H35.0895ZM39.5466 47.148H38.8051C38.8051 47.5576 39.1371 47.8896 39.5466 47.8896V47.148ZM58.6005 24.5866C57.6423 24.5768 56.6873 24.5637 55.733 24.5506L55.7127 26.0335C56.6666 26.0466 57.6242 26.0598 58.5853 26.0696L58.6005 24.5866ZM77.1628 42.83C77.1628 32.2557 69.2994 24.5866 58.5929 24.5866V26.0696C68.5079 26.0696 75.6798 33.1021 75.6798 42.83H77.1628ZM77.1628 55.8688V42.83H75.6798V55.8688H77.1628ZM58.5929 74.1122C69.2994 74.1122 77.1628 66.4431 77.1628 55.8688H75.6798C75.6798 65.5967 68.5079 72.6292 58.5929 72.6292V74.1122ZM46.1725 74.2289C50.3358 74.2289 54.4715 74.1997 58.6086 74.112L58.5772 72.6294C54.4538 72.7167 50.3291 72.7459 46.1725 72.7459V74.2289ZM33.6769 74.112C37.8141 74.1997 42.0093 74.2289 46.1725 74.2289V72.7459C42.0158 72.7459 37.8317 72.7167 33.7083 72.6294L33.6769 74.112ZM15.1227 55.8688C15.1227 66.4431 22.9862 74.1122 33.6926 74.1122V72.6292C23.7776 72.6292 16.6058 65.5967 16.6058 55.8688H15.1227ZM15.1227 42.83V55.8688H16.6058V42.83H15.1227ZM33.7223 24.5866C22.987 24.5866 15.1227 32.2549 15.1227 42.83H16.6058C16.6058 33.1029 23.7768 26.0696 33.7223 26.0696V24.5866ZM45.6376 24.4699C41.5902 24.4699 37.6032 24.5283 33.7112 24.5867L33.7334 26.0695C37.6266 26.0112 41.6029 25.9529 45.6376 25.9529V24.4699ZM50.1093 24.4992C48.6151 24.4699 47.1221 24.4699 45.6376 24.4699V25.9529C47.1245 25.9529 48.603 25.953 50.0802 25.982L50.1093 24.4992ZM55.733 24.5506C53.8521 24.5249 51.9738 24.4991 50.0947 24.4991V25.9821C51.9619 25.9821 53.83 26.0077 55.7127 26.0335L55.733 24.5506ZM39.5466 52.265H42.6666V50.782H39.5466V52.265ZM40.2881 54.6155V51.5235H38.8051V54.6155H40.2881ZM37.3181 57.5448C38.9329 57.5448 40.2881 56.2339 40.2881 54.6155H38.8051C38.8051 55.3891 38.1398 56.0617 37.3181 56.0617V57.5448ZM34.348 54.6155C34.348 56.2275 35.667 57.5448 37.3181 57.5448V56.0617C36.4731 56.0617 35.831 55.3955 35.831 54.6155H34.348ZM34.348 51.5235V54.6155H35.831V51.5235H34.348ZM31.9398 52.265H35.0895V50.782H31.9398V52.265ZM28.9698 49.3358C28.9698 50.9897 30.3315 52.265 31.9398 52.265V50.782C31.1116 50.782 30.4528 50.1322 30.4528 49.3358H28.9698ZM31.9398 46.4065C30.325 46.4065 28.9698 47.7174 28.9698 49.3358H30.4528C30.4528 48.5622 31.1181 47.8896 31.9398 47.8896V46.4065ZM35.0895 46.4065H31.9398V47.8896H35.0895V46.4065ZM34.348 44.0852V47.148H35.831V44.0852H34.348ZM37.3181 41.156C35.667 41.156 34.348 42.4733 34.348 44.0852H35.831C35.831 43.3052 36.4731 42.639 37.3181 42.639V41.156ZM40.2881 44.0852C40.2881 42.4669 38.9329 41.156 37.3181 41.156V42.639C38.1398 42.639 38.8051 43.3116 38.8051 44.0852H40.2881ZM40.2881 47.148V44.0852H38.8051V47.148H40.2881ZM42.6666 46.4065H39.5466V47.8896H42.6666V46.4065ZM45.6366 49.3358C45.6366 47.7174 44.2814 46.4065 42.6666 46.4065V47.8896C43.4883 47.8896 44.1536 48.5622 44.1536 49.3358H45.6366ZM42.6666 52.265C44.2749 52.265 45.6366 50.9897 45.6366 49.3358H44.1536C44.1536 50.1321 43.4948 50.782 42.6666 50.782V52.265ZM55.5926 45.8537H55.2955V47.3367H55.5926V45.8537ZM57.0797 44.4075C57.0797 45.2039 56.4209 45.8537 55.5926 45.8537V47.3367C57.2009 47.3367 58.5627 46.0614 58.5627 44.4075H57.0797ZM55.5926 42.9613C56.4144 42.9613 57.0797 43.6339 57.0797 44.4075H58.5627C58.5627 42.7891 57.2074 41.4782 55.5926 41.4782V42.9613ZM55.2955 42.9613H55.5926V41.4782H55.2955V42.9613ZM53.8085 44.4075C53.8085 43.6275 54.4505 42.9613 55.2955 42.9613V41.4782C53.6445 41.4782 52.3254 42.7955 52.3254 44.4075H53.8085ZM55.2955 45.8537C54.444 45.8537 53.8085 45.2102 53.8085 44.4075H52.3254C52.3254 46.055 53.651 47.3367 55.2955 47.3367V45.8537ZM60.6732 55.8869H60.376V57.3699H60.6732V55.8869ZM62.1602 54.4407C62.1602 55.2371 61.5014 55.8869 60.6732 55.8869V57.3699C62.2815 57.3699 63.6432 56.0946 63.6432 54.4407H62.1602ZM60.6732 52.9945C61.4949 52.9945 62.1602 53.6671 62.1602 54.4407H63.6432C63.6432 52.8223 62.288 51.5114 60.6732 51.5114V52.9945ZM60.376 52.9945H60.6732V51.5114H60.376V52.9945ZM58.889 54.4407C58.889 53.6607 59.5311 52.9945 60.376 52.9945V51.5114C58.725 51.5114 57.406 52.8287 57.406 54.4407H58.889ZM60.376 55.8869C59.5246 55.8869 58.889 55.2434 58.889 54.4407H57.406C57.406 56.0882 58.7315 57.3699 60.376 57.3699V55.8869Z" fill="url(#paint1_linear_22_329)" mask="url(#path-3-outside-1_22_329)"/>
</g>
<g filter="url(#filter3_bd_22_329)">
<mask id="path-5-inside-2_22_329" fill="white">
<path fill-rule="evenodd" clip-rule="evenodd" d="M55.2824 46.6103H55.5795C56.7978 46.6103 57.8081 45.6477 57.8081 44.4226C57.8081 43.2266 56.7978 42.2349 55.5795 42.2349H55.2824C54.0344 42.2349 53.0538 43.2266 53.0538 44.4226C53.0538 45.6477 54.0344 46.6103 55.2824 46.6103ZM60.3636 56.6455H60.6608C61.879 56.6455 62.8893 55.6829 62.8893 54.4577C62.8893 53.2618 61.879 52.27 60.6608 52.27H60.3636C59.1157 52.27 58.1351 53.2618 58.1351 54.4577C58.1351 55.6829 59.1157 56.6455 60.3636 56.6455Z"/>
</mask>
<path fill-rule="evenodd" clip-rule="evenodd" d="M55.2824 46.6103H55.5795C56.7978 46.6103 57.8081 45.6477 57.8081 44.4226C57.8081 43.2266 56.7978 42.2349 55.5795 42.2349H55.2824C54.0344 42.2349 53.0538 43.2266 53.0538 44.4226C53.0538 45.6477 54.0344 46.6103 55.2824 46.6103ZM60.3636 56.6455H60.6608C61.879 56.6455 62.8893 55.6829 62.8893 54.4577C62.8893 53.2618 61.879 52.27 60.6608 52.27H60.3636C59.1157 52.27 58.1351 53.2618 58.1351 54.4577C58.1351 55.6829 59.1157 56.6455 60.3636 56.6455Z" fill="url(#paint2_linear_22_329)"/>
<path d="M55.5795 46.3137H55.2824V46.9069H55.5795V46.3137ZM57.5115 44.4226C57.5115 45.4762 56.6418 46.3137 55.5795 46.3137V46.9069C56.9538 46.9069 58.1047 45.8192 58.1047 44.4226H57.5115ZM55.5795 42.5315C56.6392 42.5315 57.5115 43.3956 57.5115 44.4226H58.1047C58.1047 43.0577 56.9564 41.9383 55.5795 41.9383V42.5315ZM55.2824 42.5315H55.5795V41.9383H55.2824V42.5315ZM53.3504 44.4226C53.3504 43.393 54.1956 42.5315 55.2824 42.5315V41.9383C53.8732 41.9383 52.7572 43.0602 52.7572 44.4226H53.3504ZM55.2824 46.3137C54.193 46.3137 53.3504 45.4788 53.3504 44.4226H52.7572C52.7572 45.8167 53.8758 46.9069 55.2824 46.9069V46.3137ZM60.6608 56.3489H60.3636V56.9421H60.6608V56.3489ZM62.5927 54.4577C62.5927 55.5114 61.723 56.3489 60.6608 56.3489V56.9421C62.0351 56.9421 63.1859 55.8544 63.1859 54.4577H62.5927ZM60.6608 52.5666C61.7204 52.5666 62.5927 53.4307 62.5927 54.4577H63.1859C63.1859 53.0928 62.0377 51.9734 60.6608 51.9734V52.5666ZM60.3636 52.5666H60.6608V51.9734H60.3636V52.5666ZM58.4317 54.4577C58.4317 53.4282 59.2769 52.5666 60.3636 52.5666V51.9734C58.9544 51.9734 57.8385 53.0954 57.8385 54.4577H58.4317ZM60.3636 56.3489C59.2743 56.3489 58.4317 55.5139 58.4317 54.4577H57.8385C57.8385 55.8518 58.957 56.9421 60.3636 56.9421V56.3489Z" fill="url(#paint3_linear_22_329)" mask="url(#path-5-inside-2_22_329)"/>
</g>
<g filter="url(#filter4_bd_22_329)">
<mask id="path-7-inside-3_22_329" fill="white">
<path d="M42.6543 51.5396H39.5343V54.6316C39.5343 55.8276 38.524 56.8193 37.3057 56.8193C36.0578 56.8193 35.0772 55.8276 35.0772 54.6316V51.5396H31.9275C30.7092 51.5396 29.699 50.577 29.699 49.3519C29.699 48.1559 30.7092 47.1641 31.9275 47.1641H35.0772V44.1013C35.0772 42.9053 36.0578 41.9136 37.3057 41.9136C38.524 41.9136 39.5343 42.9053 39.5343 44.1013V47.1641H42.6543C43.8725 47.1641 44.8828 48.1559 44.8828 49.3519C44.8828 50.577 43.8725 51.5396 42.6543 51.5396Z"/>
</mask>
<path d="M42.6543 51.5396H39.5343V54.6316C39.5343 55.8276 38.524 56.8193 37.3057 56.8193C36.0578 56.8193 35.0772 55.8276 35.0772 54.6316V51.5396H31.9275C30.7092 51.5396 29.699 50.577 29.699 49.3519C29.699 48.1559 30.7092 47.1641 31.9275 47.1641H35.0772V44.1013C35.0772 42.9053 36.0578 41.9136 37.3057 41.9136C38.524 41.9136 39.5343 42.9053 39.5343 44.1013V47.1641H42.6543C43.8725 47.1641 44.8828 48.1559 44.8828 49.3519C44.8828 50.577 43.8725 51.5396 42.6543 51.5396Z" fill="url(#paint4_linear_22_329)"/>
<path d="M39.5343 51.5396V51.243H39.2377V51.5396H39.5343ZM35.0772 51.5396H35.3738V51.243H35.0772V51.5396ZM35.0772 47.1641V47.4607H35.3738V47.1641H35.0772ZM39.5343 47.1641H39.2377V47.4607H39.5343V47.1641ZM42.6543 51.243H39.5343V51.8362H42.6543V51.243ZM39.2377 51.5396V54.6316H39.8309V51.5396H39.2377ZM39.2377 54.6316C39.2377 55.6586 38.3654 56.5227 37.3057 56.5227V57.1159C38.6826 57.1159 39.8309 55.9965 39.8309 54.6316H39.2377ZM37.3057 56.5227C36.219 56.5227 35.3738 55.6612 35.3738 54.6316H34.7806C34.7806 55.9939 35.8965 57.1159 37.3057 57.1159V56.5227ZM35.3738 54.6316V51.5396H34.7806V54.6316H35.3738ZM35.0772 51.243H31.9275V51.8362H35.0772V51.243ZM31.9275 51.243C30.8653 51.243 29.9956 50.4055 29.9956 49.3519H29.4024C29.4024 50.7485 30.5532 51.8362 31.9275 51.8362V51.243ZM29.9956 49.3519C29.9956 48.3249 30.8679 47.4607 31.9275 47.4607V46.8675C30.5506 46.8675 29.4024 47.9869 29.4024 49.3519H29.9956ZM31.9275 47.4607H35.0772V46.8675H31.9275V47.4607ZM35.3738 47.1641V44.1013H34.7806V47.1641H35.3738ZM35.3738 44.1013C35.3738 43.0717 36.219 42.2102 37.3057 42.2102V41.617C35.8965 41.617 34.7806 42.739 34.7806 44.1013H35.3738ZM37.3057 42.2102C38.3654 42.2102 39.2377 43.0743 39.2377 44.1013H39.8309C39.8309 42.7364 38.6826 41.617 37.3057 41.617V42.2102ZM39.2377 44.1013V47.1641H39.8309V44.1013H39.2377ZM39.5343 47.4607H42.6543V46.8675H39.5343V47.4607ZM42.6543 47.4607C43.7139 47.4607 44.5862 48.3249 44.5862 49.3519H45.1794C45.1794 47.9869 44.0311 46.8675 42.6543 46.8675V47.4607ZM44.5862 49.3519C44.5862 50.4055 43.7165 51.243 42.6543 51.243V51.8362C44.0285 51.8362 45.1794 50.7485 45.1794 49.3519H44.5862Z" fill="url(#paint5_linear_22_329)" mask="url(#path-7-inside-3_22_329)"/>
</g>
<defs>
<filter id="filter0_b_22_329" x="-5.63969" y="-9.63969" width="80.825" height="80.8253" filterUnits="userSpaceOnUse" color-interpolation-filters="sRGB">
<feFlood flood-opacity="0" result="BackgroundImageFix"/>
<feGaussianBlur in="BackgroundImage" stdDeviation="4.81984"/>
<feComposite in2="SourceAlpha" operator="in" result="effect1_backgroundBlur_22_329"/>
<feBlend mode="normal" in="SourceGraphic" in2="effect1_backgroundBlur_22_329" result="shape"/>
</filter>
<filter id="filter1_f_22_329" x="0.813079" y="9.48752" width="67.4778" height="56.355" filterUnits="userSpaceOnUse" color-interpolation-filters="sRGB">
<feFlood flood-opacity="0" result="BackgroundImageFix"/>
<feBlend mode="normal" in="SourceGraphic" in2="BackgroundImageFix" result="shape"/>
<feGaussianBlur stdDeviation="6.30287" result="effect1_foregroundBlur_22_329"/>
</filter>
<filter id="filter2_b_22_329" x="-2.67354" y="6.67338" width="97.6327" height="85.352" filterUnits="userSpaceOnUse" color-interpolation-filters="sRGB">
<feFlood flood-opacity="0" result="BackgroundImageFix"/>
<feGaussianBlur in="BackgroundImage" stdDeviation="8.89817"/>
<feComposite in2="SourceAlpha" operator="in" result="effect1_backgroundBlur_22_329"/>
<feBlend mode="normal" in="SourceGraphic" in2="effect1_backgroundBlur_22_329" result="shape"/>
</filter>
<filter id="filter3_bd_22_329" x="41.9311" y="31.1121" width="32.0809" height="36.6561" filterUnits="userSpaceOnUse" color-interpolation-filters="sRGB">
<feFlood flood-opacity="0" result="BackgroundImageFix"/>
<feGaussianBlur in="BackgroundImage" stdDeviation="5.56136"/>
<feComposite in2="SourceAlpha" operator="in" result="effect1_backgroundBlur_22_329"/>
<feColorMatrix in="SourceAlpha" type="matrix" values="0 0 0 0 0 0 0 0 0 0 0 0 0 0 0 0 0 0 127 0" result="hardAlpha"/>
<feOffset dx="3.70757" dy="3.70757"/>
<feGaussianBlur stdDeviation="3.70757"/>
<feColorMatrix type="matrix" values="0 0 0 0 1 0 0 0 0 0.321569 0 0 0 0 0.54902 0 0 0 0.5 0"/>
<feBlend mode="normal" in2="effect1_backgroundBlur_22_329" result="effect2_dropShadow_22_329"/>
<feBlend mode="normal" in="SourceGraphic" in2="effect2_dropShadow_22_329" result="shape"/>
</filter>
<filter id="filter4_bd_22_329" x="18.5763" y="30.7909" width="37.4293" height="37.1512" filterUnits="userSpaceOnUse" color-interpolation-filters="sRGB">
<feFlood flood-opacity="0" result="BackgroundImageFix"/>
<feGaussianBlur in="BackgroundImage" stdDeviation="5.56136"/>
<feComposite in2="SourceAlpha" operator="in" result="effect1_backgroundBlur_22_329"/>
<feColorMatrix in="SourceAlpha" type="matrix" values="0 0 0 0 0 0 0 0 0 0 0 0 0 0 0 0 0 0 127 0" result="hardAlpha"/>
<feOffset dx="3.70757" dy="3.70757"/>
<feGaussianBlur stdDeviation="3.70757"/>
<feColorMatrix type="matrix" values="0 0 0 0 1 0 0 0 0 0.321569 0 0 0 0 0.54902 0 0 0 0.5 0"/>
<feBlend mode="normal" in2="effect1_backgroundBlur_22_329" result="effect2_dropShadow_22_329"/>
<feBlend mode="normal" in="SourceGraphic" in2="effect2_dropShadow_22_329" result="shape"/>
</filter>
<linearGradient id="paint0_linear_22_329" x1="39.3038" y1="34.8942" x2="-14.7757" y2="61.1889" gradientUnits="userSpaceOnUse">
<stop stop-color="#FF759F"/>
<stop offset="1" stop-color="#FF196E"/>
</linearGradient>
<linearGradient id="paint1_linear_22_329" x1="25.5039" y1="30.8356" x2="54.178" y2="75.3835" gradientUnits="userSpaceOnUse">
<stop stop-color="white" stop-opacity="0.25"/>
<stop offset="1" stop-color="white" stop-opacity="0"/>
</linearGradient>
<linearGradient id="paint2_linear_22_329" x1="62.192" y1="44.8371" x2="51.23" y2="45.0811" gradientUnits="userSpaceOnUse">
<stop stop-color="white"/>
<stop offset="1" stop-color="white" stop-opacity="0.2"/>
</linearGradient>
<linearGradient id="paint3_linear_22_329" x1="54.6195" y1="43.9137" x2="63.8918" y2="51.7518" gradientUnits="userSpaceOnUse">
<stop stop-color="white" stop-opacity="0.25"/>
<stop offset="1" stop-color="white" stop-opacity="0"/>
</linearGradient>
<linearGradient id="paint4_linear_22_329" x1="43.8063" y1="44.6053" x2="26.8936" y2="45.167" gradientUnits="userSpaceOnUse">
<stop stop-color="white"/>
<stop offset="1" stop-color="white" stop-opacity="0.2"/>
</linearGradient>
<linearGradient id="paint5_linear_22_329" x1="32.116" y1="43.6501" x2="41.5858" y2="55.5975" gradientUnits="userSpaceOnUse">
<stop stop-color="white" stop-opacity="0.25"/>
<stop offset="1" stop-color="white" stop-opacity="0"/>
</linearGradient>
</defs>
</svg>
