<svg width="82" height="71" viewBox="0 0 82 71" fill="none" xmlns="http://www.w3.org/2000/svg">
<path fill-rule="evenodd" clip-rule="evenodd" d="M41.765 24.9887C41.7653 24.9871 41.7656 24.9855 41.7661 24.9838L41.9049 24.4656C43.3029 18.2113 39.5041 11.962 33.2926 10.2976C27.0811 8.63328 20.6666 12.146 18.7502 18.2613C18.6733 18.4261 18.6258 18.6031 18.61 18.7843L18.4285 18.7357C15.4583 17.9398 11.7578 19.0498 9.42373 24.0737L3.77397 37.9484C-0.525533 48.095 4.19661 52.1849 11.2841 54.084L30.4983 59.2324C37.5653 61.126 43.8523 58.7205 45.0496 49.0082L47.1146 34.1729C47.4017 28.7587 44.894 25.8271 41.9648 25.0422L41.765 24.9887ZM38.2724 24.0528C38.2526 23.8685 38.2659 23.6823 38.3116 23.5027C39.5025 19.0584 36.8526 14.4869 32.393 13.2919C27.9333 12.097 23.3527 14.7311 22.1618 19.1754C22.146 19.3566 22.0986 19.5336 22.0217 19.6985L38.2724 24.0528Z" fill="url(#paint0_linear_22_369)"/>
<g opacity="0.5" filter="url(#filter0_f_22_369)">
<path d="M20.8699 33.6878C22.2705 30.0528 26.1877 28.06 29.9504 29.0682C33.7132 30.0765 36.1091 33.7609 35.5046 37.6091L34.6353 43.1431C33.8779 47.9643 29.1087 51.0657 24.3947 49.8025C19.6806 48.5394 17.1011 43.4689 18.8558 38.9149L20.8699 33.6878Z" fill="#0062FF"/>
</g>
<g filter="url(#filter1_bd_22_369)">
<path fill-rule="evenodd" clip-rule="evenodd" d="M58.2566 17.2343C58.3233 17.4484 59.3905 21.889 59.3548 22.1105L55.3446 23.185C55.2244 23.0203 54.0413 18.7667 53.7928 17.8732L53.7491 17.7165C52.3154 12.3659 46.8007 9.19463 41.4316 10.6333C36.0625 12.0719 32.8723 17.5757 34.306 22.9263C34.3986 23.1248 35.761 28.2092 35.78 28.4274L31.6726 29.5279C31.58 29.3295 30.2176 24.2451 30.1986 24.0269C28.5155 16.4973 33.089 8.97354 40.5672 6.96977C48.0454 4.966 55.768 9.195 58.0752 16.5574L58.2566 17.2343ZM41.1689 38.3464C39.8069 38.7114 38.3983 37.8708 38.0226 36.4689C37.647 35.0671 38.4466 33.6348 39.8086 33.2699C41.1707 32.9049 42.5793 33.7455 42.9549 35.1473C43.3305 36.5492 42.5309 37.9815 41.1689 38.3464ZM54.1757 32.1414C54.5513 33.5432 55.96 34.3838 57.322 34.0188C58.684 33.6539 59.4836 32.2216 59.108 30.8198C58.7324 29.4179 57.3237 28.5773 55.9617 28.9423C54.5997 29.3072 53.8001 30.7395 54.1757 32.1414Z" fill="url(#paint1_linear_22_369)"/>
</g>
<g filter="url(#filter2_b_22_369)">
<mask id="path-4-outside-1_22_369" maskUnits="userSpaceOnUse" x="19.1551" y="13.8093" width="64.0657" height="58.4088" fill="black">
<rect fill="white" x="19.1551" y="13.8093" width="64.0657" height="58.4088"/>
<path fill-rule="evenodd" clip-rule="evenodd" d="M77.3299 41.0911L70.5527 24.3803C67.5929 18.5625 63.2136 17.0154 59.687 17.9604L31.351 25.553C27.7751 26.5111 24.5851 29.896 25.1757 36.539L27.6372 54.4063C29.2622 67.5734 36.6476 68.9952 45.1805 66.7088L68.3129 60.5105C76.8211 58.2307 81.928 51.9382 77.3299 41.0911ZM41.2432 38.3C39.8812 38.665 38.4725 37.8244 38.0969 36.4226C37.7213 35.0207 38.5209 33.5884 39.8829 33.2235C41.2449 32.8585 42.6536 33.6991 43.0292 35.101C43.4048 36.5028 42.6052 37.9351 41.2432 38.3ZM54.25 32.095C54.6256 33.4969 56.0342 34.3375 57.3962 33.9725C58.7582 33.6076 59.5579 32.1753 59.1822 30.7734C58.8066 29.3716 57.398 28.531 56.036 28.8959C54.674 29.2609 53.8743 30.6932 54.25 32.095Z"/>
</mask>
<path fill-rule="evenodd" clip-rule="evenodd" d="M77.3299 41.0911L70.5527 24.3803C67.5929 18.5625 63.2136 17.0154 59.687 17.9604L31.351 25.553C27.7751 26.5111 24.5851 29.896 25.1757 36.539L27.6372 54.4063C29.2622 67.5734 36.6476 68.9952 45.1805 66.7088L68.3129 60.5105C76.8211 58.2307 81.928 51.9382 77.3299 41.0911ZM41.2432 38.3C39.8812 38.665 38.4725 37.8244 38.0969 36.4226C37.7213 35.0207 38.5209 33.5884 39.8829 33.2235C41.2449 32.8585 42.6536 33.6991 43.0292 35.101C43.4048 36.5028 42.6052 37.9351 41.2432 38.3ZM54.25 32.095C54.6256 33.4969 56.0342 34.3375 57.3962 33.9725C58.7582 33.6076 59.5579 32.1753 59.1822 30.7734C58.8066 29.3716 57.398 28.531 56.036 28.8959C54.674 29.2609 53.8743 30.6932 54.25 32.095Z" fill="#3EA0FE" fill-opacity="0.35"/>
<path d="M70.5527 24.3803L71.2398 24.1016C71.2319 24.0821 71.2232 24.0629 71.2136 24.0441L70.5527 24.3803ZM77.3299 41.0911L76.6427 41.3698L76.6472 41.3805L77.3299 41.0911ZM25.1757 36.539L24.4371 36.6047C24.4381 36.6166 24.4395 36.6284 24.4411 36.6402L25.1757 36.539ZM27.6372 54.4063L28.3732 54.3154L28.3717 54.3051L27.6372 54.4063ZM45.1805 66.7088L45.3724 67.4251L45.1805 66.7088ZM68.3129 60.5105L68.121 59.7942L68.3129 60.5105ZM69.8655 24.659L76.6428 41.3698L78.0171 40.8124L71.2398 24.1016L69.8655 24.659ZM59.8789 18.6766C62.9935 17.8421 67.0535 19.1375 69.8918 24.7165L71.2136 24.0441C68.1323 17.9875 63.4337 16.1888 59.4951 17.2441L59.8789 18.6766ZM31.5429 26.2692L59.8789 18.6766L59.4951 17.2441L31.1591 24.8367L31.5429 26.2692ZM25.9143 36.4734C25.6305 33.2814 26.2602 30.9486 27.3221 29.319C28.384 27.6897 29.9149 26.7054 31.5429 26.2692L31.1591 24.8367C29.2112 25.3587 27.3592 26.5459 26.0797 28.5093C24.8003 30.4725 24.1303 33.1536 24.4371 36.6047L25.9143 36.4734ZM28.3717 54.3051L25.9102 36.4378L24.4411 36.6402L26.9026 54.5075L28.3717 54.3051ZM44.9886 65.9926C40.7765 67.1212 37.0349 67.277 34.176 65.703C31.3555 64.1502 29.1713 60.7828 28.3731 54.3154L26.9012 54.4971C27.7281 61.1969 30.0491 65.1239 33.4608 67.0022C36.8341 68.8594 41.0516 68.5828 45.3724 67.4251L44.9886 65.9926ZM68.121 59.7942L44.9886 65.9926L45.3724 67.4251L68.5048 61.2267L68.121 59.7942ZM76.6472 41.3805C78.8883 46.6672 78.7096 50.7016 77.0864 53.6565C75.4524 56.631 72.2613 58.6849 68.121 59.7942L68.5048 61.2267C72.8727 60.0564 76.4891 57.8241 78.3862 54.3706C80.294 50.8975 80.3697 46.3621 78.0126 40.8017L76.6472 41.3805ZM37.3806 36.6145C37.857 38.3923 39.6582 39.4924 41.4351 39.0163L41.0513 37.5838C40.1041 37.8376 39.088 37.2565 38.8131 36.2306L37.3806 36.6145ZM39.691 32.5072C37.9141 32.9834 36.9043 34.8367 37.3806 36.6145L38.8131 36.2306C38.5383 35.2048 39.1277 34.1935 40.0748 33.9397L39.691 32.5072ZM43.7454 34.909C43.2691 33.1312 41.4679 32.0311 39.691 32.5072L40.0748 33.9397C41.0219 33.6859 42.038 34.267 42.3129 35.2929L43.7454 34.909ZM41.4351 39.0163C43.212 38.5402 44.2218 36.6869 43.7454 34.909L42.3129 35.2929C42.5878 36.3188 41.9984 37.33 41.0513 37.5838L41.4351 39.0163ZM57.2043 33.2563C56.2572 33.51 55.2411 32.929 54.9662 31.9031L53.5337 32.2869C54.0101 34.0648 55.8112 35.1649 57.5882 34.6887L57.2043 33.2563ZM58.466 30.9653C58.7409 31.9912 58.1514 33.0025 57.2043 33.2563L57.5882 34.6887C59.3651 34.2126 60.3749 32.3593 59.8985 30.5815L58.466 30.9653ZM56.2279 29.6122C57.175 29.3584 58.1911 29.9394 58.466 30.9653L59.8985 30.5815C59.4221 28.8037 57.621 27.7036 55.8441 28.1797L56.2279 29.6122ZM54.9662 31.9031C54.6913 30.8772 55.2808 29.866 56.2279 29.6122L55.8441 28.1797C54.0671 28.6558 53.0573 30.5091 53.5337 32.2869L54.9662 31.9031Z" fill="url(#paint2_linear_22_369)" mask="url(#path-4-outside-1_22_369)"/>
</g>
<defs>
<filter id="filter0_f_22_369" x="3.47293" y="13.9768" width="46.955" height="50.9389" filterUnits="userSpaceOnUse" color-interpolation-filters="sRGB">
<feFlood flood-opacity="0" result="BackgroundImageFix"/>
<feBlend mode="normal" in="SourceGraphic" in2="BackgroundImageFix" result="shape"/>
<feGaussianBlur stdDeviation="7.41514" result="effect1_foregroundBlur_22_369"/>
</filter>
<filter id="filter1_bd_22_369" x="18.7276" y="-4.64957" width="51.7507" height="54.2039" filterUnits="userSpaceOnUse" color-interpolation-filters="sRGB">
<feFlood flood-opacity="0" result="BackgroundImageFix"/>
<feGaussianBlur in="BackgroundImage" stdDeviation="5.56136"/>
<feComposite in2="SourceAlpha" operator="in" result="effect1_backgroundBlur_22_369"/>
<feColorMatrix in="SourceAlpha" type="matrix" values="0 0 0 0 0 0 0 0 0 0 0 0 0 0 0 0 0 0 127 0" result="hardAlpha"/>
<feOffset dx="3.70757" dy="3.70757"/>
<feGaussianBlur stdDeviation="3.70757"/>
<feColorMatrix type="matrix" values="0 0 0 0 0.15375 0 0 0 0 0.522433 0 0 0 0 0.9 0 0 0 0.5 0"/>
<feBlend mode="normal" in2="effect1_backgroundBlur_22_369" result="effect2_dropShadow_22_369"/>
<feBlend mode="normal" in="SourceGraphic" in2="effect2_dropShadow_22_369" result="shape"/>
</filter>
<filter id="filter2_b_22_369" x="6.56694" y="-0.836384" width="91.0301" height="86.9775" filterUnits="userSpaceOnUse" color-interpolation-filters="sRGB">
<feFlood flood-opacity="0" result="BackgroundImageFix"/>
<feGaussianBlur in="BackgroundImage" stdDeviation="8.89817"/>
<feComposite in2="SourceAlpha" operator="in" result="effect1_backgroundBlur_22_369"/>
<feBlend mode="normal" in="SourceGraphic" in2="effect1_backgroundBlur_22_369" result="shape"/>
</filter>
<linearGradient id="paint0_linear_22_369" x1="54.311" y1="15.9295" x2="-4.92806" y2="38.8662" gradientUnits="userSpaceOnUse">
<stop stop-color="#39AFFD"/>
<stop offset="1" stop-color="#477FFF"/>
</linearGradient>
<linearGradient id="paint1_linear_22_369" x1="63.3856" y1="8.43237" x2="24.032" y2="19.6365" gradientUnits="userSpaceOnUse">
<stop stop-color="white"/>
<stop offset="1" stop-color="white" stop-opacity="0.2"/>
</linearGradient>
<linearGradient id="paint2_linear_22_369" x1="29.6819" y1="31.2266" x2="65.0583" y2="62.05" gradientUnits="userSpaceOnUse">
<stop stop-color="white" stop-opacity="0.25"/>
<stop offset="1" stop-color="white" stop-opacity="0"/>
</linearGradient>
</defs>
</svg>
