<svg width="63" height="77" viewBox="0 0 63 77" fill="none" xmlns="http://www.w3.org/2000/svg">
<path d="M18.7468 33.0904C16.0329 30.7397 14.676 29.5643 13.8772 28.2148C12.5164 25.9158 12.1708 23.1552 12.9226 20.5917C13.364 19.0869 14.3892 17.6132 16.4397 14.6659C18.4902 11.7185 19.5154 10.2448 20.7729 9.30777C22.915 7.71144 25.6235 7.07567 28.2522 7.55216C29.7953 7.83186 31.3691 8.69546 34.5169 10.4227L43.4676 15.3341C48.2627 17.9651 50.6602 19.2807 51.955 21.1521C53.3415 23.156 53.9176 25.6105 53.5675 28.0219C53.2406 30.274 51.6788 32.5189 48.5553 37.0087C45.4317 41.4985 43.8699 43.7434 41.872 44.8331C39.7327 45.9998 37.231 46.313 34.8702 45.7098C32.6653 45.1465 30.5982 43.356 26.464 39.775L18.7468 33.0904Z" fill="url(#paint0_linear_22_359)"/>
<g opacity="0.5" filter="url(#filter0_f_22_359)">
<path d="M23.2989 30.1979C20.1269 27.4503 19.5386 22.7523 21.9352 19.3073C24.3319 15.8624 28.9413 14.7804 32.6204 16.7992L37.9111 19.7023C42.5205 22.2315 43.921 28.198 40.9184 32.5139C37.9158 36.8299 31.8346 37.5914 27.8605 34.149L23.2989 30.1979Z" fill="#0062FF"/>
</g>
<g filter="url(#filter1_b_22_359)">
<mask id="path-3-outside-1_22_359" maskUnits="userSpaceOnUse" x="0" y="20.0215" width="63" height="57" fill="black">
<rect fill="white" y="20.0215" width="63" height="57"/>
<path d="M59.2861 52.7424C56.8003 52.7424 54.7777 50.7383 54.7777 48.2751C54.7777 45.809 56.8003 43.8049 59.2861 43.8049C59.8887 43.8049 60.467 43.5679 60.8909 43.1478C61.3178 42.7248 61.557 42.1518 61.557 41.5547L61.554 33.4482C61.554 26.5958 55.9252 21.0215 49.0096 21.0215H13.5474C6.6318 21.0215 1.00303 26.5958 1.00303 33.4482L1 41.8157C1 42.4128 1.2392 42.9858 1.66613 43.4088C2.09003 43.8289 2.66835 44.0659 3.27089 44.0659C5.84153 44.0659 7.77936 45.875 7.77936 48.2751C7.77936 50.7383 5.75675 52.7424 3.27089 52.7424C2.01736 52.7424 1 53.7505 1 54.9925V63.093C1 69.9454 6.62575 75.5228 13.5444 75.5228H49.0126C55.9313 75.5228 61.557 69.9454 61.557 63.093V54.9925C61.557 53.7505 60.5397 52.7424 59.2861 52.7424Z"/>
</mask>
<path d="M59.2861 52.7424C56.8003 52.7424 54.7777 50.7383 54.7777 48.2751C54.7777 45.809 56.8003 43.8049 59.2861 43.8049C59.8887 43.8049 60.467 43.5679 60.8909 43.1478C61.3178 42.7248 61.557 42.1518 61.557 41.5547L61.554 33.4482C61.554 26.5958 55.9252 21.0215 49.0096 21.0215H13.5474C6.6318 21.0215 1.00303 26.5958 1.00303 33.4482L1 41.8157C1 42.4128 1.2392 42.9858 1.66613 43.4088C2.09003 43.8289 2.66835 44.0659 3.27089 44.0659C5.84153 44.0659 7.77936 45.875 7.77936 48.2751C7.77936 50.7383 5.75675 52.7424 3.27089 52.7424C2.01736 52.7424 1 53.7505 1 54.9925V63.093C1 69.9454 6.62575 75.5228 13.5444 75.5228H49.0126C55.9313 75.5228 61.557 69.9454 61.557 63.093V54.9925C61.557 53.7505 60.5397 52.7424 59.2861 52.7424Z" fill="#3EA0FE" fill-opacity="0.35"/>
<path d="M59.2861 53.4839C59.6957 53.4839 60.0276 53.1519 60.0276 52.7424C60.0276 52.3329 59.6957 52.0009 59.2861 52.0009V53.4839ZM60.8909 43.1478L60.369 42.6211L60.8909 43.1478ZM61.557 41.5547H62.2985V41.5545L61.557 41.5547ZM61.554 33.4482H60.8125V33.4485L61.554 33.4482ZM1.00303 33.4482L1.74454 33.4485V33.4482H1.00303ZM1 41.8157L0.258486 41.8155V41.8157H1ZM1.66613 43.4088L2.18804 42.8821L1.66613 43.4088ZM59.2861 52.0009C58.8766 52.0009 58.5446 52.3329 58.5446 52.7424C58.5446 53.1519 58.8766 53.4839 59.2861 53.4839V52.0009ZM59.2861 52.0009C57.2034 52.0009 55.5192 50.3224 55.5192 48.2751H54.0361C54.0361 51.1542 56.3972 53.4839 59.2861 53.4839V52.0009ZM55.5192 48.2751C55.5192 46.2246 57.2037 44.5464 59.2861 44.5464V43.0634C56.3968 43.0634 54.0361 45.3934 54.0361 48.2751H55.5192ZM59.2861 44.5464C60.0823 44.5464 60.8488 44.2335 61.4128 43.6746L60.369 42.6211C60.0852 42.9022 59.695 43.0634 59.2861 43.0634V44.5464ZM61.4128 43.6746C61.9796 43.1129 62.2985 42.3506 62.2985 41.5547H60.8155C60.8155 41.953 60.656 42.3367 60.369 42.6211L61.4128 43.6746ZM62.2985 41.5545L62.2955 33.448L60.8125 33.4485L60.8155 41.555L62.2985 41.5545ZM62.2955 33.4482C62.2955 26.1797 56.3281 20.28 49.0096 20.28V21.763C55.5224 21.763 60.8125 27.012 60.8125 33.4482H62.2955ZM49.0096 20.28H13.5474V21.763H49.0096V20.28ZM13.5474 20.28C6.22894 20.28 0.261513 26.1797 0.261513 33.4482H1.74454C1.74454 27.012 7.03466 21.763 13.5474 21.763V20.28ZM0.261514 33.448L0.258486 41.8155L1.74151 41.816L1.74454 33.4485L0.261514 33.448ZM0.258486 41.8157C0.258486 42.6116 0.577422 43.374 1.14421 43.9356L2.18804 42.8821C1.90098 42.5977 1.74151 42.214 1.74151 41.8157H0.258486ZM1.14421 43.9356C1.70826 44.4945 2.47469 44.8074 3.27089 44.8074V43.3244C2.862 43.3244 2.47179 43.1633 2.18804 42.8821L1.14421 43.9356ZM3.27089 44.8074C5.4808 44.8074 7.03784 46.3317 7.03784 48.2751H8.52087C8.52087 45.4183 6.20226 43.3244 3.27089 43.3244V44.8074ZM7.03784 48.2751C7.03784 50.3224 5.35366 52.0009 3.27089 52.0009V53.4839C6.15985 53.4839 8.52087 51.1542 8.52087 48.2751H7.03784ZM3.27089 52.0009C1.61426 52.0009 0.258486 53.3345 0.258486 54.9925H1.74151C1.74151 54.1664 2.42045 53.4839 3.27089 53.4839V52.0009ZM0.258486 54.9925V63.093H1.74151V54.9925H0.258486ZM0.258486 63.093C0.258486 70.3613 6.22254 76.2643 13.5444 76.2643V74.7813C7.02896 74.7813 1.74151 69.5296 1.74151 63.093H0.258486ZM13.5444 76.2643H49.0126V74.7813H13.5444V76.2643ZM49.0126 76.2643C56.3345 76.2643 62.2985 70.3613 62.2985 63.093H60.8155C60.8155 69.5296 55.5281 74.7813 49.0126 74.7813V76.2643ZM62.2985 63.093V54.9925H60.8155V63.093H62.2985ZM62.2985 54.9925C62.2985 53.3345 60.9427 52.0009 59.2861 52.0009V53.4839C60.1366 53.4839 60.8155 54.1664 60.8155 54.9925H62.2985Z" fill="url(#paint1_linear_22_359)" mask="url(#path-3-outside-1_22_359)"/>
</g>
<g filter="url(#filter2_bd_22_359)">
<path d="M41.6655 47.0264L38.0956 50.5024L38.9404 55.4166C39.0858 56.2674 38.7436 57.1061 38.0442 57.6088C37.3508 58.1174 36.4455 58.181 35.6825 57.7753L31.2769 55.459L26.8623 57.7783C26.5353 57.9509 26.178 58.0417 25.8238 58.0417C25.3605 58.0417 24.9033 57.8964 24.5097 57.6118C23.8133 57.1061 23.4711 56.2674 23.6165 55.4166L24.4582 50.5024L20.8884 47.0264C20.2707 46.4269 20.0557 45.5458 20.3222 44.7253C20.5916 43.9077 21.2881 43.3264 22.1389 43.2053L27.0622 42.4877L29.2695 38.0155C29.654 37.2465 30.4231 36.7681 31.2769 36.7681H31.283C32.1399 36.7711 32.9089 37.2495 33.2874 38.0186L35.4947 42.4877L40.4271 43.2083C41.2688 43.3264 41.9652 43.9077 42.2317 44.7253C42.5012 45.5458 42.2862 46.4269 41.6655 47.0264Z" fill="url(#paint2_linear_22_359)"/>
<path d="M41.614 46.9731L41.6138 46.9733L38.0439 50.4493L38.016 50.4765L38.0226 50.515L38.8673 55.4291C39.0079 56.2521 38.6772 57.0626 38.0009 57.5485L38.0003 57.549C37.3301 58.0407 36.4553 58.1023 35.7173 57.7098L35.717 57.7097L31.3114 55.3934L31.2769 55.3752L31.2424 55.3933L26.8278 57.7127L26.8277 57.7127C26.5109 57.88 26.1654 57.9676 25.8238 57.9676C25.3762 57.9676 24.9342 57.8272 24.5531 57.5517C23.8797 57.0626 23.549 56.2521 23.6896 55.4291C23.6896 55.4291 23.6896 55.4291 23.6896 55.4291L24.5313 50.5149L24.5379 50.4765L24.5099 50.4493L20.9401 46.9733L20.94 46.9732C20.3429 46.3936 20.1349 45.5422 20.3926 44.7483C20.6533 43.9577 21.3264 43.3958 22.1493 43.2787L22.1496 43.2787L27.0729 42.5611L27.1114 42.5554L27.1287 42.5205L29.3358 38.0487C29.3358 38.0487 29.3358 38.0486 29.3358 38.0486C29.708 37.3044 30.4515 36.8422 31.2769 36.8422H31.2829C32.1116 36.8452 32.8549 37.3077 33.2209 38.0513L33.2209 38.0514L35.4282 42.5205L35.4455 42.5554L35.484 42.561L40.4164 43.2817L40.4168 43.2817C41.2304 43.3959 41.9035 43.9576 42.1612 44.7482L42.1612 44.7484C42.4219 45.5422 42.2141 46.3935 41.614 46.9731Z" stroke="url(#paint3_linear_22_359)" stroke-opacity="0.5" stroke-width="0.148303"/>
</g>
<defs>
<filter id="filter0_f_22_359" x="5.63468" y="0.956333" width="51.7006" height="50.184" filterUnits="userSpaceOnUse" color-interpolation-filters="sRGB">
<feFlood flood-opacity="0" result="BackgroundImageFix"/>
<feBlend mode="normal" in="SourceGraphic" in2="BackgroundImageFix" result="shape"/>
<feGaussianBlur stdDeviation="7.41514" result="effect1_foregroundBlur_22_359"/>
</filter>
<filter id="filter1_b_22_359" x="-17.5378" y="2.48344" width="97.6327" height="91.5771" filterUnits="userSpaceOnUse" color-interpolation-filters="sRGB">
<feFlood flood-opacity="0" result="BackgroundImageFix"/>
<feGaussianBlur in="BackgroundImage" stdDeviation="8.89817"/>
<feComposite in2="SourceAlpha" operator="in" result="effect1_backgroundBlur_22_359"/>
<feBlend mode="normal" in="SourceGraphic" in2="effect1_backgroundBlur_22_359" result="shape"/>
</filter>
<filter id="filter2_bd_22_359" x="9.08712" y="25.6454" width="44.3814" height="43.5189" filterUnits="userSpaceOnUse" color-interpolation-filters="sRGB">
<feFlood flood-opacity="0" result="BackgroundImageFix"/>
<feGaussianBlur in="BackgroundImage" stdDeviation="5.56136"/>
<feComposite in2="SourceAlpha" operator="in" result="effect1_backgroundBlur_22_359"/>
<feColorMatrix in="SourceAlpha" type="matrix" values="0 0 0 0 0 0 0 0 0 0 0 0 0 0 0 0 0 0 127 0" result="hardAlpha"/>
<feOffset dx="3.70757" dy="3.70757"/>
<feGaussianBlur stdDeviation="3.70757"/>
<feColorMatrix type="matrix" values="0 0 0 0 0.15375 0 0 0 0 0.522433 0 0 0 0 0.9 0 0 0 0.5 0"/>
<feBlend mode="normal" in2="effect1_backgroundBlur_22_359" result="effect2_dropShadow_22_359"/>
<feBlend mode="normal" in="SourceGraphic" in2="effect2_dropShadow_22_359" result="shape"/>
</filter>
<linearGradient id="paint0_linear_22_359" x1="24.5871" y1="2.95474" x2="21.1842" y2="47.2792" gradientUnits="userSpaceOnUse">
<stop stop-color="#39AFFD"/>
<stop offset="1" stop-color="#477FFF"/>
</linearGradient>
<linearGradient id="paint1_linear_22_359" x1="10.6397" y1="27.371" x2="54.8615" y2="77.4239" gradientUnits="userSpaceOnUse">
<stop stop-color="white" stop-opacity="0.25"/>
<stop offset="1" stop-color="white" stop-opacity="0"/>
</linearGradient>
<linearGradient id="paint2_linear_22_359" x1="40.7764" y1="40.6097" x2="16.1212" y2="41.4461" gradientUnits="userSpaceOnUse">
<stop stop-color="white"/>
<stop offset="1" stop-color="white" stop-opacity="0.2"/>
</linearGradient>
<linearGradient id="paint3_linear_22_359" x1="22.5944" y1="43.9044" x2="41.3909" y2="44.0123" gradientUnits="userSpaceOnUse">
<stop stop-color="white"/>
<stop offset="1" stop-color="white" stop-opacity="0"/>
</linearGradient>
</defs>
</svg>
