<svg width="67" height="67" viewBox="0 0 67 67" fill="none" xmlns="http://www.w3.org/2000/svg">
<g filter="url(#filter0_b_22_315)">
<path fill-rule="evenodd" clip-rule="evenodd" d="M6.77878 18.9098C6.77878 26.1184 12.6776 31.8952 20.0385 31.8952C27.3968 31.8952 33.2983 26.1184 33.2983 18.9098C33.2983 11.7011 27.3968 5.92432 20.0385 5.92432C12.6776 5.92432 6.77878 11.7011 6.77878 18.9098ZM40.0781 46.5979C40.0781 39.9249 30.847 38.2553 20.0391 38.2553C9.17245 38.2553 -7.62939e-06 39.9824 -7.62939e-06 46.6606C-7.62939e-06 53.3336 9.23114 55.0031 20.0391 55.0031C30.9057 55.0031 40.0781 53.2761 40.0781 46.5979Z" fill="url(#paint0_linear_22_315)"/>
</g>
<g filter="url(#filter1_f_22_315)">
<path d="M24.3912 42.5352C30.9901 42.5352 36.6262 43.644 36.6262 48.0757C36.6262 52.5109 31.0259 53.6579 24.3912 53.6579C17.7924 53.6579 12.1562 52.5491 12.1562 48.1173C12.1562 43.6821 17.7565 42.5352 24.3912 42.5352Z" fill="#EF5641" fill-opacity="0.5"/>
</g>
<g filter="url(#filter2_f_22_315)">
<path d="M23.2789 25.4806C19.5741 25.4806 16.6053 22.5117 16.6053 18.8069C16.6053 15.1022 19.5741 12.1333 23.2789 12.1333C26.9823 12.1333 29.9525 15.1022 29.9525 18.8069C29.9525 22.5117 26.9823 25.4806 23.2789 25.4806Z" fill="#EF5641" fill-opacity="0.5"/>
</g>
<g filter="url(#filter3_b_22_315)">
<mask id="path-4-outside-1_22_315" maskUnits="userSpaceOnUse" x="12.0311" y="0" width="55" height="67" fill="black">
<rect fill="white" x="12.0311" width="55" height="67"/>
<path fill-rule="evenodd" clip-rule="evenodd" d="M22.3619 18.0297C22.3619 27.4833 30.0979 35.0593 39.7513 35.0593C49.4012 35.0593 57.1407 27.4833 57.1407 18.0297C57.1407 8.57597 49.4012 1 39.7513 1C30.0979 1 22.3619 8.57597 22.3619 18.0297ZM66.0311 54.3421C66.0311 45.5908 53.925 43.4013 39.751 43.4013C25.5001 43.4013 13.471 45.6662 13.471 54.4243C13.471 63.1756 25.5771 65.3651 39.751 65.3651C54.002 65.3651 66.0311 63.1002 66.0311 54.3421Z"/>
</mask>
<path fill-rule="evenodd" clip-rule="evenodd" d="M22.3619 18.0297C22.3619 27.4833 30.0979 35.0593 39.7513 35.0593C49.4012 35.0593 57.1407 27.4833 57.1407 18.0297C57.1407 8.57597 49.4012 1 39.7513 1C30.0979 1 22.3619 8.57597 22.3619 18.0297ZM66.0311 54.3421C66.0311 45.5908 53.925 43.4013 39.751 43.4013C25.5001 43.4013 13.471 45.6662 13.471 54.4243C13.471 63.1756 25.5771 65.3651 39.751 65.3651C54.002 65.3651 66.0311 63.1002 66.0311 54.3421Z" fill="#FFAC95" fill-opacity="0.4"/>
<path d="M39.7513 35.8008C29.7031 35.8008 21.6204 27.9074 21.6204 18.0297H23.1034C23.1034 27.0593 30.4927 34.3178 39.7513 34.3178V35.8008ZM57.8822 18.0297C57.8822 27.9075 49.7959 35.8008 39.7513 35.8008V34.3178C49.0065 34.3178 56.3992 27.0592 56.3992 18.0297H57.8822ZM39.7513 0.258486C49.7959 0.258486 57.8822 8.15181 57.8822 18.0297H56.3992C56.3992 9.00013 49.0065 1.74151 39.7513 1.74151V0.258486ZM21.6204 18.0297C21.6204 8.1519 29.7031 0.258486 39.7513 0.258486V1.74151C30.4927 1.74151 23.1034 9.00003 23.1034 18.0297H21.6204ZM39.751 42.6598C46.8543 42.6598 53.5267 43.2056 58.4463 44.8884C60.9104 45.7312 62.9887 46.877 64.4571 48.4315C65.9422 50.0036 66.7726 51.963 66.7726 54.3421H65.2896C65.2896 52.3456 64.6067 50.7495 63.379 49.4499C62.1346 48.1325 60.3005 47.09 57.9663 46.2916C53.2894 44.6918 46.8218 44.1428 39.751 44.1428V42.6598ZM12.7294 54.4243C12.7294 52.0453 13.5537 50.0809 15.0316 48.5007C16.4932 46.9378 18.564 45.7812 21.0239 44.928C25.9348 43.2246 32.6082 42.6598 39.751 42.6598V44.1428C32.643 44.1428 26.1763 44.7105 21.5099 46.3291C19.1811 47.1369 17.3539 48.1887 16.1148 49.5137C14.8918 50.8213 14.2125 52.4244 14.2125 54.4243H12.7294ZM39.751 66.1066C32.6478 66.1066 25.9754 65.5608 21.0558 63.8781C18.5917 63.0352 16.5134 61.8894 15.045 60.335C13.5598 58.7628 12.7294 56.8034 12.7294 54.4243H14.2125C14.2125 56.4209 14.8953 58.0169 16.123 59.3166C17.3675 60.6339 19.2015 61.6764 21.5357 62.4748C26.2127 64.0746 32.6803 64.6236 39.751 64.6236V66.1066ZM66.7726 54.3421C66.7726 56.7212 65.9483 58.6855 64.4705 60.2658C63.0088 61.8287 60.9381 62.9852 58.4782 63.8385C53.5672 65.5419 46.8939 66.1066 39.751 66.1066V64.6236C46.8591 64.6236 53.3258 64.0559 57.9922 62.4373C60.3209 61.6296 62.1482 60.5778 63.3873 59.2528C64.6103 57.9451 65.2896 56.3421 65.2896 54.3421H66.7726Z" fill="url(#paint1_linear_22_315)" mask="url(#path-4-outside-1_22_315)"/>
</g>
<defs>
<filter id="filter0_b_22_315" x="-9.63969" y="-3.71537" width="59.3575" height="68.358" filterUnits="userSpaceOnUse" color-interpolation-filters="sRGB">
<feFlood flood-opacity="0" result="BackgroundImageFix"/>
<feGaussianBlur in="BackgroundImage" stdDeviation="4.81984"/>
<feComposite in2="SourceAlpha" operator="in" result="effect1_backgroundBlur_22_315"/>
<feBlend mode="normal" in="SourceGraphic" in2="effect1_backgroundBlur_22_315" result="shape"/>
</filter>
<filter id="filter1_f_22_315" x="2.51656" y="32.8955" width="43.7493" height="30.4019" filterUnits="userSpaceOnUse" color-interpolation-filters="sRGB">
<feFlood flood-opacity="0" result="BackgroundImageFix"/>
<feBlend mode="normal" in="SourceGraphic" in2="BackgroundImageFix" result="shape"/>
<feGaussianBlur stdDeviation="4.81984" result="effect1_foregroundBlur_22_315"/>
</filter>
<filter id="filter2_f_22_315" x="5.48251" y="1.01058" width="35.5927" height="35.5926" filterUnits="userSpaceOnUse" color-interpolation-filters="sRGB">
<feFlood flood-opacity="0" result="BackgroundImageFix"/>
<feBlend mode="normal" in="SourceGraphic" in2="BackgroundImageFix" result="shape"/>
<feGaussianBlur stdDeviation="5.56136" result="effect1_foregroundBlur_22_315"/>
</filter>
<filter id="filter3_b_22_315" x="1.60678" y="-10.8644" width="76.2885" height="88.0936" filterUnits="userSpaceOnUse" color-interpolation-filters="sRGB">
<feFlood flood-opacity="0" result="BackgroundImageFix"/>
<feGaussianBlur in="BackgroundImage" stdDeviation="5.56136"/>
<feComposite in2="SourceAlpha" operator="in" result="effect1_backgroundBlur_22_315"/>
<feBlend mode="normal" in="SourceGraphic" in2="effect1_backgroundBlur_22_315" result="shape"/>
</filter>
<linearGradient id="paint0_linear_22_315" x1="17.0885" y1="33.7502" x2="54.7007" y2="48.6843" gradientUnits="userSpaceOnUse">
<stop stop-color="#FFA78F"/>
<stop offset="1" stop-color="#F23E2C"/>
</linearGradient>
<linearGradient id="paint1_linear_22_315" x1="57.6644" y1="8.49862" x2="15.666" y2="50.9747" gradientUnits="userSpaceOnUse">
<stop stop-color="white" stop-opacity="0.25"/>
<stop offset="1" stop-color="white" stop-opacity="0"/>
</linearGradient>
</defs>
</svg>
