<svg width="338" height="100" viewBox="0 0 338 100" fill="none" xmlns="http://www.w3.org/2000/svg">
<path d="M335.26 88.1942C335.26 89.4528 335.012 90.6991 334.53 91.8617C334.048 93.0244 333.342 94.0807 332.451 94.9702C331.56 95.8597 330.503 96.5649 329.339 97.0457C328.176 97.5264 326.929 97.7732 325.67 97.7719H11.8283C9.28457 97.7745 6.84395 96.767 5.04317 94.9709C3.24239 93.1748 2.2289 90.7373 2.22559 88.1942V11.8157C2.2289 9.27154 3.24199 6.83266 5.04241 5.0346C6.84283 3.23653 9.28342 2.22625 11.8283 2.22559H325.668C326.927 2.22559 328.175 2.47366 329.338 2.95564C330.502 3.43762 331.559 4.14406 332.45 5.03462C333.34 5.92518 334.047 6.98241 334.529 8.14593C335.01 9.30944 335.258 10.5564 335.258 11.8157L335.26 88.1942Z" fill="white"/>
<path d="M325.671 100H11.8289C8.69534 99.9993 5.69003 98.756 3.4724 96.5427C1.25477 94.3294 0.00596229 91.327 0 88.1943L0 11.8183C0.00463563 8.68398 1.25262 5.67952 3.47017 3.46395C5.68773 1.24839 8.69378 0.00264544 11.8289 0L325.668 0C328.803 0.00396546 331.808 1.25013 334.026 3.46541C336.243 5.68069 337.491 8.68439 337.497 11.8183V88.1943C337.502 94.7061 332.187 100 325.671 100Z" fill="#A6A6A6"/>
<path d="M335.26 88.1942C335.26 89.4528 335.012 90.6991 334.53 91.8617C334.048 93.0244 333.342 94.0807 332.451 94.9702C331.56 95.8597 330.503 96.5649 329.339 97.0457C328.176 97.5264 326.929 97.7732 325.67 97.7719H11.8283C9.28457 97.7745 6.84395 96.767 5.04317 94.9709C3.24239 93.1748 2.2289 90.7373 2.22559 88.1942V11.8157C2.2289 9.27154 3.24199 6.83266 5.04241 5.0346C6.84283 3.23653 9.28342 2.22625 11.8283 2.22559H325.668C326.927 2.22559 328.175 2.47366 329.338 2.95564C330.502 3.43762 331.559 4.14406 332.45 5.03462C333.34 5.92518 334.047 6.98241 334.529 8.14593C335.01 9.30944 335.258 10.5564 335.258 11.8157L335.26 88.1942Z" fill="black"/>
<path d="M75.3607 49.4736C75.2882 41.4139 81.9618 37.4928 82.2669 37.3102C78.4874 31.8012 72.6292 31.0485 70.5706 30.9885C65.6505 30.4709 60.8779 33.9318 58.3715 33.9318C55.8152 33.9318 51.9556 31.0385 47.7958 31.1235C42.4429 31.2061 37.4352 34.3044 34.6888 39.1157C29.0207 48.9259 33.248 63.3424 38.6784 71.2721C41.3949 75.1581 44.5691 79.4918 48.7238 79.3393C52.7885 79.1742 54.3069 76.7511 59.212 76.7511C64.0721 76.7511 65.4979 79.3393 69.7352 79.2418C74.0975 79.1743 76.844 75.3407 79.4654 71.4221C82.6046 66.9734 83.8653 62.5872 83.9153 62.3621C83.8153 62.3271 75.4458 59.1312 75.3607 49.4736ZM67.3564 25.7721C69.5426 23.0388 71.0384 19.3203 70.6232 15.5468C67.459 15.6868 63.5018 17.7349 61.2231 20.4081C59.207 22.7637 57.406 26.6248 57.8713 30.2558C61.4257 30.5209 65.0752 28.4628 67.3564 25.7721Z" fill="white"/>
<path d="M325.671 0H157.567L223.41 100H325.671C328.805 99.9974 331.81 98.7523 334.028 96.5378C336.245 94.3233 337.494 91.3202 337.5 88.1868V11.8183C337.494 8.68418 336.246 5.6801 334.029 3.46468C331.811 1.24926 328.806 0.0033057 325.671 0V0Z" fill="url(#paint0_linear_140_2461)"/>
<path d="M134.235 78.7817H128.555L125.443 69.0065H114.627L111.663 78.7817H106.133L116.851 45.5025H123.47L134.235 78.7817ZM124.505 64.9054L121.691 56.2155C121.394 55.3277 120.833 53.2371 120.013 49.9462H119.913C119.583 51.3616 119.055 53.4522 118.332 56.2155L115.565 64.9054H124.505ZM161.745 66.4883C161.745 70.5694 160.637 73.7953 158.419 76.1635C156.432 78.2715 153.964 79.3243 151.02 79.3243C147.84 79.3243 145.554 78.1915 144.166 75.9209V88.5119H138.833V62.6722C138.833 60.109 138.765 57.4808 138.635 54.7851H143.325L143.623 58.5886H143.723C145.502 55.7228 148.201 54.2899 151.822 54.2899C154.654 54.2899 157.018 55.4077 158.909 57.6459C160.797 59.889 161.745 62.8348 161.745 66.4883ZM156.312 66.6833C156.312 64.3477 155.787 62.4222 154.732 60.9043C153.578 59.3263 152.03 58.5361 150.089 58.5361C148.773 58.5361 147.578 58.9762 146.51 59.844C145.439 60.7192 144.739 61.862 144.411 63.2774C144.265 63.8067 144.182 64.3515 144.163 64.9004V68.904C144.163 70.6469 144.699 72.1198 145.769 73.3252C146.84 74.5255 148.231 75.1282 149.941 75.1282C151.95 75.1282 153.513 74.3505 154.631 72.8075C155.752 71.2596 156.312 69.219 156.312 66.6833ZM189.353 66.4883C189.353 70.5694 188.245 73.7953 186.026 76.1635C184.037 78.2715 181.571 79.3243 178.624 79.3243C175.445 79.3243 173.159 78.1915 171.771 75.9209V88.5119H166.438V62.6722C166.438 60.109 166.37 57.4808 166.24 54.7851H170.93L171.228 58.5886H171.328C173.104 55.7228 175.803 54.2899 179.427 54.2899C182.256 54.2899 184.62 55.4077 186.516 57.6459C188.402 59.889 189.353 62.8348 189.353 66.4883ZM183.917 66.6833C183.917 64.3477 183.39 62.4222 182.334 60.9043C181.181 59.3263 179.637 58.5361 177.696 58.5361C176.381 58.5361 175.185 58.9762 174.112 59.844C173.041 60.7192 172.344 61.862 172.016 63.2774C171.853 63.9376 171.766 64.4752 171.766 64.9004V68.904C171.766 70.6469 172.304 72.1198 173.369 73.3252C174.44 74.523 175.83 75.1282 177.546 75.1282C179.557 75.1282 181.121 74.3505 182.236 72.8075C183.357 71.2596 183.917 69.219 183.917 66.6833ZM220.219 69.4466C220.219 72.2799 219.229 74.583 217.26 76.361C215.094 78.3015 212.07 79.2743 208.193 79.2743C204.611 79.2743 201.739 78.5841 199.573 77.2012L200.806 72.7575C203.145 74.1429 205.714 74.8331 208.511 74.8331C210.522 74.8331 212.085 74.378 213.201 73.4752C214.319 72.57 214.884 71.3596 214.884 69.8492C214.884 68.4963 214.416 67.3635 213.498 66.4408C212.575 65.5205 211.049 64.6628 208.906 63.8751C203.078 61.702 200.161 58.5236 200.161 54.3425C200.161 51.6117 201.192 49.3761 203.248 47.6281C205.304 45.8826 208.03 45.0099 211.422 45.0099C214.451 45.0099 216.975 45.5375 218.979 46.5903L217.641 50.9365C215.754 49.9162 213.626 49.4061 211.245 49.4061C209.364 49.4061 207.888 49.8687 206.832 50.789C205.944 51.6117 205.494 52.6145 205.494 53.8048C205.494 55.1177 206.007 56.208 207.027 57.0632C207.913 57.8509 209.529 58.7087 211.865 59.6289C214.731 60.7842 216.838 62.1296 218.186 63.675C219.544 65.2204 220.219 67.1485 220.219 69.4466ZM237.896 58.7862H232.018V70.4369C232.018 73.4002 233.054 74.8781 235.13 74.8781C236.083 74.8781 236.873 74.7981 237.499 74.6305L237.646 78.6791C236.596 79.0718 235.212 79.2693 233.499 79.2693C231.393 79.2693 229.747 78.6266 228.559 77.3413C227.376 76.0559 226.78 73.9028 226.78 70.872V58.7762H223.279V54.7751H226.78V50.3814L232.018 48.8009V54.7751H237.896V58.7862ZM264.366 66.5858C264.366 70.2743 263.31 73.3027 261.204 75.6708C259 78.109 256.069 79.3243 252.414 79.3243C248.887 79.3243 246.083 78.1565 243.992 75.8234C241.901 73.4852 240.856 70.5394 240.856 66.9859C240.856 63.2674 241.936 60.2216 244.09 57.8534C246.248 55.4828 249.155 54.2974 252.809 54.2974C256.331 54.2974 259.16 55.4678 261.302 57.8034C263.348 60.069 264.366 62.9948 264.366 66.5858ZM258.838 66.7084C258.838 64.5103 258.362 62.6247 257.409 61.0468C256.291 59.1413 254.69 58.1885 252.617 58.1885C250.481 58.1885 248.842 59.1413 247.727 61.0468C246.771 62.6247 246.296 64.5428 246.296 66.8084C246.296 69.009 246.771 70.8995 247.727 72.4724C248.88 74.378 250.488 75.3307 252.572 75.3307C254.61 75.3307 256.209 74.358 257.364 72.4249C258.345 70.8095 258.838 68.9115 258.838 66.7084ZM281.708 59.4739C281.153 59.3738 280.59 59.3244 280.027 59.3263C278.151 59.3263 276.7 60.0315 275.679 61.4519C274.794 62.7023 274.349 64.2827 274.349 66.1907V78.7817H269.016V62.3422C269.02 59.8231 268.969 57.3043 268.861 54.7876H273.506L273.701 59.3788H273.848C274.414 57.8009 275.299 56.5281 276.515 55.5753C277.628 54.7428 278.98 54.2919 280.369 54.2899C280.862 54.2899 281.307 54.325 281.703 54.3875L281.708 59.4739ZM305.558 65.6481C305.571 66.4585 305.506 67.2684 305.363 68.0662H289.364C289.424 70.4369 290.2 72.2524 291.685 73.5027C293.034 74.618 294.777 75.1782 296.918 75.1782C299.287 75.1782 301.448 74.8031 303.392 74.0454L304.227 77.7439C301.956 78.7342 299.275 79.2268 296.18 79.2268C292.458 79.2268 289.537 78.1315 287.411 75.9459C285.29 73.7578 284.226 70.817 284.226 67.1335C284.226 63.5175 285.214 60.5041 287.193 58.101C289.264 55.5353 292.063 54.2524 295.585 54.2524C299.044 54.2524 301.663 55.5353 303.442 58.101C304.85 60.134 305.558 62.6547 305.558 65.6481ZM300.473 64.2652C300.51 62.6822 300.16 61.3194 299.437 60.1666C298.514 58.6811 297.093 57.9409 295.19 57.9409C293.446 57.9409 292.026 58.6636 290.945 60.114C290.057 61.2669 289.529 62.6522 289.367 64.2602L300.473 64.2652Z" fill="white"/>
<path d="M113.089 33.7368C111.606 33.7368 110.323 33.6643 109.255 33.5417V17.4523C110.749 17.2216 112.258 17.1079 113.77 17.1122C119.886 17.1122 122.702 20.1206 122.702 25.0244C122.702 30.681 119.375 33.7368 113.089 33.7368ZM113.985 19.1753C113.159 19.1753 112.457 19.2253 111.874 19.3453V31.5762C112.189 31.6262 112.794 31.6487 113.645 31.6487C117.652 31.6487 119.933 29.3681 119.933 25.0969C119.933 21.2884 117.87 19.1753 113.985 19.1753ZM131.479 33.8593C128.033 33.8593 125.799 31.2861 125.799 27.7927C125.799 24.1517 128.08 21.5559 131.674 21.5559C135.071 21.5559 137.355 24.0066 137.355 27.6001C137.355 31.2861 135.001 33.8593 131.479 33.8593ZM131.579 23.4715C129.686 23.4715 128.473 25.242 128.473 27.7176C128.473 30.1458 129.711 31.9163 131.554 31.9163C133.398 31.9163 134.636 30.0233 134.636 27.6676C134.636 25.267 133.423 23.4715 131.579 23.4715ZM157.011 21.7985L153.321 33.5918H150.917L149.389 28.4703C149.009 27.2176 148.693 25.9465 148.441 24.6618H148.391C148.198 25.9472 147.833 27.235 147.445 28.4703L145.82 33.5918H143.391L139.919 21.7985H142.613L143.949 27.4051C144.264 28.7404 144.529 30.0008 144.749 31.1911H144.799C144.992 30.1983 145.307 28.958 145.77 27.4301L147.445 21.801H149.582L151.185 27.31C151.573 28.6454 151.888 29.9558 152.133 31.1936H152.203C152.373 29.9808 152.641 28.6929 153.003 27.31L154.437 21.801L157.011 21.7985ZM170.593 33.5918H167.972V26.8199C167.972 24.7343 167.171 23.689 165.593 23.689C164.039 23.689 162.971 25.0244 162.971 26.5773V33.5918H160.35V25.1694C160.35 24.1267 160.325 23.0088 160.252 21.796H162.559L162.681 23.6165H162.754C163.459 22.3562 164.89 21.5559 166.493 21.5559C168.97 21.5559 170.595 23.449 170.595 26.5298L170.593 33.5918ZM177.822 33.5918H175.198V16.387H177.822V33.5918ZM187.38 33.8593C183.935 33.8593 181.699 31.2861 181.699 27.7927C181.699 24.1517 183.98 21.5559 187.572 21.5559C190.971 21.5559 193.253 24.0066 193.253 27.6001C193.255 31.2861 190.899 33.8593 187.38 33.8593ZM187.477 23.4715C185.584 23.4715 184.37 25.242 184.37 27.7176C184.37 30.1458 185.611 31.9163 187.45 31.9163C189.296 31.9163 190.531 30.0233 190.531 27.6676C190.534 25.267 189.323 23.4715 187.477 23.4715ZM203.588 33.5918L203.398 32.2339H203.328C202.528 33.3267 201.36 33.8593 199.879 33.8593C197.765 33.8593 196.264 32.3789 196.264 30.3884C196.264 27.4776 198.788 25.9722 203.158 25.9722V25.7546C203.158 24.2017 202.335 23.424 200.709 23.424C199.546 23.424 198.526 23.7165 197.628 24.2992L197.095 22.5762C198.185 21.896 199.546 21.5559 201.144 21.5559C204.226 21.5559 205.782 23.1814 205.782 26.4348V30.7785C205.782 31.9688 205.834 32.8916 205.952 33.5943L203.588 33.5918ZM203.228 27.7176C200.317 27.7176 198.856 28.4228 198.856 30.0958C198.856 31.3336 199.609 31.9388 200.654 31.9388C201.987 31.9388 203.228 30.921 203.228 29.5381V27.7176ZM218.511 33.5918L218.389 31.6987H218.316C217.563 33.1291 216.298 33.8593 214.529 33.8593C211.685 33.8593 209.579 31.3586 209.579 27.8402C209.579 24.1517 211.763 21.5534 214.744 21.5534C216.323 21.5534 217.441 22.0861 218.071 23.1564H218.124V16.387H220.748V30.4134C220.748 31.5537 220.775 32.6215 220.845 33.5918H218.511ZM218.124 26.6523C218.124 25.0019 217.031 23.594 215.362 23.594C213.419 23.594 212.23 25.317 212.23 27.7426C212.23 30.1208 213.464 31.7487 215.31 31.7487C216.958 31.7487 218.124 30.3159 218.124 28.6179V26.6523ZM237.384 33.8593C233.94 33.8593 231.706 31.2861 231.706 27.7927C231.706 24.1517 233.987 21.5559 237.579 21.5559C240.978 21.5559 243.26 24.0066 243.26 27.6001C243.262 31.2861 240.908 33.8593 237.384 33.8593ZM237.482 23.4715C235.591 23.4715 234.377 25.242 234.377 27.7176C234.377 30.1458 235.616 31.9163 237.457 31.9163C239.303 31.9163 240.538 30.0233 240.538 27.6676C240.543 25.267 239.33 23.4715 237.482 23.4715ZM257.357 33.5918H254.733V26.8199C254.733 24.7343 253.933 23.689 252.355 23.689C250.801 23.689 249.736 25.0244 249.736 26.5773V33.5918H247.112V25.1694C247.112 24.1267 247.087 23.0088 247.014 21.796H249.32L249.443 23.6165H249.516C250.218 22.3562 251.652 21.5534 253.253 21.5534C255.729 21.5534 257.357 23.4465 257.357 26.5273V33.5918ZM274.994 23.7641H272.11V29.4906C272.11 30.9485 272.616 31.6762 273.636 31.6762C274.099 31.6762 274.487 31.6262 274.799 31.5537L274.872 33.5442C274.364 33.7393 273.684 33.8368 272.838 33.8368C270.772 33.8368 269.536 32.6965 269.536 29.7107V23.7641H267.815V21.7985H269.536V19.6379L272.11 18.8602V21.796H274.994V23.7641ZM288.872 33.5918H286.253V26.8699C286.253 24.7593 285.455 23.6915 283.874 23.6915C282.516 23.6915 281.25 24.6143 281.25 26.4823V33.5918H278.631V16.387H281.25V23.4715H281.303C282.128 22.1861 283.324 21.5534 284.85 21.5534C287.346 21.5534 288.872 23.494 288.872 26.5773V33.5918ZM303.089 28.3253H295.223C295.273 30.5584 296.751 31.8188 298.94 31.8188C300.103 31.8188 301.173 31.6237 302.119 31.2611L302.527 33.0816C301.411 33.5667 300.098 33.8093 298.57 33.8093C294.88 33.8093 292.696 31.4787 292.696 27.8652C292.696 24.2492 294.933 21.5309 298.274 21.5309C301.289 21.5309 303.18 23.7641 303.18 27.1375C303.196 27.5356 303.166 27.9343 303.089 28.3253ZM300.686 26.4573C300.686 24.6368 299.768 23.3514 298.092 23.3514C296.586 23.3514 295.395 24.6618 295.225 26.4573H300.686Z" fill="white"/>
<defs>
<linearGradient id="paint0_linear_140_2461" x1="247.531" y1="100.266" x2="247.531" y2="-260.383" gradientUnits="userSpaceOnUse">
<stop stop-color="#1A1A1A" stop-opacity="0.1"/>
<stop offset="0.123" stop-color="#212121" stop-opacity="0.151"/>
<stop offset="0.308" stop-color="#353535" stop-opacity="0.227"/>
<stop offset="0.532" stop-color="#575757" stop-opacity="0.318"/>
<stop offset="0.783" stop-color="#858585" stop-opacity="0.421"/>
<stop offset="1" stop-color="#B3B3B3" stop-opacity="0.51"/>
</linearGradient>
</defs>
</svg>
