<svg width="440" height="100" viewBox="0 0 440 100" fill="none" xmlns="http://www.w3.org/2000/svg">
<path fill-rule="evenodd" clip-rule="evenodd" d="M29.6797 33.4917C30.2557 33.0529 30.914 32.7511 31.6546 32.5043C31.8741 32.422 32.0935 32.3671 32.3404 32.2848C32.5598 31.9008 32.7518 31.5442 32.9713 31.1602C35.7417 26.3326 38.9784 21.6421 42.7637 17.4728C42.7637 17.1162 42.7637 16.787 42.7363 16.403C42.654 13.8246 42.8185 9.90217 44.0255 7.54321C41.9957 8.58554 38.8961 8.22896 36.2903 9.7376C33.465 11.356 28.1985 15.9916 27.3482 19.1734C26.251 23.2604 29.2408 27.8412 29.8443 29.871C29.954 30.255 29.954 32.6414 29.7071 33.4917H29.6797Z" fill="url(#paint0_linear_140_100)"/>
<path style="mix-blend-mode:screen" fill-rule="evenodd" clip-rule="evenodd" d="M29.6513 15.3608C29.761 17.1986 30.4467 19.393 32.0925 21.4228C31.4342 19.8044 30.9953 17.9118 31.9279 16.1837C32.0651 18.1586 33.1349 19.585 34.5063 21.4776C34.4515 23.2057 34.6161 24.5772 34.1772 26.223C31.0228 23.5348 28.9107 22.0536 27.8135 17.9118C28.2524 17.0889 28.8832 16.2111 29.6238 15.3334L29.6513 15.3608Z" fill="url(#paint1_linear_140_100)"/>
<path style="mix-blend-mode:multiply" opacity="0.5" fill-rule="evenodd" clip-rule="evenodd" d="M34.4799 26.0583C34.8365 23.8639 34.5896 21.5873 34.8365 19.3655C35.5222 13.2486 40.6242 9.79249 44.0254 7.57068C42.846 9.92964 42.654 13.8521 42.7362 16.4305C42.7362 16.7871 42.7362 17.1436 42.7637 17.5002C39.0058 21.697 35.7417 26.3875 32.9713 31.1877C32.7518 31.5443 32.5598 31.9283 32.3404 32.3123C32.0935 32.3946 31.8741 32.4494 31.6546 32.5317C30.914 32.7786 30.2557 33.0803 29.6797 33.5192C32.0386 31.27 33.9313 29.4048 34.4525 26.0858L34.4799 26.0583Z" fill="url(#paint2_linear_140_100)"/>
<path fill-rule="evenodd" clip-rule="evenodd" d="M29.7887 26.5246C31.1876 27.8413 32.9706 28.335 34.7535 28.2253C34.15 29.1853 33.5466 30.1728 32.998 31.1603C32.7785 31.5169 32.5865 31.9009 32.3671 32.2849C32.1202 32.3672 31.9008 32.422 31.6813 32.5043C30.9407 32.7512 30.2824 33.0529 29.7064 33.4918C29.9533 32.6415 29.9533 30.2551 29.8436 29.8711C29.3224 28.1704 27.128 24.632 27.1006 21.121C27.3749 23.1508 27.9783 24.7966 29.8161 26.5246H29.7887Z" fill="#6F963F"/>
<path style="mix-blend-mode:screen" fill-rule="evenodd" clip-rule="evenodd" d="M42.7066 14.7572C42.5421 13.3857 42.4598 11.6028 41.774 10.4782C40.7317 8.75012 37.8242 9.54559 36.3704 10.2039C34.7246 10.9445 33.3531 11.9868 31.9268 13.0292C33.4628 11.6302 35.0812 10.4233 36.2607 9.7376C38.8939 8.25639 41.966 8.58554 43.9958 7.54321C43.0358 9.43586 42.7341 12.3434 42.7066 14.7298V14.7572Z" fill="url(#paint3_linear_140_100)"/>
<path fill-rule="evenodd" clip-rule="evenodd" d="M43.9964 7.54321C38.4556 10.9445 35.3012 14.4281 34.4234 19.2831C33.1342 16.2659 32.9971 14.8944 34.0943 11.4931L33.5457 12.7C32.6405 15.2235 33.244 17.3356 34.1766 19.6672C34.2863 19.914 34.2863 20.3255 34.2314 21.1484C34.1217 23.3153 34.1217 24.7417 34.0943 25.8388C31.1319 23.7542 29.5409 22.1907 28.0049 18.7071C29.0472 22.0535 30.885 23.9462 33.5183 25.9211C33.8748 26.1954 34.0668 26.6069 33.9846 27.0732C33.9846 27.1281 33.9846 27.2103 33.9571 27.2652C33.6828 28.9658 32.6679 30.3922 29.6507 33.5192C32.0371 31.6814 33.5183 30.0082 34.204 28.4995C34.3411 28.1978 34.588 28.0058 34.9172 27.9509C34.9995 27.8138 35.1092 27.6766 35.1915 27.5121C34.9995 27.5395 34.78 27.5669 34.5606 27.5943C34.8897 26.4149 34.8075 25.1531 34.7526 23.617C38.2636 22.6021 40.0465 20.5449 41.5552 17.2533C42.0489 16.1836 42.1861 15.6898 42.4055 14.5927C42.0763 15.5527 41.8295 16.2659 41.3906 17.1711C39.8271 20.298 38.1265 22.273 34.7526 23.2056C34.7252 21.8341 34.7526 20.2432 35.1092 18.3231C36.1515 13.0017 40.5403 10.0393 43.9964 7.59806V7.54321Z" fill="url(#paint4_linear_140_100)"/>
<path fill-rule="evenodd" clip-rule="evenodd" d="M20.3801 50.553C18.0212 49.2364 15.8817 47.2066 14.6748 44.7105C12.3707 39.9103 11.1638 35.549 11.2735 31.2973C12.2335 32.6414 13.2484 33.6014 14.7845 34.6986C13.4953 33.2997 12.1512 31.0505 11.4106 29.3498C11.4106 29.2127 11.4381 29.0755 11.4655 28.9384C12.2609 23.2879 16.2931 14.4006 16.8966 10.0667C19.6395 13.4954 23.3974 16.5676 26.881 19.914C27.4022 20.4077 27.9233 20.9289 28.4445 21.4501C28.2525 22.273 27.9782 23.1507 27.8136 23.8913C27.6216 24.7142 28.1976 24.6868 28.7462 24.2205C29.1851 23.8639 29.5691 23.3427 29.8434 22.8764C31.5166 24.6593 33.1624 26.552 34.5339 28.5269C33.9853 29.4047 33.4641 30.2824 32.9704 31.1602C29.7337 36.8107 26.7987 43.147 25.0432 49.401L24.9609 49.7301L25.0432 50.0593C25.2352 50.7176 25.4272 51.3485 25.6192 52.0068C23.6991 51.7325 21.7791 51.3485 20.3527 50.553H20.3801Z" fill="url(#paint5_linear_140_100)"/>
<path style="mix-blend-mode:multiply" opacity="0.5" fill-rule="evenodd" clip-rule="evenodd" d="M24.33 39.4714C19.9138 29.7338 18.7069 20.49 16.8966 10.0667C16.2657 14.4006 12.2609 23.2879 11.4655 28.9384C11.4655 29.0755 11.4381 29.2127 11.4106 29.3498C12.1512 31.0505 13.4953 33.2997 14.7845 34.6986C13.2484 33.6014 12.2335 32.614 11.2735 31.2973C11.1638 35.549 12.3707 39.9103 14.6748 44.7105C15.8542 47.2066 18.0212 49.2364 20.3801 50.553C21.8065 51.3485 23.6991 51.7325 25.6467 52.0068C25.4546 51.3485 25.2352 50.7176 25.0706 50.0593L24.9883 49.7301L25.0706 49.401C25.5644 47.6729 26.1404 45.9174 26.7713 44.1893C25.921 42.7355 25.1255 41.172 24.33 39.4714Z" fill="url(#paint6_linear_140_100)"/>
<path style="mix-blend-mode:screen" fill-rule="evenodd" clip-rule="evenodd" d="M14.9774 19.3928C16.0198 16.9241 17.3638 14.7023 18.7079 14.5926C20.5182 14.4829 23.8372 17.171 26.1962 19.2283C22.9046 16.1287 19.4759 13.2486 16.8975 10.0667C16.2666 14.4006 12.2619 23.2879 11.4664 28.9384C11.4664 29.0755 11.439 29.2127 11.4116 29.3498C11.5213 29.6241 11.6584 29.8984 11.7956 30.2001C12.3442 26.4971 13.4962 22.8764 14.95 19.4203L14.9774 19.3928ZM11.2744 31.2699C11.2744 32.3122 11.3018 33.382 11.439 34.4517C11.439 33.5466 11.5213 32.6414 11.6036 31.7088C11.4939 31.5716 11.3841 31.4071 11.2744 31.2699Z" fill="url(#paint7_linear_140_100)"/>
<path style="mix-blend-mode:screen" fill-rule="evenodd" clip-rule="evenodd" d="M21.8873 33.382C25.1515 29.3498 27.0441 25.9485 28.0865 21.0386C27.7025 20.6546 27.3184 20.2706 26.907 19.914C26.2212 19.2557 25.5355 18.6248 24.8498 17.9939C25.3984 23.041 22.6005 28.9932 21.0645 30.7762C21.3113 31.6539 21.5856 32.5317 21.8599 33.382H21.8873Z" fill="url(#paint8_linear_140_100)"/>
<path style="mix-blend-mode:screen" fill-rule="evenodd" clip-rule="evenodd" d="M31.462 24.6045C29.2402 28.8561 25.2628 32.806 22.4102 34.8358C23.3702 37.3319 24.5222 39.7732 25.7566 42.1596C26.8538 41.4464 27.8687 40.4863 28.7464 39.3617C30.0356 36.5365 31.462 33.7661 32.9706 31.1602L33.0803 30.9682C33.4643 29.8436 33.7661 28.7738 34.0129 27.7589C33.2175 26.6618 32.3397 25.6194 31.4345 24.5771L31.462 24.6045Z" fill="url(#paint9_linear_140_100)"/>
<path style="mix-blend-mode:multiply" fill-rule="evenodd" clip-rule="evenodd" d="M26.1664 45.8899C21.1742 47.1242 15.0848 44.5184 11.7109 36.1523C12.2321 38.8953 13.247 41.6931 14.6733 44.7104C15.8528 47.2065 18.0198 49.2363 20.3787 50.5529C21.8051 51.3484 23.6977 51.7324 25.6452 52.0067C25.4532 51.3484 25.2338 50.7175 25.0692 50.0592L24.9869 49.73L25.0692 49.4009C25.3984 48.2214 25.755 47.0419 26.1664 45.8625V45.8899ZM34.5599 28.5543C33.545 27.1005 32.393 25.6742 31.1586 24.3027C32.4204 26.4422 33.2707 27.9508 33.737 29.8709C34.0113 29.432 34.2582 28.9932 34.5325 28.5543H34.5599Z" fill="url(#paint10_linear_140_100)"/>
<path fill-rule="evenodd" clip-rule="evenodd" d="M16.9235 10.0668C18.1578 17.0889 19.3099 23.5348 21.3397 30.0357C23.5889 26.1132 24.6313 23.9189 24.933 19.1187C25.2896 23.9189 23.7261 26.8813 21.614 30.9409C22.766 34.4793 24.165 38.0452 26.0028 41.7208C27.0451 41.1447 28.0874 40.075 29.0475 38.7583C28.6634 39.6087 28.2794 40.459 27.9228 41.3093C27.4291 41.8031 26.9354 42.2145 26.4142 42.5162C26.6062 42.8728 26.7982 43.2294 26.9902 43.586C26.8531 43.9151 26.7159 44.2717 26.6062 44.6283C26.2222 43.97 25.8382 43.3117 25.4816 42.6534C24.7684 41.3916 24.1375 40.1573 23.5889 38.9229C23.4244 38.5389 23.0952 38.2921 22.6838 38.2098C18.487 37.3869 14.5097 35.3845 12.041 32.2575C15.1954 35.1102 18.6516 36.8383 22.9581 37.4417C21.6689 34.397 20.7362 31.3798 19.9682 28.3076C19.8311 27.7316 19.5568 27.2927 19.1453 26.8813C17.1155 24.9612 15.7166 23.48 14.6194 20.7919C16.4572 23.4526 17.2252 24.3852 19.5568 26.4424C18.4321 21.2308 17.7738 15.8545 16.9509 10.0394L16.9235 10.0668ZM33.1071 30.9683C33.4088 30.1454 33.6557 29.3774 33.8202 28.7465C33.7928 29.158 33.7105 29.5968 33.6282 30.0906C33.4636 30.3923 33.2716 30.6666 33.1071 30.9683ZM26.085 46.1095C21.9431 46.3015 17.8013 45.4786 14.592 43.0923C17.9933 44.9849 21.9431 45.8627 26.3045 45.5061C26.2222 45.6981 26.1673 45.8901 26.085 46.1095Z" fill="url(#paint11_linear_140_100)"/>
<path fill-rule="evenodd" clip-rule="evenodd" d="M35.8221 72.9357C32.8322 73.1277 27.3188 76.2273 24.5484 76.2547C17.307 76.3095 11.1079 71.6465 6.63683 66.2703C8.3649 67.0383 10.1478 66.9286 11.9856 66.6268C9.70895 66.2154 6.08823 64.7067 4.27787 62.869C1.64461 58.2608 -0.0286047 52.0891 0.0536845 47.234C0.108544 43.2841 0.68457 39.2794 0.327983 35.6861C2.02863 38.4016 3.7567 39.9926 6.0608 41.1446C7.45971 42.5435 8.11803 43.5859 9.32494 45.4511C9.46209 44.1344 9.35237 43.3115 9.13293 42.3789C11.6565 43.2018 14.7835 43.8876 18.8705 44.9573C21.202 45.5608 23.5884 46.0271 25.8925 46.7128C25.5908 47.618 25.3165 48.5232 25.0696 49.4284L24.9873 49.7575L25.0696 50.0867C26.9074 56.6698 30.0618 63.3627 33.5454 69.2601C34.286 70.4944 35.054 71.7288 35.8495 72.9631L35.8221 72.9357Z" fill="url(#paint12_linear_140_100)"/>
<path style="mix-blend-mode:multiply" opacity="0.5" fill-rule="evenodd" clip-rule="evenodd" d="M6.63818 66.2703C11.1092 71.6465 17.3083 76.2821 24.5498 76.2547C27.3202 76.2547 32.8336 73.1277 35.8234 72.9357C35.4943 72.4145 35.1377 71.8933 34.8085 71.3722C28.9934 65.9411 20.2433 65.5022 11.9321 57.383C5.67814 51.2936 1.42653 43.2018 0.32934 35.6861C0.685926 39.3068 0.109901 43.3116 0.0550412 47.234C0.000181708 52.0891 1.64597 58.2608 4.27922 62.869C6.08959 64.7067 9.73774 66.2154 11.987 66.6268C10.1492 66.9286 8.36626 67.0383 6.63818 66.2703Z" fill="url(#paint13_linear_140_100)"/>
<path style="mix-blend-mode:multiply" opacity="0.5" fill-rule="evenodd" clip-rule="evenodd" d="M28.4982 68.7938C22.7928 73.2923 13.9878 71.7837 8.83105 68.7116C13.0552 72.9906 18.4315 76.3096 24.5483 76.2547C27.3187 76.2547 32.8321 73.1277 35.8219 72.9357C35.0265 71.7288 34.2584 70.4945 33.5178 69.2327C32.8321 68.0532 32.1463 66.8463 31.4606 65.5846C30.72 66.7092 29.7325 67.7789 28.4707 68.7664L28.4982 68.7938ZM25.8923 46.7129C25.234 46.5209 24.5757 46.3289 23.89 46.1643C24.5209 46.4386 25.1517 46.7678 25.7552 47.1243C25.8101 46.9872 25.8375 46.85 25.8923 46.7129Z" fill="url(#paint14_linear_140_100)"/>
<path style="mix-blend-mode:screen" fill-rule="evenodd" clip-rule="evenodd" d="M23.3144 53.7075C22.7933 51.1565 20.8183 47.4261 18.2399 44.7928C17.5268 44.6008 16.8136 44.4362 16.1553 44.2717C17.9382 46.1917 18.8434 48.1393 19.7486 50.7999C21.4492 55.7099 20.6812 58.5351 19.968 63.5548C20.928 64.0759 21.8881 64.5423 22.7933 64.9811C23.8082 60.8667 23.9453 57.0265 23.287 53.7075H23.3144Z" fill="url(#paint15_linear_140_100)"/>
<path style="mix-blend-mode:screen" fill-rule="evenodd" clip-rule="evenodd" d="M6.06197 56.1212C4.3339 53.5977 2.08466 49.8124 1.2892 46.8774C0.932609 45.5059 0.384016 42.1321 1.59092 41.0075C1.97494 40.6509 2.52353 40.5137 3.319 40.7332C5.40366 41.2818 7.43346 43.4213 8.88723 44.8476C7.89976 43.339 7.24145 42.3789 6.00711 41.1446C3.70301 39.9926 1.94751 38.4016 0.274293 35.6861C0.63088 39.3068 0.0548595 43.3116 0 47.234C0 47.3437 0 47.4535 0 47.5632C0.987471 51.0742 2.82526 52.8571 6.03454 56.1212H6.06197Z" fill="url(#paint16_linear_140_100)"/>
<path style="mix-blend-mode:screen" fill-rule="evenodd" clip-rule="evenodd" d="M24.0547 65.5297C25.2342 66.0234 26.3862 66.4897 27.5383 67.0109C27.7851 65.9137 28.4983 62.4301 28.4983 59.5226C27.7851 57.9042 27.1268 56.2858 26.5234 54.6401C26.5234 54.6126 26.4685 54.5852 26.4411 54.5303C25.7005 53.5429 25.289 52.3908 24.4113 51.4308C25.7279 56.1213 25.4262 60.1534 24.0547 65.5022V65.5297Z" fill="url(#paint17_linear_140_100)"/>
<path fill-rule="evenodd" clip-rule="evenodd" d="M0.302734 35.6586C1.53707 42.5709 4.99322 49.7849 11.0278 56.0115C11.9055 50.6901 10.0129 45.9722 6.85845 41.9126C10.4517 46.1368 12.5913 50.9918 11.6312 56.6149C13.2496 58.2333 15.0599 59.7968 17.0623 61.2506C17.9401 61.9089 18.8727 62.4849 19.8327 63.0335C21.0122 54.7223 19.9424 50.1689 16.596 44.5458C19.147 47.5631 20.491 50.9644 21.0396 54.1188C21.4236 56.2584 20.683 59.6596 20.491 63.3901C22.85 64.6793 25.4558 65.7765 28.3359 66.956C28.5005 67.0382 28.6651 67.0931 28.8297 67.1754C29.1863 65.3376 29.488 63.6095 29.7074 61.9912C29.8171 62.238 29.9543 62.4849 30.064 62.7318C29.8446 64.2953 29.6251 65.9136 29.488 67.4771C31.4629 68.4646 33.3556 69.8361 34.6996 71.043C34.8642 71.3173 35.0288 71.5641 35.1934 71.8384C33.7945 70.6315 32.5052 69.8361 31.1063 69.0955C27.513 69.7812 24.9072 71.4544 21.9174 71.9756C18.5161 72.5516 14.8954 71.9482 10.8358 69.6989C19.4213 73.1002 22.5483 70.9058 30.3932 68.7663C29.6251 68.3823 28.8022 67.9983 27.8971 67.5868C26.5804 66.9834 25.2089 66.4348 23.8649 65.8588C21.8351 65.0084 21.5059 65.0359 20.5733 65.0359C17.3915 65.0359 14.4839 64.981 11.7958 64.405C10.0677 64.0484 6.41957 61.7717 3.23772 59.3305C9.60142 63.5272 13.0576 64.405 20.4636 64.3227C19.147 63.6918 17.8303 62.9786 16.5686 62.1283C8.83338 56.9167 1.15306 45.3962 0.330165 35.6038L0.302734 35.6586ZM25.6204 47.4808C25.6204 47.4808 25.5381 47.3711 25.4832 47.3162L25.6204 47.4534V47.4808Z" fill="url(#paint18_linear_140_100)"/>
<path fill-rule="evenodd" clip-rule="evenodd" d="M34.9729 71.619C33.7385 72.0579 32.4494 72.579 31.1602 73.1825C26.4148 75.3494 19.1734 81.1371 13.7148 79.1347C17.4453 82.2069 18.3779 84.9498 21.45 87.3637C22.8215 88.4334 24.6044 89.6403 26.5794 90.7924C28.1155 91.6701 29.7064 91.9719 31.4619 91.725C32.1751 91.6153 32.9157 91.4507 33.7385 91.2313C33.4094 91.4781 32.2573 91.9719 31.9556 92.1364C31.7362 92.2462 31.6813 92.6027 31.4619 92.7399C31.2973 92.8496 31.1327 92.9593 30.9133 93.0142C35.0826 94.9068 39.5262 96.1686 42.8452 95.5377C46.85 94.7971 49.7027 92.9319 52.0342 90.3261C51.897 90.2164 51.7325 90.1066 51.5953 89.9969C44.9299 85.1418 39.4165 78.5587 35.0003 71.5916L34.9729 71.619Z" fill="url(#paint19_linear_140_100)"/>
<path style="mix-blend-mode:screen" fill-rule="evenodd" clip-rule="evenodd" d="M20.4078 86.5133C23.0685 86.8974 25.4274 86.8974 29.0482 86.4859C25.016 86.0196 21.4227 85.1693 18.1585 83.9624C16.9791 82.4537 15.7722 80.8628 13.6875 79.1622C21.505 82.5635 29.0482 84.6755 37.4691 85.8824C32.9706 89.558 30.4745 90.3535 25.1806 89.9969C24.3851 89.5032 23.6445 89.0094 22.9587 88.5431C23.6994 88.4608 24.44 88.3237 25.1531 88.1043C23.7816 87.9946 22.8216 87.83 21.6421 87.5831C21.5598 87.5282 21.4775 87.446 21.3953 87.3911C21.0387 87.1168 20.7095 86.8151 20.3804 86.5133H20.4078Z" fill="url(#paint20_linear_140_100)"/>
<path style="mix-blend-mode:screen" opacity="0.85" fill-rule="evenodd" clip-rule="evenodd" d="M39.4714 85.91C31.7362 85.91 16.8418 80.7257 13.7148 79.1348C19.1734 81.1372 26.4148 75.3495 31.1602 73.1826C32.4768 72.5791 33.7385 72.058 34.9729 71.6191C38.0724 76.529 41.6932 81.2195 45.8899 85.2517C43.7504 85.6357 41.6383 85.91 39.4714 85.91Z" fill="url(#paint21_linear_140_100)"/>
<path style="mix-blend-mode:multiply" fill-rule="evenodd" clip-rule="evenodd" d="M35.1917 71.9482C34.7528 71.9482 34.2865 72.0031 33.8477 72.0305C34.2317 71.8934 34.6157 71.7562 34.9723 71.6191L35.1917 71.9482ZM52.0062 90.3536C49.7021 92.9594 46.8494 94.8246 42.8172 95.5653C40.5954 95.9767 37.8798 95.5652 35.082 94.6601C37.9895 94.9618 40.1565 94.8521 43.0366 93.7823C45.999 92.6851 48.166 90.7102 49.2906 88.2964C50.0312 88.8998 50.7718 89.4758 51.5398 90.0244C51.677 90.1342 51.8416 90.2439 51.9787 90.3536H52.0062Z" fill="url(#paint22_linear_140_100)"/>
<path fill-rule="evenodd" clip-rule="evenodd" d="M13.6875 79.1349C17.9665 81.7681 30.4196 85.4437 36.701 86.1843C32.5043 89.3387 31.4894 89.7502 25.8937 90.0794C30.9408 90.4085 33.0255 89.6405 36.6462 87.1169C38.3194 85.9649 37.3594 86.3763 39.4166 86.3489C41.3367 86.3489 43.4213 86.0746 45.5334 85.718C41.7481 90.5182 38.3468 92.356 32.998 93.5629C38.2371 93.0692 41.7755 90.5182 45.4511 86.9249C45.9174 86.4861 46.1643 86.1295 46.466 85.8552C46.1643 85.5534 45.8352 85.2792 45.5334 84.9774C45.0123 85.0597 44.7105 84.9774 44.2717 84.4014C41.6933 80.9727 38.8131 78.8057 34.6164 77.5439C39.4715 79.3817 41.3367 81.3293 43.9425 85.2243C41.0075 85.6083 37.9628 85.4711 35.0004 85.1146C31.2974 81.3293 28.9933 78.5589 23.4251 77.8731C29.2676 79.5463 30.2551 80.8629 34.0952 85.0048C26.6618 83.9351 18.9266 81.2744 13.6875 79.1897V79.1349ZM48.1941 87.3638C46.4112 89.3113 43.8876 91.6429 41.3367 93.0143C44.3265 91.588 46.5483 89.8325 48.6056 87.7204C48.4684 87.6107 48.3313 87.5009 48.1941 87.3638Z" fill="url(#paint23_linear_140_100)"/>
<path fill-rule="evenodd" clip-rule="evenodd" d="M410.318 33.4917C409.742 33.0529 409.084 32.7511 408.343 32.5043C408.124 32.422 407.905 32.3671 407.658 32.2848C407.438 31.9008 407.246 31.5442 407.027 31.1602C404.256 26.3326 401.02 21.6421 397.234 17.4728C397.234 17.1162 397.234 16.787 397.262 16.403C397.344 13.8246 397.18 9.90217 395.973 7.54321C398.002 8.58554 401.102 8.22896 403.708 9.7376C406.533 11.356 411.8 15.9916 412.65 19.1734C413.747 23.2604 410.757 27.8412 410.154 29.871C410.044 30.255 410.044 32.6414 410.291 33.4917H410.318Z" fill="url(#paint24_linear_140_100)"/>
<path style="mix-blend-mode:screen" fill-rule="evenodd" clip-rule="evenodd" d="M410.376 15.3608C410.266 17.1986 409.58 19.393 407.934 21.4228C408.593 19.8044 409.031 17.9118 408.099 16.1837C407.962 18.1586 406.892 19.585 405.521 21.4776C405.575 23.2057 405.411 24.5772 405.85 26.223C409.004 23.5348 411.116 22.0536 412.213 17.9118C411.774 17.0889 411.144 16.2111 410.403 15.3334L410.376 15.3608Z" fill="url(#paint25_linear_140_100)"/>
<path style="mix-blend-mode:multiply" opacity="0.5" fill-rule="evenodd" clip-rule="evenodd" d="M405.546 26.0583C405.189 23.8639 405.436 21.5873 405.189 19.3655C404.503 13.2486 399.401 9.79249 396 7.57068C397.179 9.92964 397.371 13.8521 397.289 16.4305C397.289 16.7871 397.289 17.1436 397.262 17.5002C401.02 21.697 404.284 26.3875 407.054 31.1877C407.274 31.5443 407.466 31.9283 407.685 32.3123C407.932 32.3946 408.151 32.4494 408.371 32.5317C409.111 32.7786 409.77 33.0803 410.346 33.5192C407.987 31.27 406.094 29.4048 405.573 26.0858L405.546 26.0583Z" fill="url(#paint26_linear_140_100)"/>
<path fill-rule="evenodd" clip-rule="evenodd" d="M410.209 26.5246C408.81 27.8413 407.027 28.335 405.244 28.2253C405.848 29.1853 406.451 30.1728 407 31.1603C407.219 31.5169 407.411 31.9009 407.631 32.2849C407.877 32.3672 408.097 32.422 408.316 32.5043C409.057 32.7512 409.715 33.0529 410.291 33.4918C410.044 32.6415 410.044 30.2551 410.154 29.8711C410.675 28.1704 412.87 24.632 412.897 21.121C412.623 23.1508 412.019 24.7966 410.182 26.5246H410.209Z" fill="#6F963F"/>
<path style="mix-blend-mode:screen" fill-rule="evenodd" clip-rule="evenodd" d="M397.289 14.7572C397.454 13.3857 397.536 11.6028 398.222 10.4782C399.264 8.75012 402.172 9.54559 403.625 10.2039C405.271 10.9445 406.643 11.9868 408.069 13.0292C406.533 11.6302 404.915 10.4233 403.735 9.7376C401.102 8.25639 398.03 8.58554 396 7.54321C396.96 9.43586 397.262 12.3434 397.289 14.7298V14.7572Z" fill="url(#paint27_linear_140_100)"/>
<path fill-rule="evenodd" clip-rule="evenodd" d="M396 7.54321C401.541 10.9445 404.695 14.4281 405.573 19.2831C406.862 16.2659 406.999 14.8944 405.902 11.4931L406.451 12.7C407.356 15.2235 406.752 17.3356 405.82 19.6672C405.71 19.914 405.71 20.3255 405.765 21.1484C405.875 23.3153 405.875 24.7417 405.902 25.8388C408.865 23.7542 410.455 22.1907 411.992 18.7071C410.949 22.0535 409.111 23.9462 406.478 25.9211C406.122 26.1954 405.93 26.6069 406.012 27.0732C406.012 27.1281 406.012 27.2103 406.039 27.2652C406.314 28.9658 407.328 30.3922 410.346 33.5192C407.959 31.6814 406.478 30.0082 405.792 28.4995C405.655 28.1978 405.408 28.0058 405.079 27.9509C404.997 27.8138 404.887 27.6766 404.805 27.5121C404.997 27.5395 405.216 27.5669 405.436 27.5943C405.107 26.4149 405.189 25.1531 405.244 23.617C401.733 22.6021 399.95 20.5449 398.441 17.2533C397.948 16.1836 397.81 15.6898 397.591 14.5927C397.92 15.5527 398.167 16.2659 398.606 17.1711C400.169 20.298 401.87 22.273 405.244 23.2056C405.271 21.8341 405.244 20.2432 404.887 18.3231C403.845 13.0017 399.456 10.0393 396 7.59806V7.54321Z" fill="url(#paint28_linear_140_100)"/>
<path fill-rule="evenodd" clip-rule="evenodd" d="M419.618 50.553C421.977 49.2364 424.116 47.2066 425.323 44.7105C427.627 39.9103 428.834 35.549 428.724 31.2973C427.764 32.6414 426.749 33.6014 425.213 34.6986C426.502 33.2997 427.847 31.0505 428.587 29.3498C428.587 29.2127 428.56 29.0755 428.532 28.9384C427.737 23.2879 423.705 14.4006 423.101 10.0667C420.358 13.4954 416.6 16.5676 413.117 19.914C412.596 20.4077 412.074 20.9289 411.553 21.4501C411.745 22.273 412.02 23.1507 412.184 23.8913C412.376 24.7142 411.8 24.6868 411.252 24.2205C410.813 23.8639 410.429 23.3427 410.154 22.8764C408.481 24.6593 406.835 26.552 405.464 28.5269C406.012 29.4047 406.534 30.2824 407.027 31.1602C410.264 36.8107 413.199 43.147 414.955 49.401L415.037 49.7301L414.955 50.0593C414.763 50.7176 414.571 51.3485 414.379 52.0068C416.299 51.7325 418.219 51.3485 419.645 50.553H419.618Z" fill="url(#paint29_linear_140_100)"/>
<path style="mix-blend-mode:multiply" opacity="0.5" fill-rule="evenodd" clip-rule="evenodd" d="M415.668 39.4714C420.084 29.7338 421.291 20.49 423.101 10.0667C423.732 14.4006 427.737 23.2879 428.532 28.9384C428.532 29.0755 428.56 29.2127 428.587 29.3498C427.847 31.0505 426.503 33.2997 425.213 34.6986C426.749 33.6014 427.764 32.614 428.724 31.2973C428.834 35.549 427.627 39.9103 425.323 44.7105C424.144 47.2066 421.977 49.2364 419.618 50.553C418.191 51.3485 416.299 51.7325 414.351 52.0068C414.543 51.3485 414.763 50.7176 414.927 50.0593L415.009 49.7301L414.927 49.401C414.433 47.6729 413.857 45.9174 413.227 44.1893C414.077 42.7355 414.872 41.172 415.668 39.4714Z" fill="url(#paint30_linear_140_100)"/>
<path style="mix-blend-mode:screen" fill-rule="evenodd" clip-rule="evenodd" d="M425.048 19.3928C424.006 16.9241 422.661 14.7023 421.317 14.5926C419.507 14.4829 416.188 17.171 413.829 19.2283C417.121 16.1287 420.549 13.2486 423.128 10.0667C423.759 14.4006 427.763 23.2879 428.559 28.9384C428.559 29.0755 428.586 29.2127 428.614 29.3498C428.504 29.6241 428.367 29.8984 428.23 30.2001C427.681 26.4971 426.529 22.8764 425.075 19.4203L425.048 19.3928ZM428.751 31.2699C428.751 32.3122 428.723 33.382 428.586 34.4517C428.586 33.5466 428.504 32.6414 428.422 31.7088C428.531 31.5716 428.641 31.4071 428.751 31.2699Z" fill="url(#paint31_linear_140_100)"/>
<path style="mix-blend-mode:screen" fill-rule="evenodd" clip-rule="evenodd" d="M418.138 33.382C414.873 29.3498 412.981 25.9485 411.938 21.0386C412.322 20.6546 412.706 20.2706 413.118 19.914C413.804 19.2557 414.489 18.6248 415.175 17.9939C414.627 23.041 417.424 28.9932 418.96 30.7762C418.714 31.6539 418.439 32.5317 418.165 33.382H418.138Z" fill="url(#paint32_linear_140_100)"/>
<path style="mix-blend-mode:screen" fill-rule="evenodd" clip-rule="evenodd" d="M408.564 24.6045C410.785 28.8561 414.763 32.806 417.615 34.8358C416.655 37.3319 415.503 39.7732 414.269 42.1596C413.172 41.4464 412.157 40.4863 411.279 39.3617C409.99 36.5365 408.564 33.7661 407.055 31.1602L406.945 30.9682C406.561 29.8436 406.26 28.7738 406.013 27.7589C406.808 26.6618 407.686 25.6194 408.591 24.5771L408.564 24.6045Z" fill="url(#paint33_linear_140_100)"/>
<path style="mix-blend-mode:multiply" fill-rule="evenodd" clip-rule="evenodd" d="M413.857 45.8899C418.85 47.1242 424.939 44.5184 428.313 36.1523C427.792 38.8953 426.777 41.6931 425.35 44.7104C424.171 47.2065 422.004 49.2363 419.645 50.5529C418.219 51.3484 416.326 51.7324 414.379 52.0067C414.571 51.3484 414.79 50.7175 414.955 50.0592L415.037 49.73L414.955 49.4009C414.625 48.2214 414.269 47.0419 413.857 45.8625V45.8899ZM405.464 28.5543C406.479 27.1005 407.631 25.6742 408.865 24.3027C407.603 26.4422 406.753 27.9508 406.287 29.8709C406.012 29.432 405.766 28.9932 405.491 28.5543H405.464Z" fill="url(#paint34_linear_140_100)"/>
<path fill-rule="evenodd" clip-rule="evenodd" d="M423.103 10.0668C421.868 17.0889 420.716 23.5348 418.687 30.0357C416.437 26.1132 415.395 23.9189 415.093 19.1187C414.737 23.9189 416.3 26.8813 418.412 30.9409C417.26 34.4793 415.861 38.0452 414.024 41.7208C412.981 41.1447 411.939 40.075 410.979 38.7583C411.363 39.6087 411.747 40.459 412.103 41.3093C412.597 41.8031 413.091 42.2145 413.612 42.5162C413.42 42.8728 413.228 43.2294 413.036 43.586C413.173 43.9151 413.31 44.2717 413.42 44.6283C413.804 43.97 414.188 43.3117 414.545 42.6534C415.258 41.3916 415.889 40.1573 416.437 38.9229C416.602 38.5389 416.931 38.2921 417.343 38.2098C421.539 37.3869 425.517 35.3845 427.985 32.2575C424.831 35.1102 421.375 36.8383 417.068 37.4417C418.357 34.397 419.29 31.3798 420.058 28.3076C420.195 27.7316 420.469 27.2927 420.881 26.8813C422.911 24.9612 424.31 23.48 425.407 20.7919C423.569 23.4526 422.801 24.3852 420.47 26.4424C421.594 21.2308 422.252 15.8545 423.075 10.0394L423.103 10.0668ZM406.919 30.9683C406.617 30.1454 406.371 29.3774 406.206 28.7465C406.233 29.158 406.316 29.5968 406.398 30.0906C406.563 30.3923 406.755 30.6666 406.919 30.9683ZM413.941 46.1095C418.083 46.3015 422.225 45.4786 425.434 43.0923C422.033 44.9849 418.083 45.8627 413.722 45.5061C413.804 45.6981 413.859 45.8901 413.941 46.1095Z" fill="url(#paint35_linear_140_100)"/>
<path fill-rule="evenodd" clip-rule="evenodd" d="M404.202 72.9357C407.192 73.1277 412.705 76.2273 415.476 76.2547C422.717 76.3095 428.916 71.6465 433.387 66.2703C431.659 67.0383 429.876 66.9286 428.039 66.6268C430.315 66.2154 433.936 64.7067 435.746 62.869C438.38 58.2608 440.053 52.0891 439.971 47.234C439.916 43.2841 439.34 39.2794 439.696 35.6861C437.996 38.4016 436.268 39.9926 433.964 41.1446C432.565 42.5435 431.906 43.5859 430.699 45.4511C430.562 44.1344 430.672 43.3115 430.891 42.3789C428.368 43.2018 425.241 43.8876 421.154 44.9573C418.822 45.5608 416.436 46.0271 414.132 46.7128C414.434 47.618 414.708 48.5232 414.955 49.4284L415.037 49.7575L414.955 50.0867C413.117 56.6698 409.962 63.3627 406.479 69.2601C405.738 70.4944 404.97 71.7288 404.175 72.9631L404.202 72.9357Z" fill="url(#paint36_linear_140_100)"/>
<path style="mix-blend-mode:multiply" opacity="0.5" fill-rule="evenodd" clip-rule="evenodd" d="M433.36 66.2703C428.889 71.6465 422.69 76.2821 415.448 76.2547C412.678 76.2547 407.165 73.1277 404.175 72.9357C404.504 72.4145 404.861 71.8933 405.19 71.3722C411.005 65.9411 419.755 65.5022 428.066 57.383C434.32 51.2936 438.572 43.2018 439.669 35.6861C439.312 39.3068 439.888 43.3116 439.943 47.234C439.998 52.0891 438.352 58.2608 435.719 62.869C433.909 64.7067 430.26 66.2154 428.011 66.6268C429.849 66.9286 431.632 67.0383 433.36 66.2703Z" fill="url(#paint37_linear_140_100)"/>
<path style="mix-blend-mode:multiply" opacity="0.5" fill-rule="evenodd" clip-rule="evenodd" d="M411.526 68.7938C417.231 73.2923 426.036 71.7837 431.193 68.7116C426.969 72.9906 421.593 76.3096 415.476 76.2547C412.705 76.2547 407.192 73.1277 404.202 72.9357C404.998 71.7288 405.766 70.4945 406.506 69.2327C407.192 68.0532 407.878 66.8463 408.536 65.5846C409.277 66.7092 410.264 67.7789 411.526 68.7664V68.7938ZM414.132 46.7129C414.79 46.5209 415.448 46.3289 416.134 46.1643C415.503 46.4386 414.872 46.7678 414.269 47.1243C414.214 46.9872 414.187 46.85 414.132 46.7129Z" fill="url(#paint38_linear_140_100)"/>
<path style="mix-blend-mode:screen" fill-rule="evenodd" clip-rule="evenodd" d="M416.709 53.7075C417.231 51.1565 419.206 47.4261 421.784 44.7928C422.497 44.6008 423.21 44.4362 423.869 44.2717C422.086 46.1917 421.181 48.1393 420.275 50.7999C418.575 55.7099 419.343 58.5351 420.056 63.5548C419.096 64.0759 418.136 64.5423 417.231 64.9811C416.216 60.8667 416.079 57.0265 416.737 53.7075H416.709Z" fill="url(#paint39_linear_140_100)"/>
<path style="mix-blend-mode:screen" fill-rule="evenodd" clip-rule="evenodd" d="M433.938 56.1212C435.666 53.5977 437.915 49.8124 438.71 46.8774C439.067 45.5059 439.616 42.1321 438.409 41.0075C438.025 40.6509 437.476 40.5137 436.681 40.7332C434.596 41.2818 432.566 43.4213 431.112 44.8476C432.1 43.339 432.758 42.3789 433.992 41.1446C436.297 39.9926 438.052 38.4016 439.725 35.6861C439.369 39.3068 439.945 43.3116 440 47.234C440 47.3437 440 47.4535 440 47.5632C439.012 51.0742 437.174 52.8571 433.965 56.1212H433.938Z" fill="url(#paint40_linear_140_100)"/>
<path style="mix-blend-mode:screen" fill-rule="evenodd" clip-rule="evenodd" d="M415.942 65.5297C414.762 66.0234 413.61 66.4897 412.458 67.0109C412.211 65.9137 411.498 62.4301 411.498 59.5226C412.211 57.9042 412.87 56.2858 413.473 54.6401C413.473 54.6126 413.528 54.5852 413.555 54.5303C414.296 53.5429 414.707 52.3908 415.585 51.4308C414.268 56.1213 414.57 60.1534 415.942 65.5022V65.5297Z" fill="url(#paint41_linear_140_100)"/>
<path fill-rule="evenodd" clip-rule="evenodd" d="M439.696 35.6586C438.462 42.5709 435.006 49.7849 428.971 56.0115C428.094 50.6901 429.986 45.9722 433.141 41.9126C429.547 46.1368 427.408 50.9918 428.368 56.6149C426.749 58.2333 424.939 59.7968 422.937 61.2506C422.059 61.9089 421.126 62.4849 420.166 63.0335C418.987 54.7223 420.057 50.1689 423.403 44.5458C420.852 47.5631 419.508 50.9644 418.959 54.1188C418.575 56.2584 419.316 59.6596 419.508 63.3901C417.149 64.6793 414.543 65.7765 411.663 66.956C411.499 67.0382 411.334 67.0931 411.169 67.1754C410.813 65.3376 410.511 63.6095 410.292 61.9912C410.182 62.238 410.045 62.4849 409.935 62.7318C410.154 64.2953 410.374 65.9136 410.511 67.4771C408.536 68.4646 406.643 69.8361 405.299 71.043C405.135 71.3173 404.97 71.5641 404.806 71.8384C406.205 70.6315 407.494 69.8361 408.893 69.0955C412.486 69.7812 415.092 71.4544 418.082 71.9756C421.483 72.5516 425.104 71.9482 429.163 69.6989C420.578 73.1002 417.451 70.9058 409.606 68.7663C410.374 68.3823 411.197 67.9983 412.102 67.5868C413.419 66.9834 414.79 66.4348 416.134 65.8588C418.164 65.0084 418.493 65.0359 419.426 65.0359C422.608 65.0359 425.515 64.981 428.203 64.405C429.931 64.0484 433.579 61.7717 436.761 59.3305C430.398 63.5272 426.941 64.405 419.535 64.3227C420.852 63.6918 422.169 62.9786 423.43 62.1283C431.166 56.9167 438.846 45.3962 439.669 35.6038L439.696 35.6586ZM414.379 47.4808C414.379 47.4808 414.461 47.3711 414.516 47.3162L414.379 47.4534V47.4808Z" fill="url(#paint42_linear_140_100)"/>
<path fill-rule="evenodd" clip-rule="evenodd" d="M405.025 71.619C406.26 72.0579 407.549 72.579 408.838 73.1825C413.583 75.3494 420.825 81.1371 426.283 79.1347C422.553 82.2069 421.62 84.9498 418.548 87.3637C417.177 88.4334 415.394 89.6403 413.419 90.7924C411.883 91.6701 410.292 91.9719 408.536 91.725C407.823 91.6153 407.082 91.4507 406.259 91.2313C406.589 91.4781 407.741 91.9719 408.042 92.1364C408.262 92.2462 408.317 92.6027 408.536 92.7399C408.701 92.8496 408.865 92.9593 409.085 93.0142C404.915 94.9068 400.472 96.1686 397.153 95.5377C393.148 94.7971 390.295 92.9319 387.964 90.3261C388.101 90.2164 388.266 90.1066 388.403 89.9969C395.068 85.1418 400.582 78.5587 404.998 71.5916L405.025 71.619Z" fill="url(#paint43_linear_140_100)"/>
<path style="mix-blend-mode:screen" fill-rule="evenodd" clip-rule="evenodd" d="M419.589 86.5133C416.928 86.8974 414.569 86.8974 410.948 86.4859C414.98 86.0196 418.574 85.1693 421.838 83.9624C423.017 82.4537 424.224 80.8628 426.309 79.1622C418.491 82.5635 410.948 84.6755 402.527 85.8824C407.026 89.558 409.522 90.3535 414.816 89.9969C415.611 89.5032 416.352 89.0094 417.038 88.5431C416.297 88.4608 415.556 88.3237 414.843 88.1043C416.215 87.9946 417.175 87.83 418.354 87.5831C418.437 87.5282 418.519 87.446 418.601 87.3911C418.958 87.1168 419.287 86.8151 419.616 86.5133H419.589Z" fill="url(#paint44_linear_140_100)"/>
<path style="mix-blend-mode:screen" opacity="0.85" fill-rule="evenodd" clip-rule="evenodd" d="M400.554 85.91C408.289 85.91 423.184 80.7257 426.311 79.1348C420.852 81.1372 413.611 75.3495 408.865 73.1826C407.549 72.5791 406.287 72.058 405.053 71.6191C401.953 76.529 398.332 81.2195 394.136 85.2517C396.275 85.6357 398.387 85.91 400.554 85.91Z" fill="url(#paint45_linear_140_100)"/>
<path style="mix-blend-mode:multiply" fill-rule="evenodd" clip-rule="evenodd" d="M404.832 71.9482C405.271 71.9482 405.737 72.0031 406.176 72.0305C405.792 71.8934 405.408 71.7562 405.051 71.6191L404.832 71.9482ZM388.018 90.3536C390.322 92.9594 393.174 94.8246 397.207 95.5653C399.428 95.9767 402.144 95.5652 404.942 94.6601C402.034 94.9618 399.867 94.8521 396.987 93.7823C394.025 92.6851 391.858 90.7102 390.733 88.2964C389.993 88.8998 389.252 89.4758 388.484 90.0244C388.347 90.1342 388.182 90.2439 388.045 90.3536H388.018Z" fill="url(#paint46_linear_140_100)"/>
<path fill-rule="evenodd" clip-rule="evenodd" d="M426.311 79.1349C422.032 81.7681 409.578 85.4437 403.297 86.1843C407.494 89.3387 408.509 89.7502 414.104 90.0794C409.057 90.4085 406.973 89.6405 403.352 87.1169C401.679 85.9649 402.639 86.3763 400.582 86.3489C398.661 86.3489 396.577 86.0746 394.465 85.718C398.25 90.5182 401.651 92.356 407 93.5629C401.761 93.0692 398.223 90.5182 394.547 86.9249C394.081 86.4861 393.834 86.1295 393.532 85.8552C393.834 85.5534 394.163 85.2792 394.465 84.9774C394.986 85.0597 395.288 84.9774 395.726 84.4014C398.305 80.9727 401.185 78.8057 405.382 77.5439C400.527 79.3817 398.661 81.3293 396.056 85.2243C398.991 85.6083 402.035 85.4711 404.998 85.1146C408.701 81.3293 411.005 78.5589 416.573 77.8731C410.731 79.5463 409.743 80.8629 405.903 85.0048C413.336 83.9351 421.072 81.2744 426.311 79.1897V79.1349ZM391.804 87.3638C393.587 89.3113 396.111 91.6429 398.661 93.0143C395.672 91.588 393.45 89.8325 391.393 87.7204C391.53 87.6107 391.667 87.5009 391.804 87.3638Z" fill="url(#paint47_linear_140_100)"/>
<path fill-rule="evenodd" clip-rule="evenodd" d="M365.144 99.4602H74.8555C48.8247 99.4602 29.761 72.3871 23.4521 49.7301C29.761 27.0731 48.8247 0 74.8555 0H365.144C391.175 0 410.239 27.0731 416.548 49.7301C410.239 72.3871 391.175 99.4602 365.144 99.4602ZM371.453 75.7609C379.353 75.1301 385.634 70.5493 390.38 64.4599C392.437 61.7992 394.22 58.8642 395.674 55.8195C396.579 53.9269 397.457 51.7873 398.033 49.7301C397.484 47.6729 396.579 45.5334 395.674 43.6407C394.22 40.596 392.464 37.661 390.38 35.0004C385.634 28.911 379.353 24.3302 371.453 23.6993L369.451 23.5347V21.5049C369.451 13.2486 362.758 6.55571 354.502 6.55571H85.4982C77.2419 6.55571 70.549 13.2486 70.549 21.5049V23.5347L68.5466 23.6993C60.6469 24.3302 54.3655 28.911 49.6201 35.0004C47.5629 37.661 45.78 40.596 44.3262 43.6407C43.421 45.5334 42.5432 47.6729 41.9672 49.7301C42.5158 51.7873 43.421 53.9269 44.3262 55.8195C45.78 58.8642 47.5355 61.7992 49.6201 64.4599C54.3655 70.5493 60.6469 75.1301 68.5466 75.7609L70.549 75.9255V77.9553C70.549 86.2117 77.2419 92.9045 85.4982 92.9045H354.474C362.731 92.9045 369.423 86.2117 369.423 77.9553V75.9255L371.426 75.7609H371.453Z" fill="url(#paint48_linear_140_100)"/>
<path fill-rule="evenodd" clip-rule="evenodd" d="M68.3827 77.9549C59.8795 77.2691 53.0495 72.3866 47.9202 65.8035C45.7532 63.0057 43.888 59.961 42.3793 56.7517C41.3919 54.6945 40.4867 52.5001 39.9107 50.3057L39.7461 49.7297L39.9107 49.1537C40.5141 46.9593 41.4193 44.7649 42.3793 42.7077C43.888 39.5258 45.7532 36.4537 47.9202 33.6558C53.0495 27.0727 59.8795 22.1902 68.3827 21.5045C68.3827 12.0412 76.0631 4.3609 85.5263 4.3609H354.502C363.966 4.3609 371.646 12.0412 371.646 21.5045C380.149 22.1902 386.979 27.0727 392.109 33.6558C394.275 36.4537 396.141 39.4984 397.649 42.7077C398.637 44.7649 399.542 46.9593 400.118 49.1537L400.283 49.7297L400.118 50.3057C399.515 52.5001 398.609 54.6945 397.649 56.7517C396.141 59.9336 394.275 63.0057 392.109 65.8035C386.979 72.3866 380.149 77.2691 371.646 77.9549C371.646 87.4181 363.966 95.0985 354.502 95.0985H85.4989C76.0356 95.0985 68.3553 87.4181 68.3553 77.9549H68.3827Z" fill="url(#paint49_linear_140_100)"/>
<g filter="url(#filter0_d_140_100)">
<path d="M139.747 45.24H138.027V53H129.627V28.16H139.307C142.587 28.16 144.974 28.8267 146.467 30.16C147.961 31.4933 148.707 33.6933 148.707 36.76C148.707 39.8267 147.987 42.0133 146.547 43.32C145.107 44.6 142.841 45.24 139.747 45.24ZM140.147 39.44C140.387 39.0133 140.507 38.2933 140.507 37.28C140.507 36.2667 140.374 35.5467 140.107 35.12C139.867 34.6933 139.401 34.48 138.707 34.48H137.867V40.08H138.907C139.521 40.08 139.934 39.8667 140.147 39.44ZM165.563 53H150.643V28.16H159.203V46.56H166.123L165.563 53ZM188.086 53H179.686L178.886 49.16H174.446L173.606 53H165.566L170.726 28.16H182.926L188.086 53ZM178.286 44L176.766 35.68H176.606L175.046 44H178.286ZM209.545 28.16L202.985 45.12V53H194.465V45.08L188.105 28.16H197.105L198.865 37.28H199.105L200.785 28.16H209.545ZM229.728 46.88C230.208 46.88 230.848 46.8 231.648 46.64V44.24H229.648V38.72H239.088V53H233.048L232.448 51.72H232.288C230.901 52.84 229.261 53.4 227.368 53.4C221.128 53.4 218.008 49.1867 218.008 40.76C218.008 36.5467 218.848 33.3333 220.528 31.12C222.235 28.88 225.101 27.76 229.128 27.76C232.115 27.76 234.941 28.1733 237.608 29L236.288 36.52C233.301 35.6933 231.155 35.28 229.848 35.28C228.568 35.28 227.715 35.7067 227.288 36.56C226.888 37.4133 226.688 38.8667 226.688 40.92C226.688 42.9733 226.875 44.48 227.248 45.44C227.648 46.4 228.475 46.88 229.728 46.88ZM263.36 53H254.96L254.16 49.16H249.72L248.88 53H240.84L246 28.16H258.2L263.36 53ZM253.56 44L252.04 35.68H251.88L250.32 44H253.56ZM292.019 53H284.459V41.16H284.259L281.899 53H274.899L272.579 41.16H272.379V53H264.899L265.859 28.16H276.499L278.379 39.4H278.739L280.579 28.16H291.099L292.019 53ZM310.975 53H295.135V28.16H311.535L310.975 34.76H303.695V37.76H310.055V43.52H303.695V46.92H311.535L310.975 53Z" fill="white"/>
</g>
<path d="M188.882 65.576V67.22H186.65V74H184.598V67.22H182.366V65.576H188.882ZM196.224 70.544C196.224 70.736 196.212 70.936 196.188 71.144H191.544C191.576 71.56 191.708 71.88 191.94 72.104C192.18 72.32 192.472 72.428 192.816 72.428C193.328 72.428 193.684 72.212 193.884 71.78H196.068C195.956 72.22 195.752 72.616 195.456 72.968C195.168 73.32 194.804 73.596 194.364 73.796C193.924 73.996 193.432 74.096 192.888 74.096C192.232 74.096 191.648 73.956 191.136 73.676C190.624 73.396 190.224 72.996 189.936 72.476C189.648 71.956 189.504 71.348 189.504 70.652C189.504 69.956 189.644 69.348 189.924 68.828C190.212 68.308 190.612 67.908 191.124 67.628C191.636 67.348 192.224 67.208 192.888 67.208C193.536 67.208 194.112 67.344 194.616 67.616C195.12 67.888 195.512 68.276 195.792 68.78C196.08 69.284 196.224 69.872 196.224 70.544ZM194.124 70.004C194.124 69.652 194.004 69.372 193.764 69.164C193.524 68.956 193.224 68.852 192.864 68.852C192.52 68.852 192.228 68.952 191.988 69.152C191.756 69.352 191.612 69.636 191.556 70.004H194.124ZM200.031 74.096C199.447 74.096 198.927 73.996 198.471 73.796C198.015 73.596 197.655 73.324 197.391 72.98C197.127 72.628 196.979 72.236 196.947 71.804H198.975C198.999 72.036 199.107 72.224 199.299 72.368C199.491 72.512 199.727 72.584 200.007 72.584C200.263 72.584 200.459 72.536 200.595 72.44C200.739 72.336 200.811 72.204 200.811 72.044C200.811 71.852 200.711 71.712 200.511 71.624C200.311 71.528 199.987 71.424 199.539 71.312C199.059 71.2 198.659 71.084 198.339 70.964C198.019 70.836 197.743 70.64 197.511 70.376C197.279 70.104 197.163 69.74 197.163 69.284C197.163 68.9 197.267 68.552 197.475 68.24C197.691 67.92 198.003 67.668 198.411 67.484C198.827 67.3 199.319 67.208 199.887 67.208C200.727 67.208 201.387 67.416 201.867 67.832C202.355 68.248 202.635 68.8 202.707 69.488H200.811C200.779 69.256 200.675 69.072 200.499 68.936C200.331 68.8 200.107 68.732 199.827 68.732C199.587 68.732 199.403 68.78 199.275 68.876C199.147 68.964 199.083 69.088 199.083 69.248C199.083 69.44 199.183 69.584 199.383 69.68C199.591 69.776 199.911 69.872 200.343 69.968C200.839 70.096 201.243 70.224 201.555 70.352C201.867 70.472 202.139 70.672 202.371 70.952C202.611 71.224 202.735 71.592 202.743 72.056C202.743 72.448 202.631 72.8 202.407 73.112C202.191 73.416 201.875 73.656 201.459 73.832C201.051 74.008 200.575 74.096 200.031 74.096ZM207.73 72.26V74H206.686C205.942 74 205.362 73.82 204.946 73.46C204.53 73.092 204.322 72.496 204.322 71.672V69.008H203.506V67.304H204.322V65.672H206.374V67.304H207.718V69.008H206.374V71.696C206.374 71.896 206.422 72.04 206.518 72.128C206.614 72.216 206.774 72.26 206.998 72.26H207.73ZM219.324 65.576L216.336 74H213.768L210.78 65.576H212.964L215.052 71.936L217.152 65.576H219.324ZM226.493 70.544C226.493 70.736 226.482 70.936 226.458 71.144H221.814C221.846 71.56 221.978 71.88 222.21 72.104C222.45 72.32 222.742 72.428 223.086 72.428C223.598 72.428 223.954 72.212 224.154 71.78H226.338C226.226 72.22 226.022 72.616 225.726 72.968C225.438 73.32 225.074 73.596 224.634 73.796C224.194 73.996 223.702 74.096 223.158 74.096C222.502 74.096 221.918 73.956 221.406 73.676C220.894 73.396 220.494 72.996 220.206 72.476C219.918 71.956 219.774 71.348 219.774 70.652C219.774 69.956 219.914 69.348 220.194 68.828C220.482 68.308 220.882 67.908 221.394 67.628C221.906 67.348 222.494 67.208 223.158 67.208C223.806 67.208 224.382 67.344 224.886 67.616C225.39 67.888 225.782 68.276 226.062 68.78C226.35 69.284 226.493 69.872 226.493 70.544ZM224.394 70.004C224.394 69.652 224.274 69.372 224.034 69.164C223.794 68.956 223.494 68.852 223.134 68.852C222.79 68.852 222.498 68.952 222.258 69.152C222.026 69.352 221.882 69.636 221.826 70.004H224.394ZM229.628 68.42C229.868 68.052 230.168 67.764 230.528 67.556C230.888 67.34 231.288 67.232 231.728 67.232V69.404H231.164C230.652 69.404 230.268 69.516 230.012 69.74C229.756 69.956 229.628 70.34 229.628 70.892V74H227.576V67.304H229.628V68.42ZM235.433 74.096C234.849 74.096 234.329 73.996 233.873 73.796C233.417 73.596 233.057 73.324 232.793 72.98C232.529 72.628 232.381 72.236 232.349 71.804H234.377C234.401 72.036 234.509 72.224 234.701 72.368C234.893 72.512 235.129 72.584 235.409 72.584C235.665 72.584 235.861 72.536 235.997 72.44C236.141 72.336 236.213 72.204 236.213 72.044C236.213 71.852 236.113 71.712 235.913 71.624C235.713 71.528 235.389 71.424 234.941 71.312C234.461 71.2 234.061 71.084 233.741 70.964C233.421 70.836 233.145 70.64 232.913 70.376C232.681 70.104 232.565 69.74 232.565 69.284C232.565 68.9 232.669 68.552 232.877 68.24C233.093 67.92 233.405 67.668 233.813 67.484C234.229 67.3 234.721 67.208 235.289 67.208C236.129 67.208 236.789 67.416 237.269 67.832C237.757 68.248 238.037 68.8 238.109 69.488H236.213C236.181 69.256 236.077 69.072 235.901 68.936C235.733 68.8 235.509 68.732 235.229 68.732C234.989 68.732 234.805 68.78 234.677 68.876C234.549 68.964 234.485 69.088 234.485 69.248C234.485 69.44 234.585 69.584 234.785 69.68C234.993 69.776 235.313 69.872 235.745 69.968C236.241 70.096 236.645 70.224 236.957 70.352C237.269 70.472 237.541 70.672 237.773 70.952C238.013 71.224 238.137 71.592 238.145 72.056C238.145 72.448 238.033 72.8 237.809 73.112C237.593 73.416 237.277 73.656 236.861 73.832C236.453 74.008 235.977 74.096 235.433 74.096ZM240.432 66.608C240.072 66.608 239.776 66.504 239.544 66.296C239.32 66.08 239.208 65.816 239.208 65.504C239.208 65.184 239.32 64.92 239.544 64.712C239.776 64.496 240.072 64.388 240.432 64.388C240.784 64.388 241.072 64.496 241.296 64.712C241.528 64.92 241.644 65.184 241.644 65.504C241.644 65.816 241.528 66.08 241.296 66.296C241.072 66.504 240.784 66.608 240.432 66.608ZM241.452 67.304V74H239.4V67.304H241.452ZM245.987 74.096C245.331 74.096 244.739 73.956 244.211 73.676C243.691 73.396 243.279 72.996 242.975 72.476C242.679 71.956 242.531 71.348 242.531 70.652C242.531 69.964 242.683 69.36 242.987 68.84C243.291 68.312 243.707 67.908 244.235 67.628C244.763 67.348 245.355 67.208 246.011 67.208C246.667 67.208 247.259 67.348 247.787 67.628C248.315 67.908 248.731 68.312 249.035 68.84C249.339 69.36 249.491 69.964 249.491 70.652C249.491 71.34 249.335 71.948 249.023 72.476C248.719 72.996 248.299 73.396 247.763 73.676C247.235 73.956 246.643 74.096 245.987 74.096ZM245.987 72.32C246.379 72.32 246.711 72.176 246.983 71.888C247.263 71.6 247.403 71.188 247.403 70.652C247.403 70.116 247.267 69.704 246.995 69.416C246.731 69.128 246.403 68.984 246.011 68.984C245.611 68.984 245.279 69.128 245.015 69.416C244.751 69.696 244.619 70.108 244.619 70.652C244.619 71.188 244.747 71.6 245.003 71.888C245.267 72.176 245.595 72.32 245.987 72.32ZM254.66 67.232C255.444 67.232 256.068 67.488 256.532 68C257.004 68.504 257.24 69.2 257.24 70.088V74H255.2V70.364C255.2 69.916 255.084 69.568 254.852 69.32C254.62 69.072 254.308 68.948 253.916 68.948C253.524 68.948 253.212 69.072 252.98 69.32C252.748 69.568 252.632 69.916 252.632 70.364V74H250.58V67.304H252.632V68.192C252.84 67.896 253.12 67.664 253.472 67.496C253.824 67.32 254.22 67.232 254.66 67.232Z" fill="white" fill-opacity="0.8"/>
<path style="mix-blend-mode:screen" fill-rule="evenodd" clip-rule="evenodd" d="M39.7168 49.7297H400.281L400.116 49.1537C399.513 46.9593 398.607 44.7649 397.647 42.7077C396.139 39.5258 394.274 36.4537 392.107 33.6558C386.977 27.0727 380.147 22.1902 371.644 21.5045C371.644 12.0412 363.964 4.3609 354.501 4.3609H85.497C76.0338 4.3609 68.3535 12.0412 68.3535 21.5045C59.8502 22.1902 53.0202 27.0727 47.8909 33.6558C45.7239 36.4537 43.8587 39.4984 42.3501 42.7077C41.3626 44.7649 40.4574 46.9593 39.8814 49.1537L39.7168 49.7297Z" fill="url(#paint50_linear_140_100)"/>
<path fill-rule="evenodd" clip-rule="evenodd" d="M28.0055 49.7301C34.0949 29.295 51.4305 4.38875 74.8555 4.38875H365.144C388.569 4.38875 405.905 29.295 411.994 49.7301H416.548C410.239 27.0731 391.175 0 365.144 0H74.8555C48.8247 0 29.761 27.0731 23.4521 49.7301H28.0055Z" fill="url(#paint51_linear_140_100)"/>
<path fill-rule="evenodd" clip-rule="evenodd" d="M28.0055 49.7298C34.0949 70.165 51.4305 95.0712 74.8555 95.0712H365.144C388.569 95.0712 405.905 70.165 411.994 49.7298H416.548C410.239 72.3868 391.175 99.4599 365.144 99.4599H74.8555C48.8247 99.4599 29.761 72.3868 23.4521 49.7298H28.0055Z" fill="url(#paint52_linear_140_100)"/>
<path fill-rule="evenodd" clip-rule="evenodd" d="M39.7447 49.7297C41.3905 43.0369 50.3326 22.9857 68.3814 21.532C68.3814 12.0687 76.0617 4.38837 85.525 4.38837H74.8822C51.4572 4.38837 34.1216 29.2946 28.0322 49.7297H39.7447Z" fill="url(#paint53_linear_140_100)"/>
<path fill-rule="evenodd" clip-rule="evenodd" d="M39.7447 49.7298C41.3905 56.4227 50.3326 76.4738 68.3814 77.9276C68.3814 87.3909 76.0617 95.0712 85.525 95.0712H74.8822C51.4572 95.0712 34.1216 70.165 28.0322 49.7298H39.7447Z" fill="url(#paint54_linear_140_100)"/>
<path fill-rule="evenodd" clip-rule="evenodd" d="M29.0746 49.7297C35.164 29.2946 52.4996 4.38837 75.9246 4.38837H74.8549C51.4299 4.38837 34.0943 29.2946 28.0049 49.7297H29.0746Z" fill="url(#paint55_linear_140_100)"/>
<path fill-rule="evenodd" clip-rule="evenodd" d="M29.0746 49.7298C35.164 70.165 52.4996 95.0712 75.9246 95.0712H74.8549C51.4299 95.0712 34.0943 70.165 28.0049 49.7298H29.0746Z" fill="url(#paint56_linear_140_100)"/>
<path fill-rule="evenodd" clip-rule="evenodd" d="M400.282 49.7297C398.636 43.0369 389.694 22.9857 371.646 21.532C371.646 12.0687 363.965 4.38837 354.502 4.38837H365.145C388.57 4.38837 405.905 29.2946 411.995 49.7297H400.282Z" fill="url(#paint57_linear_140_100)"/>
<path fill-rule="evenodd" clip-rule="evenodd" d="M400.282 49.7298C398.636 56.4227 389.694 76.4738 371.646 77.9276C371.646 87.3909 363.965 95.0712 354.502 95.0712H365.145C388.57 95.0712 405.905 70.165 411.995 49.7298H400.282Z" fill="url(#paint58_linear_140_100)"/>
<path fill-rule="evenodd" clip-rule="evenodd" d="M410.923 49.7297C404.834 29.2946 387.498 4.38837 364.073 4.38837H365.143C388.568 4.38837 405.904 29.2946 411.993 49.7297H410.923Z" fill="url(#paint59_linear_140_100)"/>
<path fill-rule="evenodd" clip-rule="evenodd" d="M410.923 49.7298C404.834 70.165 387.498 95.0712 364.073 95.0712H365.143C388.568 95.0712 405.904 70.165 411.993 49.7298H410.923Z" fill="url(#paint60_linear_140_100)"/>
<path fill-rule="evenodd" clip-rule="evenodd" d="M371.617 77.955C389.665 76.4738 398.607 56.4226 400.253 49.7572C398.607 43.0643 389.665 23.0132 371.617 21.5594C371.617 12.0962 363.936 4.41583 354.473 4.41583H85.497C76.0338 4.41583 68.3535 12.0962 68.3535 21.5594C50.3047 23.0406 41.3626 43.0918 39.7168 49.7572C41.3626 56.45 50.3047 76.5012 68.3535 77.955C68.3535 87.4182 76.0338 95.0985 85.497 95.0985H354.473C363.936 95.0985 371.617 87.4182 371.617 77.955ZM398.004 49.7572C397.455 47.7 396.55 45.5604 395.645 43.6678C394.191 40.6231 392.436 37.6881 390.351 35.0274C385.606 28.938 379.324 24.3573 371.425 23.7264L369.422 23.5618V21.532C369.422 13.2756 362.729 6.58278 354.473 6.58278H85.497C77.2407 6.58278 70.5478 13.2756 70.5478 21.532V23.5618L68.5455 23.7264C60.6457 24.3573 54.3643 28.938 49.6189 35.0274C47.5617 37.6881 45.7788 40.6231 44.325 43.6678C43.4198 45.5604 42.5421 47.7 41.966 49.7572C42.5146 51.8144 43.4198 53.9539 44.325 55.8466C45.7788 58.8913 47.5343 61.8263 49.6189 64.487C54.3643 70.5764 60.6457 75.1571 68.5455 75.788L70.5478 75.9526V77.9824C70.5478 86.2387 77.2407 92.9316 85.497 92.9316H354.473C362.729 92.9316 369.422 86.2387 369.422 77.9824V75.9526L371.425 75.788C379.324 75.1571 385.606 70.5764 390.351 64.487C392.408 61.8263 394.191 58.8913 395.645 55.8466C396.55 53.9539 397.428 51.8144 398.004 49.7572Z" fill="#CCCCCC"/>
<path fill-rule="evenodd" clip-rule="evenodd" d="M41.9953 49.7296C42.5439 47.6724 43.4491 45.5329 44.3543 43.6403C45.8081 40.5956 47.5636 37.6606 49.6482 34.9999C54.3936 28.9105 60.675 24.3297 68.5747 23.6988L70.5771 23.5343L68.3827 21.5045C50.334 22.9857 41.3919 43.0368 39.7461 49.7022H42.0228L41.9953 49.7296Z" fill="url(#paint61_linear_140_100)"/>
<path fill-rule="evenodd" clip-rule="evenodd" d="M44.3524 55.8192C43.4472 53.9266 42.5695 51.787 41.9935 49.7298H39.7168C41.3626 56.4227 50.3047 76.4738 68.3535 77.9276L70.5478 75.8978L68.5455 75.7332C60.6457 75.1023 54.3643 70.5215 49.6189 64.4321C47.5617 61.7715 45.7788 58.8365 44.325 55.7918L44.3524 55.8192Z" fill="url(#paint62_linear_140_100)"/>
<path fill-rule="evenodd" clip-rule="evenodd" d="M398.005 49.7296C397.456 47.6724 396.551 45.5329 395.646 43.6403C394.192 40.5956 392.436 37.6606 390.352 34.9999C385.606 28.9105 379.325 24.3297 371.425 23.6988L369.423 23.5343L371.617 21.5045C389.666 22.9857 398.608 43.0368 400.254 49.7022H397.977L398.005 49.7296Z" fill="url(#paint63_linear_140_100)"/>
<path fill-rule="evenodd" clip-rule="evenodd" d="M395.674 55.8192C396.579 53.9266 397.457 51.787 398.033 49.7298H400.31C398.664 56.4227 389.722 76.4738 371.673 77.9276L369.479 75.8978L371.481 75.7332C379.381 75.1023 385.662 70.5215 390.407 64.4321C392.465 61.7715 394.248 58.8365 395.701 55.7918L395.674 55.8192Z" fill="url(#paint64_linear_140_100)"/>
<path fill-rule="evenodd" clip-rule="evenodd" d="M70.5773 21.532C70.5773 13.2756 77.2701 6.58275 85.5265 6.58275H354.503C362.759 6.58275 369.452 13.2756 369.452 21.532V23.5618L371.646 21.532C371.646 12.0687 363.966 4.38837 354.503 4.38837H85.4991C76.0358 4.38837 68.3555 12.0687 68.3555 21.532L70.5498 23.5618V21.532H70.5773Z" fill="url(#paint65_linear_140_100)"/>
<path fill-rule="evenodd" clip-rule="evenodd" d="M85.4991 92.8769C77.2427 92.8769 70.5498 86.1841 70.5498 77.9277V75.8979L68.3555 77.9277C68.3555 87.391 76.0358 95.0713 85.4991 95.0713H354.475C363.938 95.0713 371.619 87.391 371.619 77.9277L369.424 75.8979V77.9277C369.424 86.1841 362.731 92.8769 354.475 92.8769H85.4991Z" fill="url(#paint66_linear_140_100)"/>
<path style="mix-blend-mode:screen" fill-rule="evenodd" clip-rule="evenodd" d="M220.015 2.85278C271.583 2.85278 318.46 3.4288 353.296 4.38884H86.7061C121.542 3.4288 168.419 2.85278 219.987 2.85278H220.015Z" fill="url(#paint67_linear_140_100)"/>
<path fill-rule="evenodd" clip-rule="evenodd" d="M220.013 93.6174C266.149 93.6174 308.089 94.1386 339.277 94.9889H100.748C131.908 94.1386 173.848 93.6174 220.013 93.6174Z" fill="white"/>
<path opacity="0.35" fill-rule="evenodd" clip-rule="evenodd" d="M65.9945 19.3375C57.793 20.5445 53.2671 22.9034 48.7412 28.3893C51.2099 21.4771 56.6958 17.8563 63.3338 16.8414C64.623 12.3155 67.0917 9.87428 71.4805 8.44794C68.3809 11.1361 66.9271 13.5499 65.9945 19.3101V19.3375Z" fill="#936037"/>
<path opacity="0.35" fill-rule="evenodd" clip-rule="evenodd" d="M374.004 19.3375C382.205 20.5445 386.731 22.9034 391.257 28.3893C388.788 21.4771 383.302 17.8563 376.664 16.8414C375.375 12.3155 372.906 9.87428 368.518 8.44794C371.617 11.1361 373.071 13.5499 374.004 19.3101V19.3375Z" fill="#936037"/>
<path opacity="0.75" fill-rule="evenodd" clip-rule="evenodd" d="M65.9945 80.1495C57.793 78.9426 53.2671 76.5836 48.7412 71.0977C51.2099 78.01 56.6958 81.6307 63.3338 82.6456C64.623 87.1715 67.0917 89.6127 71.4805 91.0391C68.3809 88.351 66.9271 85.9372 65.9945 80.1769V80.1495Z" fill="#683C11"/>
<path opacity="0.75" fill-rule="evenodd" clip-rule="evenodd" d="M374.004 80.1495C382.205 78.9426 386.731 76.5836 391.257 71.0977C388.788 78.01 383.302 81.6307 376.664 82.6456C375.375 87.1715 372.906 89.6127 368.518 91.0391C371.617 88.351 373.071 85.9372 374.004 80.1769V80.1495Z" fill="#683C11"/>
<defs>
<filter id="filter0_d_140_100" x="125.627" y="27.76" width="189.908" height="33.64" filterUnits="userSpaceOnUse" color-interpolation-filters="sRGB">
<feFlood flood-opacity="0" result="BackgroundImageFix"/>
<feColorMatrix in="SourceAlpha" type="matrix" values="0 0 0 0 0 0 0 0 0 0 0 0 0 0 0 0 0 0 127 0" result="hardAlpha"/>
<feOffset dy="4"/>
<feGaussianBlur stdDeviation="2"/>
<feComposite in2="hardAlpha" operator="out"/>
<feColorMatrix type="matrix" values="0 0 0 0 0 0 0 0 0 0 0 0 0 0 0 0 0 0 0.25 0"/>
<feBlend mode="normal" in2="BackgroundImageFix" result="effect1_dropShadow_140_100"/>
<feBlend mode="normal" in="SourceGraphic" in2="effect1_dropShadow_140_100" result="shape"/>
</filter>
<linearGradient id="paint0_linear_140_100" x1="27.0739" y1="20.5175" x2="43.998" y2="20.5175" gradientUnits="userSpaceOnUse">
<stop offset="0.06" stop-color="#9E651E"/>
<stop offset="0.41" stop-color="#EDA82B"/>
<stop offset="0.49" stop-color="#F3B637"/>
<stop offset="0.63" stop-color="#FBCA48"/>
<stop offset="0.72" stop-color="#FFD24F"/>
<stop offset="1" stop-color="#FFF4E1"/>
</linearGradient>
<linearGradient id="paint1_linear_140_100" x1="27.8135" y1="20.7919" x2="34.5063" y2="20.7919" gradientUnits="userSpaceOnUse">
<stop/>
<stop offset="1" stop-color="#FFD426"/>
</linearGradient>
<linearGradient id="paint2_linear_140_100" x1="29.6797" y1="20.5175" x2="43.998" y2="20.5175" gradientUnits="userSpaceOnUse">
<stop stop-color="#80521A"/>
<stop offset="1" stop-color="white"/>
</linearGradient>
<linearGradient id="paint3_linear_140_100" x1="31.9268" y1="11.1639" x2="43.9958" y2="11.1639" gradientUnits="userSpaceOnUse">
<stop/>
<stop offset="1" stop-color="#FFD426"/>
</linearGradient>
<linearGradient id="paint4_linear_140_100" x1="29.925" y1="28.8836" x2="40.0465" y2="6.08944" gradientUnits="userSpaceOnUse">
<stop stop-color="#9C6100"/>
<stop offset="1" stop-color="#FFCD59"/>
</linearGradient>
<linearGradient id="paint5_linear_140_100" x1="22.9037" y1="52.0068" x2="22.9037" y2="10.0667" gradientUnits="userSpaceOnUse">
<stop offset="0.06" stop-color="#9E651E"/>
<stop offset="0.41" stop-color="#EDA82B"/>
<stop offset="0.49" stop-color="#F3B637"/>
<stop offset="0.63" stop-color="#FBCA48"/>
<stop offset="0.72" stop-color="#FFD24F"/>
<stop offset="1" stop-color="#FFF4E1"/>
</linearGradient>
<linearGradient id="paint6_linear_140_100" x1="11.2735" y1="31.0505" x2="26.7713" y2="31.0505" gradientUnits="userSpaceOnUse">
<stop stop-color="white"/>
<stop offset="1" stop-color="#80521A"/>
</linearGradient>
<linearGradient id="paint7_linear_140_100" x1="18.7353" y1="34.4517" x2="18.7353" y2="10.0667" gradientUnits="userSpaceOnUse">
<stop/>
<stop offset="1" stop-color="#FFD426"/>
</linearGradient>
<linearGradient id="paint8_linear_140_100" x1="21.0645" y1="25.6742" x2="28.059" y2="25.6742" gradientUnits="userSpaceOnUse">
<stop/>
<stop offset="1" stop-color="#FFD426"/>
</linearGradient>
<linearGradient id="paint9_linear_140_100" x1="22.4102" y1="33.382" x2="34.0129" y2="33.382" gradientUnits="userSpaceOnUse">
<stop/>
<stop offset="1" stop-color="#FFD426"/>
</linearGradient>
<linearGradient id="paint10_linear_140_100" x1="23.1217" y1="52.0067" x2="23.1217" y2="24.2752" gradientUnits="userSpaceOnUse">
<stop stop-color="#80521A"/>
<stop offset="1" stop-color="white"/>
</linearGradient>
<linearGradient id="paint11_linear_140_100" x1="26.5788" y1="43.9151" x2="16.7589" y2="11.1092" gradientUnits="userSpaceOnUse">
<stop stop-color="#9C6100"/>
<stop offset="1" stop-color="#FFCD59"/>
</linearGradient>
<linearGradient id="paint12_linear_140_100" x1="0.0536846" y1="55.9567" x2="35.8221" y2="55.9567" gradientUnits="userSpaceOnUse">
<stop stop-color="#FFF4E1"/>
<stop offset="0.28" stop-color="#FFD24F"/>
<stop offset="0.37" stop-color="#FBCA48"/>
<stop offset="0.51" stop-color="#F3B637"/>
<stop offset="0.59" stop-color="#EDA82B"/>
<stop offset="0.94" stop-color="#9E651E"/>
</linearGradient>
<linearGradient id="paint13_linear_140_100" x1="0.0550412" y1="55.9567" x2="35.8234" y2="55.9567" gradientUnits="userSpaceOnUse">
<stop stop-color="white"/>
<stop offset="1" stop-color="#80521A"/>
</linearGradient>
<linearGradient id="paint14_linear_140_100" x1="8.83105" y1="61.1958" x2="35.8219" y2="61.1958" gradientUnits="userSpaceOnUse">
<stop stop-color="white"/>
<stop offset="1" stop-color="#80521A"/>
</linearGradient>
<linearGradient id="paint15_linear_140_100" x1="19.9406" y1="64.9537" x2="19.9406" y2="44.2717" gradientUnits="userSpaceOnUse">
<stop/>
<stop offset="1" stop-color="#FFD426"/>
</linearGradient>
<linearGradient id="paint16_linear_140_100" x1="4.49848" y1="56.1212" x2="4.49848" y2="35.6587" gradientUnits="userSpaceOnUse">
<stop/>
<stop offset="1" stop-color="#FFD426"/>
</linearGradient>
<linearGradient id="paint17_linear_140_100" x1="26.2765" y1="67.0109" x2="26.2765" y2="51.4856" gradientUnits="userSpaceOnUse">
<stop/>
<stop offset="1" stop-color="#FFD426"/>
</linearGradient>
<linearGradient id="paint18_linear_140_100" x1="-1.64478" y1="38.2919" x2="33.1636" y2="73.8682" gradientUnits="userSpaceOnUse">
<stop stop-color="#FFCD59"/>
<stop offset="1" stop-color="#9C6100"/>
</linearGradient>
<linearGradient id="paint19_linear_140_100" x1="13.6874" y1="83.6606" x2="52.0068" y2="83.6606" gradientUnits="userSpaceOnUse">
<stop stop-color="#EDA82B"/>
<stop offset="0.94" stop-color="#9E5B08"/>
</linearGradient>
<linearGradient id="paint20_linear_140_100" x1="13.6875" y1="84.6207" x2="37.4965" y2="84.6207" gradientUnits="userSpaceOnUse">
<stop stop-color="#FFD426"/>
<stop offset="1"/>
</linearGradient>
<linearGradient id="paint21_linear_140_100" x1="13.6874" y1="78.7508" x2="45.8899" y2="78.7508" gradientUnits="userSpaceOnUse">
<stop stop-color="#FFE887"/>
<stop offset="0.13" stop-color="#D4C170"/>
<stop offset="0.37" stop-color="#897D48"/>
<stop offset="0.59" stop-color="#4E4729"/>
<stop offset="0.77" stop-color="#232013"/>
<stop offset="0.92" stop-color="#090805"/>
<stop offset="1"/>
</linearGradient>
<linearGradient id="paint22_linear_140_100" x1="33.8477" y1="83.6607" x2="52.0062" y2="83.6607" gradientUnits="userSpaceOnUse">
<stop stop-color="white"/>
<stop offset="1" stop-color="#80521A"/>
</linearGradient>
<linearGradient id="paint23_linear_140_100" x1="13.6875" y1="85.526" x2="48.6056" y2="85.526" gradientUnits="userSpaceOnUse">
<stop stop-color="#FFCD59"/>
<stop offset="1" stop-color="#9C6100"/>
</linearGradient>
<linearGradient id="paint24_linear_140_100" x1="412.924" y1="-242.259" x2="396" y2="-242.259" gradientUnits="userSpaceOnUse">
<stop offset="0.06" stop-color="#9E651E"/>
<stop offset="0.41" stop-color="#EDA82B"/>
<stop offset="0.49" stop-color="#F3B637"/>
<stop offset="0.63" stop-color="#FBCA48"/>
<stop offset="0.72" stop-color="#FFD24F"/>
<stop offset="1" stop-color="#FFF4E1"/>
</linearGradient>
<linearGradient id="paint25_linear_140_100" x1="412.186" y1="-242.259" x2="405.493" y2="-242.259" gradientUnits="userSpaceOnUse">
<stop/>
<stop offset="1" stop-color="#FFD426"/>
</linearGradient>
<linearGradient id="paint26_linear_140_100" x1="410.318" y1="-242.259" x2="396" y2="-242.259" gradientUnits="userSpaceOnUse">
<stop stop-color="#80521A"/>
<stop offset="1" stop-color="white"/>
</linearGradient>
<linearGradient id="paint27_linear_140_100" x1="408.096" y1="11.1639" x2="396" y2="11.1639" gradientUnits="userSpaceOnUse">
<stop/>
<stop offset="1" stop-color="#FFD426"/>
</linearGradient>
<linearGradient id="paint28_linear_140_100" x1="410.071" y1="28.8836" x2="399.95" y2="6.08943" gradientUnits="userSpaceOnUse">
<stop stop-color="#9C6100"/>
<stop offset="1" stop-color="#FFCD59"/>
</linearGradient>
<linearGradient id="paint29_linear_140_100" x1="417.094" y1="52.0068" x2="417.094" y2="10.0667" gradientUnits="userSpaceOnUse">
<stop offset="0.06" stop-color="#9E651E"/>
<stop offset="0.41" stop-color="#EDA82B"/>
<stop offset="0.49" stop-color="#F3B637"/>
<stop offset="0.63" stop-color="#FBCA48"/>
<stop offset="0.72" stop-color="#FFD24F"/>
<stop offset="1" stop-color="#FFF4E1"/>
</linearGradient>
<linearGradient id="paint30_linear_140_100" x1="428.752" y1="-242.259" x2="413.254" y2="-242.259" gradientUnits="userSpaceOnUse">
<stop stop-color="white"/>
<stop offset="1" stop-color="#80521A"/>
</linearGradient>
<linearGradient id="paint31_linear_140_100" x1="421.263" y1="34.4517" x2="421.263" y2="10.0667" gradientUnits="userSpaceOnUse">
<stop/>
<stop offset="1" stop-color="#FFD426"/>
</linearGradient>
<linearGradient id="paint32_linear_140_100" x1="418.933" y1="25.6742" x2="411.938" y2="25.6742" gradientUnits="userSpaceOnUse">
<stop/>
<stop offset="1" stop-color="#FFD426"/>
</linearGradient>
<linearGradient id="paint33_linear_140_100" x1="417.615" y1="33.382" x2="405.985" y2="33.382" gradientUnits="userSpaceOnUse">
<stop/>
<stop offset="1" stop-color="#FFD426"/>
</linearGradient>
<linearGradient id="paint34_linear_140_100" x1="416.875" y1="52.0067" x2="416.875" y2="24.2752" gradientUnits="userSpaceOnUse">
<stop stop-color="#80521A"/>
<stop offset="1" stop-color="white"/>
</linearGradient>
<linearGradient id="paint35_linear_140_100" x1="413.42" y1="43.9151" x2="423.24" y2="11.1092" gradientUnits="userSpaceOnUse">
<stop stop-color="#9C6100"/>
<stop offset="1" stop-color="#FFCD59"/>
</linearGradient>
<linearGradient id="paint36_linear_140_100" x1="439.971" y1="-242.259" x2="404.202" y2="-242.259" gradientUnits="userSpaceOnUse">
<stop stop-color="#FFF4E1"/>
<stop offset="0.28" stop-color="#FFD24F"/>
<stop offset="0.37" stop-color="#FBCA48"/>
<stop offset="0.51" stop-color="#F3B637"/>
<stop offset="0.59" stop-color="#EDA82B"/>
<stop offset="0.94" stop-color="#9E651E"/>
</linearGradient>
<linearGradient id="paint37_linear_140_100" x1="439.971" y1="55.9567" x2="404.202" y2="55.9567" gradientUnits="userSpaceOnUse">
<stop stop-color="white"/>
<stop offset="1" stop-color="#80521A"/>
</linearGradient>
<linearGradient id="paint38_linear_140_100" x1="431.166" y1="61.1958" x2="404.202" y2="61.1958" gradientUnits="userSpaceOnUse">
<stop stop-color="white"/>
<stop offset="1" stop-color="#80521A"/>
</linearGradient>
<linearGradient id="paint39_linear_140_100" x1="420.083" y1="64.9537" x2="420.083" y2="44.2717" gradientUnits="userSpaceOnUse">
<stop/>
<stop offset="1" stop-color="#FFD426"/>
</linearGradient>
<linearGradient id="paint40_linear_140_100" x1="435.529" y1="56.1212" x2="435.529" y2="35.6587" gradientUnits="userSpaceOnUse">
<stop/>
<stop offset="1" stop-color="#FFD426"/>
</linearGradient>
<linearGradient id="paint41_linear_140_100" x1="413.72" y1="67.0109" x2="413.72" y2="51.4582" gradientUnits="userSpaceOnUse">
<stop/>
<stop offset="1" stop-color="#FFD426"/>
</linearGradient>
<linearGradient id="paint42_linear_140_100" x1="441.644" y1="38.2919" x2="406.835" y2="73.8682" gradientUnits="userSpaceOnUse">
<stop stop-color="#FFCD59"/>
<stop offset="1" stop-color="#9C6100"/>
</linearGradient>
<linearGradient id="paint43_linear_140_100" x1="426.311" y1="-242.26" x2="388.019" y2="-242.26" gradientUnits="userSpaceOnUse">
<stop stop-color="#EDA82B"/>
<stop offset="0.94" stop-color="#9E5B08"/>
</linearGradient>
<linearGradient id="paint44_linear_140_100" x1="426.309" y1="-242.259" x2="402.527" y2="-242.259" gradientUnits="userSpaceOnUse">
<stop stop-color="#FFD426"/>
<stop offset="1"/>
</linearGradient>
<linearGradient id="paint45_linear_140_100" x1="426.311" y1="-242.259" x2="394.136" y2="-242.259" gradientUnits="userSpaceOnUse">
<stop stop-color="#FFE887"/>
<stop offset="0.13" stop-color="#D4C170"/>
<stop offset="0.37" stop-color="#897D48"/>
<stop offset="0.59" stop-color="#4E4729"/>
<stop offset="0.77" stop-color="#232013"/>
<stop offset="0.92" stop-color="#090805"/>
<stop offset="1"/>
</linearGradient>
<linearGradient id="paint46_linear_140_100" x1="406.149" y1="83.6607" x2="388.018" y2="83.6607" gradientUnits="userSpaceOnUse">
<stop stop-color="white"/>
<stop offset="1" stop-color="#80521A"/>
</linearGradient>
<linearGradient id="paint47_linear_140_100" x1="426.311" y1="85.526" x2="391.42" y2="85.526" gradientUnits="userSpaceOnUse">
<stop stop-color="#FFCD59"/>
<stop offset="1" stop-color="#9C6100"/>
</linearGradient>
<linearGradient id="paint48_linear_140_100" x1="220.014" y1="99.4602" x2="220.014" y2="0" gradientUnits="userSpaceOnUse">
<stop stop-color="#4D2F00"/>
<stop offset="1" stop-color="#F0A324"/>
</linearGradient>
<linearGradient id="paint49_linear_140_100" x1="220.014" y1="95.071" x2="220.014" y2="4.38833" gradientUnits="userSpaceOnUse">
<stop stop-color="#630000"/>
<stop offset="0.2" stop-color="#8F0000"/>
<stop offset="1" stop-color="#FF3030"/>
</linearGradient>
<linearGradient id="paint50_linear_140_100" x1="220.012" y1="49.7297" x2="220.012" y2="4.38833" gradientUnits="userSpaceOnUse">
<stop stop-color="#5E0000" stop-opacity="0"/>
<stop offset="1" stop-color="#FF6E6E"/>
</linearGradient>
<linearGradient id="paint51_linear_140_100" x1="220.014" y1="49.7301" x2="220.014" y2="0" gradientUnits="userSpaceOnUse">
<stop stop-color="#FFC640"/>
<stop offset="1" stop-color="#FFFAE3"/>
</linearGradient>
<linearGradient id="paint52_linear_140_100" x1="220.014" y1="99.4599" x2="220.014" y2="49.7298" gradientUnits="userSpaceOnUse">
<stop stop-color="#6E4500"/>
<stop offset="1" stop-color="#CF9353"/>
</linearGradient>
<linearGradient id="paint53_linear_140_100" x1="56.7512" y1="49.7297" x2="56.7512" y2="4.38837" gradientUnits="userSpaceOnUse">
<stop stop-color="#F5AD24"/>
<stop offset="1" stop-color="#FFE56B"/>
</linearGradient>
<linearGradient id="paint54_linear_140_100" x1="28.0048" y1="72.4142" x2="85.4975" y2="72.4142" gradientUnits="userSpaceOnUse">
<stop stop-color="#CF9353"/>
<stop offset="1" stop-color="#6E4500"/>
</linearGradient>
<linearGradient id="paint55_linear_140_100" x1="51.9785" y1="49.7297" x2="51.9785" y2="4.38837" gradientUnits="userSpaceOnUse">
<stop stop-color="#CF9353"/>
<stop offset="1" stop-color="#6E4500"/>
</linearGradient>
<linearGradient id="paint56_linear_140_100" x1="51.9785" y1="95.0712" x2="51.9785" y2="49.7298" gradientUnits="userSpaceOnUse">
<stop stop-color="#FFBE45"/>
<stop offset="1" stop-color="#FFF0AB"/>
</linearGradient>
<linearGradient id="paint57_linear_140_100" x1="383.248" y1="49.7297" x2="383.248" y2="4.38837" gradientUnits="userSpaceOnUse">
<stop stop-color="#F5AD24"/>
<stop offset="1" stop-color="#FFE56B"/>
</linearGradient>
<linearGradient id="paint58_linear_140_100" x1="383.248" y1="95.0712" x2="383.248" y2="49.7298" gradientUnits="userSpaceOnUse">
<stop stop-color="#6E4500"/>
<stop offset="1" stop-color="#CF9353"/>
</linearGradient>
<linearGradient id="paint59_linear_140_100" x1="388.047" y1="49.7297" x2="388.047" y2="4.38837" gradientUnits="userSpaceOnUse">
<stop stop-color="#CF9353"/>
<stop offset="1" stop-color="#6E4500"/>
</linearGradient>
<linearGradient id="paint60_linear_140_100" x1="388.047" y1="95.0712" x2="388.047" y2="49.7298" gradientUnits="userSpaceOnUse">
<stop stop-color="#FFBE45"/>
<stop offset="1" stop-color="#FFF0AB"/>
</linearGradient>
<linearGradient id="paint61_linear_140_100" x1="55.1616" y1="49.7296" x2="55.1616" y2="21.5319" gradientUnits="userSpaceOnUse">
<stop stop-color="#CF7B23"/>
<stop offset="1" stop-color="#7A4000"/>
</linearGradient>
<linearGradient id="paint62_linear_140_100" x1="55.1597" y1="77.955" x2="55.1597" y2="49.7298" gradientUnits="userSpaceOnUse">
<stop stop-color="#FFE56B"/>
<stop offset="1" stop-color="#F5AD24"/>
</linearGradient>
<linearGradient id="paint63_linear_140_100" x1="384.866" y1="-242.26" x2="384.866" y2="-242.26" gradientUnits="userSpaceOnUse">
<stop stop-color="#CF7B23"/>
<stop offset="1" stop-color="#7A4000"/>
</linearGradient>
<linearGradient id="paint64_linear_140_100" x1="384.867" y1="-242.26" x2="384.867" y2="-242.26" gradientUnits="userSpaceOnUse">
<stop stop-color="#FFE56B"/>
<stop offset="1" stop-color="#F5AD24"/>
</linearGradient>
<linearGradient id="paint65_linear_140_100" x1="220.015" y1="23.5618" x2="220.015" y2="4.38837" gradientUnits="userSpaceOnUse">
<stop stop-color="#FFB566"/>
<stop offset="1" stop-color="#6E4500"/>
</linearGradient>
<linearGradient id="paint66_linear_140_100" x1="220.015" y1="95.0713" x2="220.015" y2="75.9253" gradientUnits="userSpaceOnUse">
<stop stop-color="#FFF0AB"/>
<stop offset="1" stop-color="#FFBE45"/>
</linearGradient>
<linearGradient id="paint67_linear_140_100" x1="220.015" y1="4.38884" x2="220.015" y2="2.85278" gradientUnits="userSpaceOnUse">
<stop stop-color="#E8E7B3"/>
<stop offset="1" stop-color="#473626"/>
</linearGradient>
</defs>
</svg>
