<svg width="20" height="21" viewBox="0 0 20 21" fill="none" xmlns="http://www.w3.org/2000/svg">
<g clip-path="url(#clip0_22_593)">
<path d="M14.1666 1.97852H5.83329C3.53211 1.97852 1.66663 3.844 1.66663 6.14518V14.4785C1.66663 16.7797 3.53211 18.6452 5.83329 18.6452H14.1666C16.4678 18.6452 18.3333 16.7797 18.3333 14.4785V6.14518C18.3333 3.844 16.4678 1.97852 14.1666 1.97852Z" stroke="white" stroke-width="2" stroke-linecap="round" stroke-linejoin="round"/>
<path d="M13.3334 9.78677C13.4362 10.4803 13.3178 11.1886 12.9948 11.811C12.6719 12.4333 12.161 12.938 11.5347 13.2532C10.9085 13.5684 10.1987 13.6781 9.50653 13.5667C8.81431 13.4553 8.17484 13.1285 7.67907 12.6327C7.1833 12.137 6.85648 11.4975 6.7451 10.8053C6.63371 10.1131 6.74343 9.40335 7.05865 8.77709C7.37386 8.15082 7.87853 7.63989 8.50086 7.31698C9.12319 6.99406 9.8315 6.8756 10.525 6.97844C11.2325 7.08335 11.8874 7.41299 12.3931 7.9187C12.8988 8.4244 13.2285 9.07934 13.3334 9.78677Z" stroke="white" stroke-width="2" stroke-linecap="round" stroke-linejoin="round"/>
<path d="M14.5834 5.72852H14.5917" stroke="white" stroke-width="2" stroke-linecap="round" stroke-linejoin="round"/>
</g>
<defs>
<clipPath id="clip0_22_593">
<rect width="20" height="20" fill="white" transform="translate(0 0.311523)"/>
</clipPath>
</defs>
</svg>
