<svg width="24" height="25" viewBox="0 0 24 25" fill="none" xmlns="http://www.w3.org/2000/svg">
<path d="M6.93994 5.31155C6.93968 5.84198 6.72871 6.35058 6.35345 6.72547C5.97819 7.10035 5.46937 7.31081 4.93894 7.31055C4.40851 7.31028 3.89991 7.09931 3.52502 6.72405C3.15014 6.34879 2.93968 5.83998 2.93994 5.30955C2.94021 4.77911 3.15117 4.27051 3.52644 3.89563C3.9017 3.52074 4.41051 3.31028 4.94094 3.31055C5.47137 3.31081 5.97998 3.52178 6.35486 3.89704C6.72975 4.2723 6.94021 4.78111 6.93994 5.31155ZM6.99994 8.79155H2.99994V21.3115H6.99994V8.79155ZM13.3199 8.79155H9.33994V21.3115H13.2799V14.7415C13.2799 11.0815 18.0499 10.7415 18.0499 14.7415V21.3115H21.9999V13.3815C21.9999 7.21155 14.9399 7.44155 13.2799 10.4715L13.3199 8.79155Z" fill="white"/>
</svg>
