<svg width="20" height="21" viewBox="0 0 20 21" fill="none" xmlns="http://www.w3.org/2000/svg">
<path d="M19.1667 2.81111C18.3687 3.37401 17.4851 3.80454 16.55 4.08611C16.0482 3.50904 15.3812 3.10002 14.6392 2.91439C13.8973 2.72875 13.1163 2.77544 12.4018 3.04816C11.6873 3.32087 11.0737 3.80645 10.6442 4.43921C10.2146 5.07197 9.98979 5.82139 10 6.58611V7.41945C8.53557 7.45742 7.08443 7.13263 5.77588 6.47399C4.46733 5.81535 3.34197 4.84331 2.50004 3.64445C2.50004 3.64445 -0.833292 11.1444 6.66671 14.4778C4.95048 15.6428 2.906 16.2269 0.833374 16.1444C8.33337 20.3111 17.5 16.1444 17.5 6.56111C17.4993 6.32899 17.477 6.09744 17.4334 5.86945C18.2839 5.03069 18.8841 3.97171 19.1667 2.81111Z" fill="white"/>
</svg>
