<svg width="24" height="25" viewBox="0 0 24 25" fill="none" xmlns="http://www.w3.org/2000/svg">
<path d="M21.543 6.80952C22 8.59152 22 12.3115 22 12.3115C22 12.3115 22 16.0315 21.543 17.8135C21.289 18.7985 20.546 19.5735 19.605 19.8355C17.896 20.3115 12 20.3115 12 20.3115C12 20.3115 6.107 20.3115 4.395 19.8355C3.45 19.5695 2.708 18.7955 2.457 17.8135C2 16.0315 2 12.3115 2 12.3115C2 12.3115 2 8.59152 2.457 6.80952C2.711 5.82452 3.454 5.04952 4.395 4.78752C6.107 4.31152 12 4.31152 12 4.31152C12 4.31152 17.896 4.31152 19.605 4.78752C20.55 5.05352 21.292 5.82752 21.543 6.80952ZM10 15.8115L16 12.3115L10 8.81152V15.8115Z" fill="white"/>
</svg>
